<?xml version="1.0" encoding="utf-8"?>
<!-- Generator: Adobe Illustrator 16.0.0, SVG Export Plug-In . SVG Version: 6.00 Build 0)  -->
<!DOCTYPE svg PUBLIC "-//W3C//DTD SVG 1.1//EN" "http://www.w3.org/Graphics/SVG/1.1/DTD/svg11.dtd">
<svg version="1.1" id="Capa_1" xmlns="http://www.w3.org/2000/svg" xmlns:xlink="http://www.w3.org/1999/xlink" x="0px" y="0px"
	 width="45.773px" height="45.773px" viewBox="0 0 45.773 45.773" enable-background="new 0 0 45.773 45.773" xml:space="preserve">
<g>
	<g>
		<path fill="#FE330A" d="M5.081,13.737c2.582-3.942,6.609-6.849,11.32-7.988c0.363-0.087,0.662-0.344,0.802-0.688
			c0.142-0.347,0.107-0.738-0.091-1.056C15.604,1.601,12.936,0,9.888,0C5.176,0,1.354,3.82,1.354,8.532c0,2,0.69,3.837,1.845,5.29
			c0.231,0.293,0.589,0.455,0.962,0.438C4.534,14.243,4.877,14.048,5.081,13.737z"/>
		<path fill="#FE330A" d="M35.886,0c-3.034,0-5.693,1.586-7.204,3.975c-0.2,0.315-0.235,0.711-0.095,1.059
			c0.143,0.349,0.442,0.605,0.81,0.691c4.724,1.111,8.765,3.999,11.369,7.928c0.207,0.312,0.552,0.505,0.927,0.518
			c0.375,0.015,0.73-0.153,0.961-0.451c1.104-1.436,1.766-3.231,1.766-5.186C44.417,3.82,40.598,0,35.886,0z"/>
		<path fill="#FE330A" d="M41.752,26.132c0-3.294-0.856-6.39-2.351-9.084c-2.77-4.989-7.742-8.576-13.595-9.475
			c-0.934-0.143-1.881-0.24-2.854-0.24c-1.016,0-2.006,0.104-2.979,0.26C14.146,8.528,9.198,12.13,6.458,17.126
			c-1.467,2.676-2.304,5.744-2.304,9.006c0,5.586,2.463,10.598,6.343,14.041l-1.584,2.231c-0.682,0.961-0.456,2.291,0.505,2.975
			c0.375,0.267,0.807,0.396,1.233,0.396c0.668,0,1.326-0.313,1.741-0.898l1.583-2.229c2.669,1.457,5.728,2.287,8.978,2.287
			c3.249,0,6.309-0.83,8.978-2.287l1.583,2.229c0.416,0.586,1.072,0.898,1.74,0.898c0.428,0,0.857-0.129,1.232-0.396
			c0.961-0.684,1.188-2.014,0.506-2.975l-1.584-2.231C39.288,36.729,41.752,31.718,41.752,26.132z M22.954,39.674
			c-7.468,0-13.542-6.073-13.542-13.542c0-2.327,0.591-4.519,1.629-6.435c1.977-3.644,5.58-6.269,9.826-6.93
			c0.682-0.106,1.375-0.179,2.087-0.179c0.67,0,1.325,0.065,1.97,0.16c4.282,0.628,7.926,3.253,9.925,6.913
			c1.05,1.923,1.646,4.126,1.646,6.469C36.495,33.6,30.421,39.674,22.954,39.674z"/>
		<path fill="#FE330A" d="M30.54,29.3l-5.166-3.189c-0.106-0.604-0.434-1.125-0.893-1.494l0.235-6.482
			c0.029-0.827-0.616-1.522-1.443-1.554c-0.825-0.038-1.523,0.616-1.554,1.444l-0.237,6.489c-0.642,0.451-1.063,1.195-1.063,2.041
			c0,1.381,1.119,2.499,2.5,2.499c0.394,0,0.761-0.1,1.09-0.261l4.955,3.063c0.246,0.149,0.52,0.223,0.787,0.223
			c0.503,0,0.993-0.252,1.278-0.711C31.465,30.66,31.245,29.736,30.54,29.3z"/>
	</g>
</g>
</svg>
