<?xml version="1.0" encoding="utf-8"?>
<!-- Generator: Adobe Illustrator 16.0.0, SVG Export Plug-In . SVG Version: 6.00 Build 0)  -->
<!DOCTYPE svg PUBLIC "-//W3C//DTD SVG 1.1//EN" "http://www.w3.org/Graphics/SVG/1.1/DTD/svg11.dtd">
<svg version="1.1" id="Capa_1" xmlns="http://www.w3.org/2000/svg" xmlns:xlink="http://www.w3.org/1999/xlink" x="0px" y="0px"
	 width="150px" height="37.693px" viewBox="-25 -6.282 150 37.693" enable-background="new -25 -6.282 150 37.693"
	 xml:space="preserve">
<g>
	<path fill="#CC6602" d="M65.055-3.312L62.117-1.79c-0.073,0.039-0.127,0.064-0.205,0.064c-0.196,0-0.354-0.159-0.354-0.355
		c0-0.082,0.028-0.157,0.074-0.217l1.924-2.415c0.076-0.091,0.169-0.183,0.283-0.183s0.162,0.059,0.296,0.163l0.981,0.769
		c0.117,0.092,0.201,0.192,0.201,0.318C65.318-3.483,65.186-3.376,65.055-3.312"/>
	<path fill="#006BAB" d="M-13.945,5.921h10.659v9.582c-1.291,1.173-2.696,2.071-4.218,2.692c-1.52,0.622-3.057,0.933-4.613,0.933
		c-1.793,0-3.475-0.328-5.042-0.987c-1.567-0.656-2.931-1.554-4.092-2.69s-2.076-2.464-2.747-3.984C-24.665,9.946-25,8.325-25,6.601
		c0-1.723,0.335-3.365,1.005-4.934c0.669-1.567,1.586-2.937,2.745-4.109c1.159-1.172,2.524-2.106,4.092-2.799
		c1.566-0.694,3.249-1.041,5.042-1.041c1.556,0,3.097,0.347,4.629,1.041s3.003,1.686,4.415,2.979l-2.333,2.37
		c-1.054-1.03-2.154-1.784-3.304-2.263c-1.146-0.478-2.284-0.718-3.409-0.718c-1.34,0-2.584,0.246-3.731,0.737
		c-1.146,0.488-2.14,1.165-2.976,2.026c-0.838,0.863-1.503,1.866-1.992,3.015c-0.492,1.149-0.737,2.38-0.737,3.696
		c0,1.245,0.246,2.417,0.737,3.518c0.491,1.101,1.154,2.063,1.992,2.889c0.836,0.825,1.83,1.478,2.977,1.956
		c1.149,0.478,2.393,0.719,3.732,0.719c0.909,0,1.812-0.132,2.71-0.396c0.897-0.261,1.801-0.68,2.709-1.254V9.078h-7.248V5.921z"/>
	<path fill="#006BAB" d="M14.084,15.43c-1.005,1.198-2.124,2.124-3.355,2.782c-1.233,0.657-2.591,0.985-4.074,0.985
		c-1.411,0-2.65-0.227-3.714-0.681c-1.065-0.454-1.956-1.083-2.674-1.886c-0.719-0.801-1.264-1.752-1.633-2.852
		c-0.372-1.1-0.558-2.297-0.558-3.59c0-1.22,0.186-2.38,0.558-3.481c0.371-1.099,0.914-2.069,1.633-2.907
		c0.718-0.837,1.607-1.5,2.674-1.992c1.063-0.491,2.303-0.737,3.714-0.737c1.292,0,2.465,0.256,3.518,0.772
		c1.051,0.515,1.942,1.22,2.672,2.118c0.729,0.897,1.298,1.962,1.706,3.195c0.406,1.231,0.61,2.565,0.61,4H1.487
		c0.046,1.46,0.508,2.655,1.381,3.589c0.873,0.934,2.136,1.399,3.786,1.399c0.813,0,1.543-0.155,2.188-0.466
		c0.647-0.311,1.195-0.656,1.652-1.04c0.527-0.431,0.993-0.935,1.4-1.509L14.084,15.43z M6.619,4.197
		c-0.693,0-1.328,0.108-1.902,0.323C4.143,4.734,3.642,5.028,3.209,5.398C2.778,5.771,2.432,6.193,2.168,6.672
		C1.905,7.15,1.726,7.641,1.631,8.144h9.763c-0.336-1.077-0.929-2.003-1.778-2.781C8.765,4.587,7.768,4.197,6.619,4.197"/>
	<path fill="#006BAB" d="M19.862,5.813c0,0.264,0.102,0.514,0.304,0.754c0.205,0.24,0.468,0.466,0.791,0.681
		c0.322,0.216,0.699,0.426,1.13,0.628c0.431,0.204,0.86,0.412,1.291,0.628c0.646,0.286,1.305,0.597,1.974,0.933
		c0.67,0.336,1.28,0.73,1.831,1.185c0.548,0.454,1.005,0.969,1.363,1.543c0.359,0.575,0.539,1.245,0.539,2.009
		c0,1.482-0.568,2.698-1.706,3.643c-1.137,0.945-2.71,1.417-4.719,1.417c-1.029,0-1.955-0.12-2.781-0.359
		c-0.825-0.237-1.532-0.508-2.118-0.807c-0.586-0.299-1.035-0.574-1.345-0.825c-0.313-0.252-0.467-0.391-0.467-0.411l1.292-2.476
		c0.288,0.142,0.646,0.305,1.077,0.483s0.891,0.352,1.381,0.52c0.489,0.169,0.993,0.313,1.508,0.43
		c0.513,0.12,0.999,0.182,1.453,0.182c0.766,0,1.394-0.151,1.884-0.448c0.491-0.299,0.737-0.747,0.737-1.348
		c0-0.478-0.276-0.879-0.825-1.202c-0.552-0.322-1.209-0.664-1.975-1.023c-0.023-0.023-0.047-0.035-0.071-0.035
		c-0.048,0-0.072-0.012-0.072-0.036l-0.646-0.322v0.036c-0.623-0.264-1.237-0.551-1.848-0.863c-0.609-0.31-1.166-0.693-1.668-1.147
		c-0.502-0.455-0.909-0.993-1.22-1.616c-0.312-0.623-0.466-1.387-0.466-2.296c0-1.437,0.508-2.596,1.525-3.482
		c1.018-0.885,2.459-1.327,4.325-1.327c0.79,0,1.519,0.085,2.188,0.25c0.668,0.166,1.243,0.346,1.723,0.538
		c0.574,0.24,1.087,0.491,1.543,0.754l-1.438,2.763c-0.43-0.214-1.017-0.454-1.758-0.717c-0.742-0.264-1.495-0.394-2.26-0.394
		c-0.767,0-1.37,0.173-1.813,0.52C20.083,4.922,19.862,5.334,19.862,5.813"/>
	<path fill="#006BAB" d="M36.838,19.2c-3.35,0-5.025-1.962-5.025-5.886V4.521h-1.686V1.075h1.686v-3.517h3.518v3.517h4.593v3.446
		H35.33v8.793c0,0.264,0.011,0.539,0.036,0.824c0.023,0.287,0.082,0.551,0.178,0.791c0.097,0.239,0.233,0.437,0.413,0.594
		c0.18,0.155,0.437,0.231,0.771,0.231c0.265,0,0.521-0.084,0.773-0.251c0.25-0.168,0.568-0.49,0.951-0.968l2.621,1.829
		c-0.48,0.767-1.077,1.43-1.795,1.992C38.56,18.918,37.747,19.2,36.838,19.2"/>
	<rect x="43.296" y="1.039" fill="#006BAB" width="3.446" height="17.945"/>
	<path fill="#006BAB" d="M57.474,19.162c-1.22,0-2.382-0.226-3.481-0.68c-1.101-0.454-2.063-1.09-2.891-1.901
		c-0.825-0.816-1.482-1.78-1.973-2.892c-0.491-1.113-0.736-2.314-0.736-3.607c0-1.219,0.245-2.387,0.736-3.5
		c0.491-1.113,1.148-2.088,1.973-2.925c0.828-0.838,1.79-1.501,2.891-1.994c1.1-0.488,2.262-0.736,3.481-0.736
		c1.219,0,2.385,0.248,3.498,0.736c1.113,0.492,2.083,1.155,2.907,1.994c0.828,0.837,1.484,1.812,1.974,2.925
		c0.489,1.113,0.735,2.279,0.735,3.5c0,1.292-0.246,2.494-0.735,3.607c-0.489,1.111-1.148,2.075-1.974,2.892
		c-0.824,0.812-1.794,1.447-2.907,1.901S58.693,19.162,57.474,19.162 M57.474,4.269c-0.839,0-1.61,0.161-2.317,0.484
		c-0.705,0.324-1.307,0.754-1.811,1.293c-0.504,0.538-0.898,1.154-1.184,1.848c-0.287,0.694-0.431,1.425-0.431,2.188
		c0,0.814,0.144,1.573,0.431,2.28c0.285,0.706,0.68,1.317,1.184,1.83c0.504,0.516,1.105,0.915,1.811,1.204
		c0.707,0.285,1.479,0.429,2.317,0.429c0.837,0,1.608-0.144,2.314-0.429c0.706-0.287,1.31-0.688,1.811-1.204
		c0.504-0.513,0.899-1.125,1.187-1.83c0.285-0.706,0.431-1.466,0.431-2.28c0-0.765-0.14-1.496-0.413-2.188
		c-0.275-0.693-0.664-1.31-1.166-1.848c-0.502-0.539-1.107-0.97-1.813-1.293C59.117,4.431,58.335,4.269,57.474,4.269"/>
	<path fill="#006BAB" d="M79.71,9.792c0-0.597-0.067-1.364-0.164-2.023c-0.095-0.657-0.281-1.263-0.556-1.812
		c-0.276-0.551-0.663-0.999-1.166-1.345C77.32,4.264,76.663,4.09,75.852,4.09c-0.719,0-1.346,0.15-1.884,0.448
		c-0.539,0.3-0.996,0.701-1.365,1.204s-0.645,1.09-0.826,1.759c-0.179,0.669-0.269,1.375-0.269,2.118v9.404h-3.445V1.075h3.445
		l0.034,1.76c0.36-0.431,0.905-0.885,1.635-1.365c0.729-0.478,1.622-0.718,2.672-0.718c1.315,0,2.44,0.246,3.375,0.737
		c0.932,0.49,1.69,1.148,2.279,1.972c0.586,0.826,1.011,1.784,1.274,2.873c0.264,1.089,0.396,2.288,0.396,3.458"/>
	<path fill="#5B9CCC" d="M122.961-0.795c0,0.796-0.643,1.44-1.438,1.44c-0.794,0-1.438-0.644-1.438-1.44
		c0-0.795,0.645-1.44,1.438-1.44C122.318-2.235,122.961-1.59,122.961-0.795"/>
	<polygon fill="#5B9CCC" points="-11.876,24.3 -11.323,24.3 -10.222,28.185 -8.677,24.3 -8.564,24.3 -7.036,28.185 -5.915,24.3 
		-5.367,24.3 -6.916,29.692 -7.017,29.692 -8.617,25.613 -10.248,29.692 -10.348,29.692 	"/>
	<path fill="#5B9CCC" d="M-1.444,28.368l0.432,0.228c-0.142,0.279-0.306,0.504-0.492,0.674c-0.188,0.171-0.396,0.302-0.627,0.39
		c-0.233,0.091-0.495,0.136-0.789,0.136c-0.651,0-1.16-0.212-1.527-0.64c-0.368-0.428-0.551-0.908-0.551-1.447
		c0-0.506,0.156-0.957,0.466-1.351c0.395-0.504,0.919-0.756,1.582-0.756c0.679,0,1.222,0.258,1.629,0.773
		c0.288,0.363,0.435,0.818,0.439,1.363h-3.589c0.01,0.465,0.157,0.846,0.443,1.14c0.285,0.296,0.64,0.444,1.061,0.444
		c0.203,0,0.401-0.035,0.593-0.105s0.355-0.164,0.491-0.281C-1.749,28.818-1.6,28.63-1.444,28.368 M-1.444,27.294
		c-0.069-0.275-0.168-0.492-0.3-0.656c-0.13-0.164-0.305-0.296-0.519-0.396c-0.216-0.1-0.443-0.152-0.681-0.152
		c-0.39,0-0.727,0.126-1.008,0.378c-0.206,0.185-0.362,0.458-0.466,0.823h2.974V27.294z"/>
	<polygon fill="#5B9CCC" points="2.151,24.163 2.664,24.163 2.664,27.313 4.514,25.704 5.269,25.704 3.075,27.605 5.396,29.692 
		4.675,29.692 2.664,27.898 2.664,29.692 2.151,29.692 	"/>
	<path fill="#5B9CCC" d="M5.924,25.704h0.513v0.715c0.206-0.272,0.434-0.478,0.683-0.614c0.25-0.136,0.522-0.203,0.813-0.203
		c0.298,0,0.563,0.076,0.793,0.226c0.231,0.152,0.402,0.355,0.512,0.612c0.109,0.256,0.165,0.656,0.165,1.199v2.053H8.889v-1.904
		c0-0.46-0.019-0.765-0.056-0.919c-0.061-0.265-0.175-0.464-0.344-0.596c-0.168-0.132-0.389-0.199-0.658-0.199
		c-0.313,0-0.59,0.103-0.836,0.308s-0.406,0.46-0.485,0.765c-0.049,0.196-0.073,0.558-0.073,1.084v1.463H5.924V25.704z"/>
	<path fill="#5B9CCC" d="M12.391,25.601c0.615,0,1.125,0.221,1.528,0.668c0.367,0.405,0.551,0.885,0.551,1.438
		c0,0.557-0.193,1.044-0.583,1.462c-0.387,0.416-0.886,0.625-1.497,0.625c-0.612,0-1.113-0.209-1.5-0.625
		c-0.389-0.416-0.582-0.905-0.582-1.462c0-0.551,0.185-1.031,0.55-1.436C11.264,25.825,11.774,25.601,12.391,25.601 M12.389,26.102
		c-0.427,0-0.793,0.158-1.1,0.473c-0.306,0.315-0.458,0.696-0.458,1.145c0,0.287,0.068,0.557,0.209,0.809
		c0.14,0.249,0.329,0.439,0.565,0.574c0.239,0.138,0.5,0.205,0.783,0.205c0.284,0,0.545-0.067,0.783-0.205
		c0.238-0.135,0.426-0.325,0.567-0.574c0.139-0.252,0.208-0.521,0.208-0.809c0-0.448-0.154-0.829-0.461-1.145
		C13.178,26.26,12.812,26.102,12.389,26.102"/>
	<polygon fill="#5B9CCC" points="14.879,25.704 15.407,25.704 16.629,28.598 17.903,25.704 17.996,25.704 19.277,28.598 
		20.523,25.704 21.056,25.704 19.323,29.692 19.228,29.692 17.954,26.837 16.679,29.692 16.583,29.692 	"/>
	<path fill="#5B9CCC" d="M23.737,24.163h0.513v2.256c0.208-0.272,0.437-0.478,0.687-0.614c0.249-0.136,0.52-0.203,0.81-0.203
		c0.298,0,0.563,0.076,0.793,0.226c0.231,0.152,0.402,0.355,0.512,0.61c0.11,0.255,0.165,0.658,0.165,1.201v2.053h-0.513v-1.904
		c0-0.459-0.02-0.765-0.056-0.919c-0.063-0.265-0.179-0.464-0.347-0.596c-0.167-0.132-0.386-0.199-0.657-0.199
		c-0.311,0-0.588,0.103-0.834,0.308s-0.408,0.46-0.486,0.765c-0.048,0.193-0.073,0.555-0.073,1.084v1.463h-0.513v-5.529H23.737z"/>
	<path fill="#5B9CCC" d="M30.201,25.601c0.615,0,1.125,0.221,1.528,0.668c0.368,0.405,0.551,0.885,0.551,1.438
		c0,0.557-0.193,1.044-0.582,1.462c-0.387,0.416-0.886,0.625-1.497,0.625c-0.611,0-1.111-0.209-1.5-0.625
		c-0.387-0.416-0.582-0.905-0.582-1.462c0-0.551,0.185-1.031,0.55-1.436C29.075,25.825,29.585,25.601,30.201,25.601 M30.2,26.102
		c-0.427,0-0.793,0.158-1.099,0.473c-0.308,0.315-0.461,0.696-0.461,1.145c0,0.287,0.069,0.557,0.21,0.809
		c0.14,0.249,0.329,0.439,0.565,0.574c0.239,0.138,0.5,0.205,0.783,0.205s0.546-0.067,0.783-0.205
		c0.238-0.135,0.428-0.325,0.567-0.574c0.139-0.252,0.209-0.521,0.209-0.809c0-0.448-0.155-0.829-0.462-1.145
		C30.991,26.261,30.625,26.102,30.2,26.102"/>
	<polygon fill="#5B9CCC" points="32.691,25.704 33.22,25.704 34.442,28.598 35.714,25.704 35.809,25.704 37.09,28.598 
		38.335,25.704 38.869,25.704 37.136,29.692 37.04,29.692 35.765,26.837 34.49,29.692 34.396,29.692 	"/>
	<path fill="#5B9CCC" d="M40.034,28.886c0.124,0,0.23,0.043,0.319,0.131c0.088,0.088,0.13,0.196,0.13,0.322s-0.043,0.232-0.13,0.322
		c-0.089,0.089-0.195,0.135-0.319,0.135c-0.125,0-0.231-0.046-0.318-0.135c-0.088-0.09-0.132-0.196-0.132-0.322
		s0.045-0.234,0.132-0.322C39.803,28.929,39.909,28.886,40.034,28.886"/>
	<polygon fill="#5B9CCC" points="41.329,24.3 41.882,24.3 42.982,28.185 44.529,24.3 44.643,24.3 46.169,28.185 47.288,24.3 
		47.839,24.3 46.289,29.692 46.188,29.692 44.59,25.613 42.958,29.692 42.856,29.692 	"/>
	<path fill="#5B9CCC" d="M51.761,28.368l0.434,0.228c-0.142,0.279-0.306,0.504-0.492,0.674c-0.185,0.171-0.396,0.302-0.628,0.39
		c-0.23,0.091-0.495,0.136-0.788,0.136c-0.651,0-1.159-0.212-1.525-0.64c-0.367-0.428-0.55-0.908-0.55-1.447
		c0-0.506,0.156-0.957,0.466-1.351c0.393-0.504,0.919-0.756,1.581-0.756c0.68,0,1.222,0.258,1.629,0.773
		c0.289,0.363,0.436,0.818,0.442,1.363h-3.59c0.01,0.465,0.158,0.846,0.445,1.14c0.285,0.296,0.637,0.444,1.061,0.444
		c0.202,0,0.402-0.035,0.593-0.105c0.193-0.07,0.354-0.164,0.489-0.281S51.603,28.63,51.761,28.368 M51.761,27.294
		c-0.067-0.275-0.167-0.492-0.299-0.656s-0.302-0.296-0.521-0.396c-0.214-0.1-0.44-0.152-0.678-0.152
		c-0.391,0-0.728,0.126-1.009,0.378c-0.205,0.185-0.361,0.458-0.466,0.823h2.973V27.294z"/>
	<path fill="#5B9CCC" d="M59.343,24.163v5.529h-0.507v-0.686c-0.214,0.263-0.457,0.459-0.723,0.591
		c-0.268,0.132-0.559,0.199-0.877,0.199c-0.565,0-1.049-0.205-1.447-0.614c-0.401-0.408-0.6-0.906-0.6-1.494
		c0-0.574,0.204-1.064,0.605-1.472c0.401-0.409,0.888-0.612,1.456-0.612c0.328,0,0.624,0.07,0.888,0.209
		c0.267,0.14,0.498,0.348,0.7,0.627v-2.274h0.504V24.163z M57.289,26.096c-0.284,0-0.548,0.07-0.789,0.211
		c-0.242,0.141-0.434,0.337-0.576,0.592c-0.144,0.255-0.217,0.522-0.217,0.806c0,0.281,0.073,0.548,0.219,0.804
		c0.143,0.257,0.336,0.456,0.58,0.6c0.242,0.142,0.504,0.214,0.78,0.214c0.281,0,0.548-0.07,0.797-0.213
		c0.252-0.142,0.445-0.332,0.583-0.575c0.135-0.24,0.202-0.513,0.202-0.817c0-0.462-0.152-0.846-0.457-1.156
		C58.109,26.251,57.734,26.096,57.289,26.096"/>
	<path fill="#5B9CCC" d="M62.393,25.601c0.613,0,1.122,0.221,1.526,0.668c0.369,0.405,0.554,0.885,0.554,1.438
		c0,0.557-0.196,1.044-0.584,1.462c-0.391,0.416-0.889,0.625-1.496,0.625c-0.612,0-1.113-0.209-1.5-0.625
		c-0.39-0.416-0.583-0.905-0.583-1.462c0-0.551,0.183-1.031,0.551-1.436C61.265,25.825,61.774,25.601,62.393,25.601 M62.39,26.102
		c-0.428,0-0.791,0.158-1.099,0.473c-0.308,0.315-0.46,0.696-0.46,1.145c0,0.287,0.07,0.557,0.208,0.809
		c0.143,0.249,0.331,0.439,0.568,0.574c0.237,0.138,0.498,0.205,0.782,0.205s0.546-0.067,0.784-0.205
		c0.238-0.135,0.426-0.325,0.566-0.574c0.139-0.252,0.209-0.521,0.209-0.809c0-0.448-0.153-0.829-0.461-1.145
		C63.181,26.26,62.814,26.102,62.39,26.102"/>
	<path fill="#5B9CCC" d="M67.676,24.061c0.116,0,0.219,0.04,0.298,0.125c0.085,0.085,0.126,0.183,0.126,0.302
		c0,0.111-0.041,0.212-0.126,0.296c-0.082,0.083-0.182,0.126-0.298,0.126c-0.113,0-0.212-0.043-0.295-0.126
		c-0.082-0.085-0.125-0.185-0.125-0.296c0-0.119,0.041-0.22,0.125-0.302C67.464,24.104,67.563,24.061,67.676,24.061 M67.42,25.704
		h0.514v3.987H67.42V25.704z"/>
	<polygon fill="#5B9CCC" points="69.447,24.221 69.963,24.221 69.963,25.704 70.777,25.704 70.777,26.149 69.963,26.149 
		69.963,29.692 69.447,29.692 69.447,26.149 68.748,26.149 68.748,25.704 69.447,25.704 	"/>
	<path fill="#5B9CCC" d="M72.11,28.886c0.123,0,0.229,0.043,0.319,0.131c0.088,0.088,0.131,0.196,0.131,0.322
		s-0.043,0.232-0.131,0.322c-0.091,0.089-0.196,0.135-0.319,0.135c-0.124,0-0.231-0.046-0.319-0.135
		c-0.09-0.09-0.132-0.196-0.132-0.322s0.042-0.234,0.132-0.322C71.879,28.929,71.986,28.886,72.11,28.886"/>
	<rect x="94.766" y="-2.235" fill="#5B9CCC" width="2.689" height="21.148"/>
	<polygon fill="#5B9CCC" points="112.59,-2.234 112.59,0.273 107.18,0.273 107.18,18.913 104.671,18.913 104.671,0.273 
		99.295,0.273 99.295,-2.234 	"/>
	<path fill="#B73A22" d="M125,7.613c0,0.796-0.645,1.44-1.438,1.44c-0.797,0-1.441-0.646-1.441-1.44c0-0.795,0.645-1.44,1.441-1.44
		C124.355,6.173,125,6.817,125,7.613"/>
	<path fill="#CC6602" d="M124.476,3.372c0,0.796-0.645,1.441-1.438,1.441s-1.438-0.646-1.438-1.441c0-0.795,0.645-1.438,1.438-1.438
		C123.834,1.934,124.476,2.577,124.476,3.372"/>
	<path fill="#006BAB" d="M124.739,11.973c0,0.795-0.645,1.441-1.44,1.441c-0.795,0-1.439-0.647-1.439-1.441
		c0-0.793,0.645-1.438,1.439-1.438C124.095,10.534,124.739,11.18,124.739,11.973"/>
	<path fill="#B73A22" d="M46.46-3.01c0,0.794-0.645,1.44-1.439,1.44c-0.796,0-1.44-0.646-1.44-1.44c0-0.795,0.645-1.44,1.44-1.44
		C45.815-4.45,46.46-3.806,46.46-3.01"/>
	<path fill="#006BAB" d="M83.17,9.792h-3.463c0,0.048,0,0.497,0,0.546c0.085,11.657,10.192,21.073,22.617,21.073
		c9.712,0,17.991-5.754,21.186-13.831c0.363-0.94-0.095-2.045-1.035-2.407c-0.94-0.361-1.906,0.195-2.271,1.137
		c-2.73,6.805-9.732,11.709-17.845,11.709C91.861,28.018,83.17,19.786,83.17,9.792"/>
</g>
</svg>
