<?xml version="1.0" encoding="utf-8"?>
<!-- Generator: Adobe Illustrator 16.0.0, SVG Export Plug-In . SVG Version: 6.00 Build 0)  -->
<!DOCTYPE svg PUBLIC "-//W3C//DTD SVG 1.1//EN" "http://www.w3.org/Graphics/SVG/1.1/DTD/svg11.dtd">
<svg version="1.1" id="Capa_1" xmlns="http://www.w3.org/2000/svg" xmlns:xlink="http://www.w3.org/1999/xlink" x="0px" y="0px"
	 width="150px" height="41.367px" viewBox="-25 -6.895 150 41.367" enable-background="new -25 -6.895 150 41.367"
	 xml:space="preserve">
<g>
	<g>
		<path fill="#211915" d="M35.691,9.701v-0.05c0-4.901,3.583-9.007,8.558-9.007c3.284,0,5.004,1.218,6.618,2.761l-0.372,0.374
			c-1.393-1.343-3.16-2.637-6.271-2.637c-4.627,0-7.985,3.932-7.985,8.485v0.052c0,4.601,3.406,8.483,7.985,8.483
			c2.837,0,4.953-1.345,6.347-2.836l0.397,0.369c-1.52,1.594-3.708,2.962-6.77,2.962C39.301,18.658,35.691,14.626,35.691,9.701z"/>
		<path fill="#211915" d="M53.278,0.941h12.164v0.5H53.823v7.91h10.55v0.501h-10.55v8.009h11.745v0.498h-12.29V0.941z"/>
		<path fill="#211915" d="M67.23,15.822l0.4-0.398c1.766,1.717,4.005,2.687,6.542,2.687c3.261,0,5.35-1.767,5.35-4.104v-0.05
			c0-2.139-1.295-3.284-5.698-4.183c-4.305-0.871-5.947-2.139-5.947-4.577V5.145c0-2.438,2.388-4.453,5.672-4.453
			c2.289,0,4.33,0.772,5.922,1.99l-0.347,0.45c-1.544-1.17-3.483-1.94-5.625-1.94c-3.059,0-5.074,1.888-5.074,3.932v0.05
			c0,2.115,1.342,3.232,5.622,4.104c4.529,0.921,6.021,2.289,6.021,4.655v0.05c0,2.586-2.262,4.625-5.944,4.625
			C71.46,18.608,69.098,17.588,67.23,15.822z"/>
		<path fill="#211915" d="M89.545,0.817h0.472l8.386,17.542h-0.599l-2.484-5.225H84.221l-2.489,5.225h-0.573L89.545,0.817z
			 M95.067,12.636l-5.3-11.095l-5.3,11.095H95.067z"/>
		<path fill="#211915" d="M100.662,0.941h7.114c2.263,0,3.933,0.573,5.003,1.644c0.795,0.797,1.243,1.892,1.243,3.234v0.049
			c0,2.936-2.341,4.679-5.698,4.878l5.798,7.613h-0.671l-5.774-7.589h-6.469v7.589h-0.546V0.941L100.662,0.941z M107.504,10.272
			c4.031,0,5.969-1.917,5.969-4.378V5.842c0-2.763-2.137-4.403-5.746-4.403h-6.519v8.833H107.504z"/>
	</g>
	<g>
		<path fill="#211915" d="M-24.748,26.307h2.818c1.963,0,3.086,0.905,3.086,2.408v0.023c0,1.559-1.192,2.44-3.13,2.44h-2.525v3.155
			h-0.249V26.307z M-21.975,30.954c1.777,0,2.878-0.782,2.878-2.203v-0.023c0-1.365-1.055-2.191-2.854-2.191h-2.549v4.415h2.524
			V30.954z"/>
		<path fill="#211915" d="M-15.701,26.307h3.283c1.042,0,1.809,0.264,2.304,0.759c0.366,0.363,0.574,0.867,0.574,1.488v0.023
			c0,1.354-1.078,2.156-2.626,2.25l2.67,3.507h-0.308l-2.662-3.498h-2.981v3.498h-0.252v-8.027H-15.701z M-12.549,30.608
			c1.86,0,2.754-0.885,2.754-2.019v-0.023c0-1.274-0.986-2.03-2.648-2.03h-3.006v4.069h2.9V30.608z"/>
		<path fill="#211915" d="M-6.549,30.333v-0.026c0-2.188,1.562-4.14,3.99-4.14c2.432,0,3.993,1.951,3.993,4.14v0.026
			c0,2.188-1.562,4.14-3.993,4.14C-4.987,34.472-6.549,32.521-6.549,30.333z M1.183,30.344v-0.023c0-2.054-1.515-3.923-3.75-3.923
			c-2.247,0-3.727,1.834-3.727,3.899v0.023c0,2.051,1.513,3.92,3.75,3.92C-0.297,34.241,1.183,32.407,1.183,30.344z"/>
		<path fill="#211915" d="M4.842,26.307h2.58c2.524,0,4.267,1.743,4.267,4.002v0.023c0,2.259-1.743,4.002-4.267,4.002h-2.58V26.307z
			 M7.435,34.106c2.361,0,4.002-1.664,4.002-3.762v-0.023c0-2.109-1.652-3.785-4.025-3.785H5.094v7.57H7.435z"/>
		<path fill="#211915" d="M14.968,30.778v-4.471h0.253v4.471c0,2.306,1.228,3.451,3.004,3.451c1.802,0,2.982-1.146,2.982-3.439
			v-4.482h0.252v4.471c0,2.455-1.308,3.683-3.246,3.683C16.3,34.46,14.968,33.245,14.968,30.778z"/>
		<path fill="#211915" d="M24.743,30.344v-0.023c0-2.262,1.649-4.154,3.943-4.154c1.515,0,2.306,0.563,3.05,1.274l-0.17,0.17
			c-0.642-0.618-1.458-1.216-2.892-1.216c-2.133,0-3.68,1.813-3.68,3.911v0.023c0,2.124,1.57,3.908,3.68,3.908
			c1.308,0,2.282-0.618,2.925-1.304l0.183,0.17c-0.7,0.735-1.708,1.365-3.12,1.365C26.404,34.472,24.743,32.615,24.743,30.344z"/>
		<path fill="#211915" d="M34.216,30.344v-0.023c0-2.262,1.651-4.154,3.945-4.154c1.515,0,2.306,0.563,3.051,1.274l-0.173,0.17
			c-0.642-0.618-1.456-1.216-2.89-1.216c-2.133,0-3.681,1.813-3.681,3.911v0.023c0,2.124,1.572,3.908,3.681,3.908
			c1.307,0,2.282-0.618,2.924-1.304l0.185,0.17c-0.7,0.735-1.711,1.365-3.12,1.365C35.879,34.472,34.216,32.615,34.216,30.344z"/>
		<path fill="#211915" d="M44.354,26.307h0.252v8.027h-0.252V26.307z"/>
		<path fill="#211915" d="M48.094,30.333v-0.026c0-2.188,1.56-4.14,3.99-4.14c2.431,0,3.989,1.951,3.989,4.14v0.026
			c0,2.188-1.559,4.14-3.989,4.14C49.654,34.472,48.094,32.521,48.094,30.333z M55.824,30.344v-0.023
			c0-2.054-1.515-3.923-3.75-3.923c-2.25,0-3.728,1.834-3.728,3.899v0.023c0,2.051,1.515,3.92,3.749,3.92
			C54.345,34.241,55.824,32.407,55.824,30.344z"/>
		<path fill="#211915" d="M59.483,26.307h0.22l6.1,7.614v-7.614h0.242v8.027h-0.219l-6.103-7.614v7.614h-0.24V26.307z"/>
		<path fill="#211915" d="M69.808,26.307h5.607v0.229H70.06v3.647h4.862v0.229H70.06v3.694h5.413v0.229h-5.665V26.307z"/>
		<path fill="#211915" d="M78.189,33.166l0.185-0.185c0.814,0.791,1.845,1.239,3.015,1.239c1.503,0,2.469-0.814,2.469-1.893v-0.023
			c0-0.987-0.597-1.515-2.63-1.928c-1.98-0.401-2.736-0.984-2.736-2.109v-0.023c0-1.125,1.099-2.051,2.612-2.051
			c1.056,0,1.996,0.354,2.731,0.917l-0.161,0.208c-0.713-0.539-1.605-0.896-2.593-0.896c-1.411,0-2.341,0.87-2.341,1.811v0.023
			c0,0.976,0.617,1.491,2.593,1.893c2.089,0.425,2.776,1.058,2.776,2.147v0.023c0,1.192-1.045,2.133-2.741,2.133
			C80.141,34.449,79.051,33.98,78.189,33.166z"/>
		<path fill="#211915" d="M91.52,33.166l0.182-0.185c0.814,0.791,1.846,1.239,3.016,1.239c1.502,0,2.469-0.814,2.469-1.893v-0.023
			c0-0.987-0.598-1.515-2.628-1.928c-1.983-0.401-2.742-0.984-2.742-2.109v-0.023c0-1.125,1.103-2.051,2.616-2.051
			c1.058,0,1.995,0.354,2.73,0.917l-0.161,0.208c-0.712-0.539-1.605-0.896-2.593-0.896c-1.409,0-2.341,0.87-2.341,1.811v0.023
			c0,0.976,0.618,1.491,2.595,1.893c2.087,0.425,2.775,1.058,2.775,2.147v0.023c0,1.192-1.043,2.133-2.739,2.133
			C93.468,34.449,92.378,33.98,91.52,33.166z"/>
		<path fill="#211915" d="M100.314,33.737h0.413v0.598h-0.413V33.737z"/>
		<path fill="#211915" d="M104.032,26.307h3.278c1.043,0,1.813,0.264,2.306,0.759c0.368,0.363,0.574,0.867,0.574,1.488v0.023
			c0,1.354-1.078,2.156-2.625,2.25l2.672,3.507h-0.311l-2.659-3.498h-2.982v3.498h-0.252L104.032,26.307L104.032,26.307z
			 M107.188,30.608c1.854,0,2.751-0.885,2.751-2.019v-0.023c0-1.274-0.987-2.03-2.651-2.03h-3.003v4.069h2.903V30.608z"/>
		<path fill="#211915" d="M113.252,33.737h0.413v0.598h-0.413V33.737z"/>
		<path fill="#211915" d="M116.97,26.307h0.252v7.799h4.933v0.229h-5.185V26.307z"/>
		<path fill="#211915" d="M124.586,33.737H125v0.598h-0.414V33.737z"/>
	</g>
	<path fill="#388CB4" d="M20.908,21.669l-0.776-2.452l-0.56-0.671l0.45-0.448h1.343v-1.011h-1.008v-1.345l2.13-0.896v-0.559h1.008
		l0.448-0.563l-0.111-0.563l1.233-2.016h2.13l1.119,2.13h1.343V4.646h-1.232l-1.343,2.019h-1.794l-1.793-3.811h-0.671l-0.173-0.521
		c1.003-0.978,1.632-2.34,1.632-3.849c0-2.972-2.408-5.379-5.38-5.379c-1.463,0-2.782,0.588-3.754,1.534
		c-0.97-0.946-2.29-1.534-3.756-1.534c-2.968,0-5.376,2.407-5.376,5.379c0,1.503,0.621,2.858,1.617,3.837L6.576,4.646
		c0,0-1.232-0.334-1.345-1.119C5.12,2.744,4.449,1.059,4.001,0.835c0,0-0.563-1.567-2.353-1.344c-1.794,0.224-5.83-0.225-7.509,5.38
		c0,0-0.114,0.671-1.794,1.119s-2.801,0.783-2.801,0.783V7.45l4.368-1.01c0,0-0.224,1.122-1.008,1.455
		c-0.784,0.337-6.274,1.009-11.542,7.174c0,0-2.691,2.912-3.586,3.697l-2.493,3.018"/>
	<line fill="none" stroke="#388CB4" stroke-width="0.7156" x1="-25" y1="21.828" x2="124.896" y2="21.828"/>
</g>
</svg>
