<?xml version="1.0" encoding="utf-8"?>
<!-- Generator: Adobe Illustrator 16.0.0, SVG Export Plug-In . SVG Version: 6.00 Build 0)  -->
<!DOCTYPE svg PUBLIC "-//W3C//DTD SVG 1.1//EN" "http://www.w3.org/Graphics/SVG/1.1/DTD/svg11.dtd">
<svg version="1.1" id="Capa_1" xmlns="http://www.w3.org/2000/svg" xmlns:xlink="http://www.w3.org/1999/xlink" x="0px" y="0px"
	 width="200px" height="22.363px" viewBox="-50 -5.591 200 22.363" enable-background="new -50 -5.591 200 22.363"
	 xml:space="preserve">
<g>
	<g>
		<g>
			
				<linearGradient id="SVGID_1_" gradientUnits="userSpaceOnUse" x1="-19.1011" y1="-14.5276" x2="-19.1011" y2="3.416" gradientTransform="matrix(1 0 0 -1 24.9448 2.5435)">
				<stop  offset="0" style="stop-color:#0B326B"/>
				<stop  offset="1" style="stop-color:#BCBFD4"/>
			</linearGradient>
			<path fill="url(#SVGID_1_)" d="M-4.712-4.995H6.586L-0.77,13.394c-0.494,1.234-1.038,2.072-1.624,2.516
				c-0.104,0.078-0.213,0.146-0.328,0.211h-1.992V-4.995H-4.712z M10.778-4.995h5.624V9.329L10.778-4.995L10.778-4.995z
				 M14.654,16.12c0.206-0.164,0.306-0.383,0.306-0.66c0-0.205-0.036-0.416-0.12-0.637l-2.172-5.553H2.344l-1.22,3.188
				c-0.32,0.844-0.484,1.521-0.484,2.014c0,0.574,0.272,1.07,0.811,1.486c0.078,0.059,0.16,0.115,0.248,0.164h12.956V16.12z
				 M7.592-3.757L2.904,7.896h9.25L7.592-3.757z"/>
			
				<linearGradient id="SVGID_2_" gradientUnits="userSpaceOnUse" x1="-64.5703" y1="-16.5862" x2="-64.5703" y2="4.6392" gradientTransform="matrix(1 0 0 -1 24.9448 2.5435)">
				<stop  offset="0" style="stop-color:#0B326B"/>
				<stop  offset="1" style="stop-color:#BCBFD4"/>
			</linearGradient>
			<path fill="url(#SVGID_2_)" d="M-29.25,16.144h-8.692l0.024-0.02c0.778-0.541,1.466-1.191,2.063-1.947
				c0.597-0.748,1.129-1.604,1.597-2.559l-1.4-0.842c-0.978,1.664-2.06,2.912-3.248,3.74c-1.182,0.822-2.538,1.232-4.052,1.232
				c-1.044,0-1.994-0.189-2.848-0.576c-0.854-0.385-1.597-0.988-2.23-1.816c-0.582-0.787-1.054-1.832-1.42-3.125
				C-49.816,8.933-50,7.366-50,5.534c0-3.242,0.534-5.754,1.592-7.553c1.061-1.793,2.614-2.688,4.652-2.688
				c1.636,0,3.023,0.602,4.164,1.805c1.138,1.203,2.114,3.086,2.924,5.656h1.432l-0.132-7.75h6.118V16.144z"/>
			
				<linearGradient id="SVGID_3_" gradientUnits="userSpaceOnUse" x1="-41.7451" y1="-9.491" x2="-41.7451" y2="6.4032" gradientTransform="matrix(1 0 0 -1 24.9448 2.5435)">
				<stop  offset="0" style="stop-color:#638A37"/>
				<stop  offset="1" style="stop-color:#C9D7B6"/>
			</linearGradient>
			<path fill="url(#SVGID_3_)" d="M-27.06-4.995h4.6c0.18,0.234,0.334,0.498,0.462,0.789c0.262,0.59,0.396,1.25,0.402,1.979
				c-0.006,1.012-0.25,1.904-0.729,2.682c-0.483,0.781-1.168,1.49-2.06,2.145c-0.754-0.572-1.389-1.117-1.898-1.635
				c-0.438-0.447-0.777-0.9-1.027-1.367v-4.592H-27.06L-27.06-4.995z M-19.56-4.995c0.13,0.203,0.248,0.418,0.352,0.645
				c0.29,0.633,0.434,1.326,0.44,2.086C-18.774-1.751-18.85-1.286-19-0.872c-0.15,0.416-0.352,0.787-0.59,1.107
				c-0.238,0.318-0.49,0.59-0.76,0.816c-0.345,0.295-0.759,0.635-1.244,1.004c-0.479,0.377-1.08,0.805-1.811,1.295
				c0.429,0.357,0.98,0.834,1.658,1.432c0.68,0.596,1.426,1.27,2.238,2.023c0.812,0.756,1.622,1.553,2.438,2.389
				c0.448-0.686,0.849-1.375,1.2-2.068c0.358-0.689,0.71-1.449,1.063-2.268c0.258-0.584,0.369-1.041,0.334-1.375
				c-0.032-0.334-0.265-0.59-0.679-0.77c-0.416-0.174-1.067-0.313-1.954-0.42V1.243h8.633v1.053
				c-0.654,0.076-1.194,0.176-1.62,0.309c-0.429,0.133-0.792,0.309-1.088,0.527c-0.294,0.213-0.572,0.484-0.83,0.811
				c-0.25,0.328-0.534,0.723-0.834,1.182c-0.347,0.49-0.692,0.994-1.024,1.508c-0.34,0.523-0.686,1.068-1.056,1.646
				c-0.364,0.578-0.76,1.193-1.2,1.859c0.32,0.314,0.704,0.705,1.136,1.172c0.44,0.463,0.898,0.971,1.382,1.52
				c0.49,0.553,0.96,1.119,1.433,1.697c0.414,0.516,0.798,1.014,1.144,1.5h4.742V-4.995H-19.56L-19.56-4.995z M-15.236,16.025h-5.84
				c0.096-0.076,0.194-0.156,0.292-0.236c0.872-0.729,1.758-1.697,2.658-2.896c0.314,0.326,0.64,0.668,0.974,1.025
				s0.654,0.707,0.96,1.047c0.307,0.34,0.584,0.641,0.818,0.904L-15.236,16.025L-15.236,16.025z M-27.31,14.804V4.911
				c0.151-0.119,0.31-0.236,0.474-0.355c1.138,0.932,2.18,1.811,3.116,2.639c0.936,0.836,1.792,1.643,2.569,2.414
				c0.772,0.768,1.496,1.521,2.156,2.262c-0.42,0.592-0.936,1.145-1.552,1.658c-0.624,0.521-1.309,0.943-2.068,1.27
				c-0.76,0.328-1.563,0.49-2.414,0.504c-0.628,0-1.25-0.107-1.865-0.326C-27.034,14.925-27.174,14.866-27.31,14.804z"/>
			
				<line fill="none" stroke="#0B326B" stroke-width="1.292" stroke-miterlimit="22.9256" x1="21.026" y1="10.177" x2="149.969" y2="10.177"/>
			<path fill="#0B326B" d="M28.47,8.126c0.276,0,0.559-0.008,0.847-0.021c0.288-0.016,0.569-0.039,0.846-0.072
				c0.278-0.031,0.534-0.074,0.771-0.123c0.236-0.049,0.44-0.109,0.616-0.176c0.096-0.037,0.17-0.076,0.225-0.117
				c0.058-0.039,0.102-0.088,0.132-0.148c0.032-0.057,0.062-0.133,0.09-0.229c0.034-0.121,0.068-0.268,0.104-0.441
				c0.034-0.174,0.068-0.359,0.101-0.551c0.032-0.195,0.062-0.383,0.088-0.563s0.044-0.334,0.06-0.463
				c0.015-0.127,0.024-0.215,0.024-0.26c0-0.07-0.008-0.131-0.032-0.18c-0.021-0.047-0.062-0.074-0.122-0.078
				c-0.065-0.002-0.113,0.021-0.144,0.068c-0.028,0.049-0.057,0.141-0.078,0.273c-0.024,0.105-0.064,0.225-0.118,0.357
				s-0.12,0.268-0.2,0.406c-0.08,0.133-0.168,0.256-0.266,0.367c-0.227,0.26-0.484,0.459-0.776,0.6
				c-0.292,0.139-0.632,0.234-1.016,0.285s-0.834,0.076-1.336,0.074c-0.384,0-0.784-0.057-1.194-0.168
				c-0.412-0.111-0.817-0.281-1.22-0.504s-0.782-0.506-1.136-0.842c-0.36-0.34-0.675-0.734-0.95-1.186
				c-0.274-0.449-0.49-0.957-0.648-1.521C22.98,2.351,22.9,1.73,22.896,1.05c-0.003-0.555,0.039-1.1,0.13-1.629
				c0.092-0.535,0.252-1.037,0.479-1.512c0.23-0.473,0.55-0.904,0.964-1.291c0.248-0.227,0.528-0.42,0.838-0.578
				c0.309-0.162,0.658-0.275,1.051-0.359c0.39-0.084,0.834-0.121,1.327-0.121c0.528,0.002,1.021,0.047,1.475,0.141
				c0.454,0.09,0.854,0.217,1.196,0.377c0.342,0.16,0.609,0.34,0.802,0.541c0.214,0.227,0.376,0.48,0.487,0.756
				c0.112,0.275,0.171,0.547,0.179,0.818c0,0.121,0.012,0.215,0.034,0.275c0.025,0.066,0.071,0.102,0.138,0.102
				c0.074,0,0.124-0.037,0.152-0.102c0.029-0.066,0.046-0.166,0.052-0.291c0.006-0.088,0.014-0.207,0.016-0.354
				c0.002-0.15,0.006-0.313,0.008-0.488s0.004-0.354,0.007-0.529c0.004-0.176,0.01-0.336,0.018-0.479
				c0.01-0.199,0.026-0.361,0.038-0.48c0.014-0.121,0.025-0.219,0.034-0.291c0.008-0.07,0.014-0.127,0.014-0.172
				c0-0.053-0.018-0.096-0.056-0.133c-0.04-0.041-0.104-0.064-0.2-0.072c-0.254-0.027-0.522-0.076-0.804-0.135
				c-0.282-0.057-0.584-0.111-0.908-0.158c-0.258-0.033-0.51-0.064-0.756-0.09c-0.248-0.025-0.506-0.045-0.784-0.059
				c-0.276-0.012-0.59-0.021-0.94-0.021c-0.846,0-1.6,0.074-2.26,0.221c-0.662,0.145-1.248,0.35-1.762,0.623
				c-0.517,0.271-0.975,0.594-1.382,0.971c-0.408,0.379-0.746,0.783-1.007,1.205c-0.26,0.422-0.464,0.846-0.609,1.268
				c-0.145,0.422-0.246,0.824-0.302,1.203c-0.059,0.379-0.087,0.719-0.084,1.012c-0.003,0.416,0.031,0.844,0.096,1.281
				c0.065,0.439,0.176,0.875,0.336,1.314c0.156,0.436,0.374,0.861,0.649,1.277c0.274,0.414,0.622,0.805,1.038,1.174
				c0.519,0.447,1.084,0.811,1.692,1.084c0.608,0.271,1.26,0.473,1.958,0.598C26.95,8.07,27.69,8.13,28.47,8.126L28.47,8.126z
				 M39.356,3.757h-3.381c-0.04,0-0.065,0.008-0.086,0.023c-0.02,0.02-0.035,0.051-0.052,0.096L35.02,6.044
				c-0.075,0.193-0.132,0.373-0.17,0.537s-0.058,0.295-0.058,0.387c-0.004,0.141,0.04,0.252,0.126,0.338
				c0.088,0.088,0.25,0.131,0.48,0.133h0.228c0.088,0,0.148,0.008,0.182,0.027c0.034,0.02,0.049,0.049,0.047,0.096
				c0,0.057-0.024,0.098-0.066,0.121c-0.046,0.02-0.108,0.029-0.192,0.029c-0.164,0-0.338-0.004-0.527-0.012
				c-0.187-0.008-0.374-0.012-0.561-0.02c-0.188-0.006-0.359-0.012-0.518-0.012c-0.042,0-0.124,0.002-0.24,0.008
				c-0.114,0.004-0.256,0.01-0.422,0.014c-0.164,0.004-0.342,0.01-0.538,0.014c-0.194,0.004-0.388,0.008-0.588,0.008
				c-0.098,0-0.17-0.01-0.216-0.029c-0.048-0.023-0.072-0.064-0.072-0.121c0-0.045,0.014-0.076,0.044-0.096s0.076-0.027,0.136-0.027
				c0.07,0,0.152-0.002,0.24-0.01c0.088-0.004,0.166-0.012,0.23-0.02c0.229-0.031,0.422-0.107,0.575-0.227
				c0.154-0.117,0.29-0.275,0.4-0.469c0.11-0.191,0.214-0.416,0.314-0.67l3.804-9.518c0.088-0.215,0.162-0.373,0.224-0.467
				c0.061-0.098,0.126-0.143,0.2-0.139c0.066-0.002,0.126,0.035,0.184,0.111c0.057,0.076,0.122,0.203,0.196,0.375
				c0.046,0.105,0.122,0.287,0.227,0.543c0.104,0.256,0.229,0.568,0.376,0.938c0.149,0.373,0.31,0.779,0.489,1.227
				c0.179,0.449,0.366,0.912,0.561,1.4c0.193,0.488,0.388,0.979,0.584,1.471c0.197,0.492,0.39,0.965,0.576,1.43
				c0.184,0.459,0.357,0.885,0.52,1.279s0.302,0.736,0.424,1.025c0.145,0.336,0.28,0.611,0.406,0.82
				c0.126,0.211,0.244,0.371,0.355,0.486c0.11,0.115,0.215,0.199,0.309,0.248c0.094,0.051,0.182,0.086,0.262,0.105
				c0.114,0.023,0.229,0.039,0.334,0.049c0.11,0.008,0.21,0.012,0.302,0.012c0.063-0.002,0.108,0.004,0.145,0.02
				s0.052,0.051,0.052,0.102c0.002,0.039-0.018,0.068-0.056,0.094c-0.04,0.021-0.112,0.037-0.212,0.043
				c-0.103,0.008-0.246,0.012-0.431,0.012c-0.184,0-0.424,0-0.714-0.002c-0.292,0-0.624-0.002-0.989-0.006
				c-0.366-0.002-0.753-0.01-1.16-0.02c-0.141-0.004-0.248-0.014-0.328-0.027c-0.084-0.014-0.124-0.045-0.126-0.094
				c0-0.045,0.014-0.076,0.05-0.098c0.034-0.02,0.086-0.033,0.164-0.039c0.058-0.016,0.102-0.057,0.136-0.119
				c0.036-0.063,0.036-0.137,0-0.23l-1.212-3.213c-0.014-0.037-0.036-0.066-0.058-0.082C39.422,3.765,39.394,3.757,39.356,3.757
				L39.356,3.757z M36.278,2.997h2.79c0.038,0,0.06-0.01,0.073-0.029c0.011-0.018,0.011-0.039,0.002-0.061L37.78-0.837
				c-0.008-0.035-0.017-0.063-0.026-0.09c-0.014-0.029-0.028-0.043-0.05-0.045c-0.024,0.002-0.042,0.016-0.056,0.045
				c-0.015,0.027-0.028,0.057-0.036,0.09l-1.395,3.729C36.21,2.923,36.21,2.947,36.22,2.966C36.228,2.99,36.25,2.997,36.278,2.997
				L36.278,2.997z M46.524,7.923c0.268,0,0.54-0.018,0.813-0.053c0.272-0.037,0.544-0.1,0.813-0.191
				c0.266-0.09,0.529-0.217,0.781-0.377c0.362-0.238,0.646-0.508,0.856-0.805c0.208-0.297,0.355-0.602,0.444-0.914
				c0.084-0.316,0.128-0.623,0.126-0.918c0.002-0.359-0.044-0.697-0.133-1.016c-0.088-0.322-0.228-0.633-0.424-0.939
				c-0.193-0.305-0.45-0.613-0.768-0.928C48.716,1.47,48.328,1.146,47.872,0.8l-0.424-0.318c-0.416-0.316-0.742-0.596-0.975-0.836
				c-0.235-0.242-0.399-0.471-0.496-0.684c-0.094-0.213-0.14-0.434-0.138-0.662c0.002-0.305,0.074-0.574,0.218-0.809
				c0.145-0.234,0.351-0.416,0.622-0.551c0.267-0.131,0.588-0.199,0.964-0.201c0.326,0.002,0.601,0.045,0.816,0.127
				s0.39,0.18,0.526,0.295c0.134,0.111,0.237,0.219,0.312,0.32c0.106,0.133,0.187,0.268,0.244,0.402
				c0.054,0.137,0.096,0.26,0.12,0.365c0.02,0.105,0.034,0.184,0.03,0.232c0,0.09,0.014,0.156,0.038,0.203
				c0.023,0.047,0.062,0.068,0.115,0.068c0.061,0.002,0.104-0.033,0.128-0.102c0.026-0.07,0.038-0.189,0.038-0.354
				c0-0.391,0.006-0.709,0.017-0.955c0.01-0.242,0.02-0.432,0.029-0.568c0.011-0.133,0.017-0.232,0.017-0.295
				c0-0.053-0.019-0.094-0.055-0.119c-0.035-0.027-0.09-0.047-0.157-0.063c-0.194-0.057-0.458-0.115-0.784-0.17
				c-0.33-0.055-0.74-0.084-1.23-0.088c-0.527,0.002-1.008,0.074-1.434,0.213c-0.43,0.141-0.798,0.338-1.106,0.594
				C45-2.897,44.766-2.594,44.598-2.247c-0.164,0.348-0.248,0.732-0.25,1.152c-0.002,0.408,0.068,0.803,0.212,1.188
				c0.145,0.385,0.379,0.773,0.708,1.166c0.33,0.395,0.771,0.807,1.324,1.238l0.698,0.545c0.314,0.244,0.566,0.475,0.762,0.689
				c0.198,0.213,0.347,0.42,0.452,0.613c0.104,0.195,0.176,0.385,0.214,0.57c0.04,0.184,0.059,0.367,0.057,0.551
				c0,0.207-0.04,0.408-0.126,0.609c-0.084,0.203-0.21,0.389-0.376,0.555c-0.171,0.168-0.381,0.305-0.635,0.406
				s-0.552,0.154-0.894,0.158c-0.316,0.002-0.62-0.047-0.906-0.148c-0.288-0.1-0.542-0.262-0.762-0.49
				c-0.22-0.223-0.386-0.521-0.5-0.893c-0.038-0.133-0.072-0.268-0.096-0.41c-0.024-0.141-0.04-0.26-0.04-0.365
				c0.002-0.063-0.005-0.121-0.024-0.174c-0.018-0.053-0.06-0.082-0.126-0.084c-0.06,0.002-0.102,0.041-0.132,0.113
				c-0.028,0.074-0.042,0.166-0.05,0.281c-0.005,0.064-0.011,0.164-0.019,0.295c-0.008,0.133-0.016,0.293-0.025,0.475
				c-0.011,0.186-0.019,0.379-0.022,0.588c-0.008,0.209-0.01,0.416-0.01,0.627c0,0.109,0.004,0.195,0.02,0.258
				c0.015,0.064,0.042,0.113,0.084,0.152c0.042,0.037,0.103,0.074,0.183,0.105c0.321,0.143,0.661,0.246,1.02,0.305
				C45.69,7.898,46.086,7.927,46.524,7.923L46.524,7.923z M55.297,3.318c0,0.465,0,0.902,0,1.314
				c-0.004,0.41-0.012,0.777-0.02,1.104c-0.012,0.326-0.031,0.596-0.055,0.809c-0.02,0.223-0.059,0.41-0.125,0.559
				c-0.063,0.148-0.166,0.242-0.316,0.275c-0.066,0.016-0.145,0.031-0.234,0.043c-0.094,0.01-0.197,0.018-0.309,0.018
				c-0.088,0-0.152,0.01-0.191,0.031c-0.035,0.021-0.051,0.051-0.051,0.09c0,0.053,0.027,0.09,0.078,0.115
				c0.051,0.021,0.125,0.035,0.223,0.035c0.156,0,0.324-0.002,0.508-0.008c0.182-0.006,0.365-0.01,0.543-0.014
				c0.184-0.004,0.348-0.01,0.5-0.014c0.148-0.006,0.273-0.008,0.359-0.008c0.145,0,0.34,0.004,0.586,0.012
				c0.242,0.008,0.52,0.012,0.828,0.02c0.307,0.008,0.629,0.012,0.965,0.012c0.086,0,0.154-0.012,0.207-0.035
				c0.055-0.025,0.078-0.063,0.082-0.115c0-0.039-0.02-0.068-0.059-0.09s-0.102-0.031-0.184-0.031c-0.074,0-0.16-0.002-0.254-0.008
				s-0.184-0.014-0.273-0.021c-0.092-0.01-0.174-0.021-0.246-0.031c-0.148-0.02-0.266-0.066-0.348-0.145
				c-0.08-0.074-0.133-0.17-0.17-0.289c-0.037-0.113-0.061-0.246-0.074-0.385c-0.025-0.219-0.041-0.492-0.053-0.82
				c-0.008-0.328-0.016-0.699-0.02-1.107c-0.004-0.412-0.004-0.848-0.004-1.314v-6.215l1.91,0.045
				c0.449,0.014,0.799,0.059,1.057,0.145c0.26,0.084,0.443,0.191,0.553,0.314c0.113,0.127,0.172,0.254,0.18,0.391l0.014,0.166
				c0.008,0.111,0.021,0.189,0.041,0.238c0.027,0.045,0.066,0.064,0.127,0.064c0.045,0,0.076-0.023,0.096-0.064
				s0.035-0.102,0.043-0.176c0-0.105,0-0.236,0.004-0.396c0.008-0.162,0.012-0.334,0.018-0.51c0.006-0.182,0.01-0.348,0.016-0.498
				c0.006-0.152,0.008-0.271,0.008-0.355c0.002-0.113-0.006-0.193-0.02-0.246c-0.018-0.049-0.053-0.07-0.104-0.07
				c-0.031,0-0.074,0.008-0.139,0.02c-0.066,0.016-0.156,0.033-0.268,0.057c-0.113,0.014-0.258,0.031-0.43,0.047
				C60.129-3.71,59.922-3.702,59.678-3.7h-6.002c-0.166,0-0.34-0.002-0.518-0.01c-0.178-0.006-0.354-0.016-0.521-0.025
				c-0.168-0.012-0.328-0.025-0.477-0.039c-0.125-0.014-0.227-0.033-0.311-0.063c-0.082-0.029-0.146-0.055-0.201-0.08
				c-0.055-0.027-0.102-0.039-0.139-0.043c-0.045,0-0.082,0.023-0.109,0.072c-0.029,0.045-0.051,0.119-0.074,0.219
				c-0.008,0.027-0.021,0.094-0.045,0.203s-0.047,0.24-0.078,0.391c-0.033,0.152-0.059,0.307-0.09,0.461
				c-0.031,0.156-0.055,0.299-0.074,0.424c-0.02,0.123-0.029,0.209-0.029,0.262c0,0.084,0.006,0.143,0.029,0.184
				c0.02,0.037,0.053,0.059,0.107,0.059c0.045,0,0.08-0.016,0.107-0.045c0.023-0.029,0.043-0.076,0.059-0.137
				c0.016-0.059,0.043-0.135,0.086-0.223c0.039-0.09,0.098-0.193,0.174-0.307c0.072-0.111,0.168-0.193,0.287-0.254
				c0.117-0.061,0.27-0.104,0.461-0.133c0.189-0.027,0.428-0.043,0.719-0.051l2.258-0.061V3.318L55.297,3.318z M63.359,3.318
				c0,0.465,0,0.902,0,1.314c-0.004,0.41-0.012,0.777-0.021,1.104s-0.029,0.596-0.053,0.809c-0.018,0.146-0.043,0.281-0.074,0.4
				c-0.031,0.117-0.07,0.215-0.129,0.289c-0.055,0.076-0.133,0.125-0.234,0.145c-0.07,0.016-0.148,0.031-0.238,0.043
				c-0.094,0.01-0.197,0.018-0.309,0.018c-0.09,0-0.152,0.01-0.191,0.031c-0.035,0.021-0.051,0.051-0.051,0.09
				c0,0.053,0.025,0.09,0.078,0.115c0.047,0.021,0.125,0.035,0.223,0.035c0.154,0,0.324-0.002,0.508-0.008
				c0.18-0.006,0.359-0.01,0.537-0.014c0.18-0.004,0.34-0.01,0.479-0.014c0.145-0.006,0.254-0.008,0.328-0.008
				c0.059,0,0.164,0.002,0.32,0.008c0.152,0.004,0.336,0.01,0.547,0.014s0.436,0.01,0.672,0.014
				c0.234,0.004,0.465,0.008,0.686,0.008c0.1,0,0.174-0.012,0.227-0.035C66.715,7.65,66.74,7.613,66.74,7.56
				c0-0.039-0.018-0.068-0.045-0.09c-0.031-0.021-0.074-0.031-0.137-0.031c-0.061,0-0.135-0.002-0.221-0.008
				C66.25,7.425,66.16,7.417,66.07,7.409c-0.094-0.01-0.176-0.021-0.254-0.031c-0.148-0.02-0.266-0.072-0.348-0.145
				c-0.078-0.074-0.133-0.172-0.168-0.289c-0.039-0.119-0.063-0.252-0.074-0.4c-0.027-0.215-0.045-0.482-0.055-0.809
				c-0.012-0.326-0.018-0.697-0.02-1.107C65.15,4.216,65.15,3.775,65.15,3.302V3.089c0-0.045,0.008-0.076,0.031-0.094
				c0.021-0.018,0.051-0.027,0.088-0.027l1.318,0.031c0.053-0.002,0.107,0.006,0.15,0.018c0.043,0.014,0.084,0.043,0.125,0.088
				c0.049,0.059,0.127,0.162,0.23,0.307c0.105,0.143,0.225,0.316,0.363,0.512c0.139,0.197,0.291,0.408,0.443,0.625
				c0.154,0.221,0.311,0.436,0.463,0.646c0.281,0.391,0.537,0.729,0.77,1.018c0.234,0.293,0.455,0.539,0.668,0.738
				c0.211,0.201,0.426,0.355,0.637,0.473c0.129,0.07,0.266,0.125,0.406,0.168c0.145,0.041,0.311,0.074,0.506,0.09
				c0.197,0.016,0.432,0.027,0.709,0.027H73.5c0.09,0,0.162-0.01,0.211-0.029c0.049-0.023,0.074-0.064,0.074-0.123
				c0-0.037-0.016-0.066-0.043-0.088c-0.031-0.021-0.076-0.031-0.137-0.031c-0.059,0-0.125,0-0.191-0.008
				c-0.072-0.008-0.146-0.02-0.23-0.035c-0.059-0.012-0.137-0.029-0.242-0.055c-0.104-0.033-0.227-0.08-0.375-0.148
				c-0.143-0.07-0.309-0.17-0.49-0.305c-0.182-0.129-0.377-0.307-0.592-0.523c-0.445-0.471-0.934-1.041-1.471-1.709
				c-0.541-0.666-1.143-1.426-1.814-2.277c0.504-0.412,0.904-0.805,1.199-1.182c0.293-0.377,0.5-0.748,0.621-1.111
				c0.125-0.363,0.184-0.73,0.18-1.102c-0.004-0.254-0.035-0.492-0.102-0.713s-0.148-0.42-0.256-0.598
				c-0.104-0.18-0.213-0.334-0.332-0.463c-0.119-0.127-0.232-0.229-0.342-0.301c-0.277-0.186-0.566-0.324-0.875-0.418
				c-0.307-0.094-0.623-0.156-0.949-0.191c-0.324-0.031-0.645-0.045-0.965-0.041c-0.121,0-0.273,0.002-0.459,0.006
				c-0.184,0.002-0.381,0.01-0.592,0.016c-0.207,0.004-0.408,0.01-0.602,0.014C64.535-3.702,64.375-3.7,64.242-3.7
				c-0.08,0-0.199-0.002-0.348-0.008c-0.146-0.004-0.316-0.01-0.508-0.014s-0.391-0.012-0.602-0.016
				c-0.209-0.004-0.418-0.006-0.621-0.006c-0.113-0.002-0.195,0.006-0.252,0.027c-0.053,0.02-0.082,0.057-0.082,0.109
				c0,0.049,0.023,0.088,0.068,0.107c0.043,0.018,0.105,0.027,0.191,0.027c0.113,0,0.219,0.002,0.33,0.01
				c0.107,0.006,0.197,0.021,0.26,0.035c0.164,0.033,0.293,0.086,0.385,0.156c0.09,0.068,0.154,0.162,0.197,0.277
				c0.039,0.113,0.063,0.258,0.07,0.43c0.006,0.094,0.01,0.193,0.016,0.299c0.002,0.105,0.006,0.23,0.012,0.377
				c0,0.146,0,0.332,0,0.549c0.004,0.219,0.004,0.494,0.004,0.816s0,0.713,0,1.172v2.668H63.359z M65.152-2.759
				c0-0.061,0.006-0.107,0.025-0.143c0.021-0.033,0.057-0.057,0.111-0.072c0.074-0.021,0.18-0.037,0.316-0.047
				c0.133-0.012,0.295-0.014,0.484-0.014c0.184-0.002,0.375,0.027,0.584,0.082c0.209,0.057,0.414,0.148,0.619,0.277
				c0.207,0.125,0.387,0.297,0.559,0.51c0.166,0.213,0.303,0.479,0.402,0.791c0.102,0.314,0.152,0.686,0.154,1.115
				c-0.002,0.412-0.045,0.768-0.131,1.068c-0.082,0.297-0.193,0.545-0.328,0.742c-0.135,0.201-0.279,0.352-0.434,0.461
				c-0.09,0.066-0.178,0.117-0.266,0.156c-0.088,0.037-0.199,0.066-0.324,0.08c-0.125,0.016-0.289,0.023-0.488,0.023
				c-0.125,0-0.26-0.004-0.395-0.016c-0.135-0.01-0.27-0.027-0.398-0.051c-0.131-0.021-0.246-0.049-0.355-0.086
				c-0.053-0.02-0.09-0.049-0.111-0.09c-0.02-0.039-0.025-0.1-0.025-0.182V-2.759L65.152-2.759z M78.273,7.923
				c-0.723-0.002-1.379-0.088-1.961-0.254c-0.586-0.164-1.102-0.395-1.553-0.689c-0.455-0.293-0.842-0.635-1.17-1.023
				c-0.326-0.385-0.596-0.799-0.805-1.242S72.42,3.818,72.32,3.353c-0.102-0.465-0.15-0.922-0.15-1.371
				c0-0.436,0.045-0.883,0.148-1.344c0.1-0.457,0.252-0.904,0.459-1.35c0.213-0.441,0.484-0.859,0.816-1.25
				c0.33-0.387,0.727-0.734,1.191-1.033c0.461-0.301,0.996-0.537,1.602-0.707s1.283-0.256,2.041-0.26
				c0.947,0.002,1.795,0.135,2.549,0.398c0.754,0.262,1.398,0.643,1.928,1.137c0.533,0.492,0.939,1.088,1.221,1.785
				c0.281,0.693,0.422,1.479,0.426,2.35c0,0.697-0.098,1.357-0.285,1.979c-0.186,0.625-0.457,1.191-0.813,1.709
				c-0.361,0.518-0.793,0.961-1.303,1.342c-0.514,0.375-1.092,0.666-1.742,0.873C79.756,7.818,79.043,7.921,78.273,7.923
				L78.273,7.923z M78.91,7.165c0.178,0.004,0.391-0.016,0.629-0.057c0.242-0.041,0.492-0.121,0.754-0.238
				c0.266-0.115,0.523-0.285,0.777-0.51c0.248-0.225,0.477-0.514,0.684-0.875c0.203-0.361,0.367-0.805,0.486-1.332
				c0.123-0.533,0.186-1.158,0.188-1.885c-0.002-0.852-0.119-1.613-0.344-2.291c-0.229-0.678-0.541-1.256-0.943-1.732
				c-0.406-0.479-0.877-0.844-1.414-1.096c-0.535-0.252-1.113-0.379-1.74-0.383c-0.354-0.002-0.705,0.039-1.055,0.133
				c-0.355,0.088-0.689,0.238-1.01,0.451C75.605-2.438,75.32-2.151,75.07-1.79c-0.25,0.365-0.449,0.816-0.594,1.361
				c-0.143,0.541-0.215,1.189-0.217,1.941c0,0.635,0.068,1.232,0.205,1.799c0.135,0.564,0.332,1.084,0.594,1.551
				c0.264,0.469,0.582,0.877,0.959,1.221s0.807,0.609,1.291,0.795C77.793,7.068,78.328,7.163,78.91,7.165z"/>
			<path fill="#0B326B" d="M87.129,4.177c-0.004,0.303,0.043,0.625,0.139,0.965c0.1,0.342,0.26,0.678,0.477,1.008
				c0.225,0.332,0.518,0.633,0.881,0.904c0.369,0.273,0.82,0.488,1.359,0.652c0.535,0.162,1.168,0.244,1.895,0.25
				c0.586-0.004,1.098-0.059,1.545-0.172c0.443-0.109,0.828-0.248,1.15-0.416c0.324-0.166,0.596-0.336,0.816-0.51
				c0.223-0.174,0.402-0.328,0.543-0.457c0.289,0.223,0.557,0.416,0.797,0.568c0.238,0.158,0.473,0.283,0.695,0.383
				c0.225,0.096,0.457,0.172,0.707,0.225c0.242,0.053,0.514,0.09,0.813,0.111c0.295,0.02,0.637,0.027,1.023,0.027h1.32
				c0.184,0,0.32-0.014,0.398-0.039c0.074-0.025,0.117-0.063,0.113-0.113c0-0.066-0.02-0.109-0.063-0.129
				c-0.039-0.02-0.102-0.027-0.176-0.025c-0.09,0-0.207-0.018-0.355-0.049c-0.148-0.029-0.305-0.074-0.484-0.127
				c-0.176-0.057-0.352-0.121-0.523-0.193s-0.328-0.146-0.467-0.23c-0.154-0.09-0.342-0.205-0.566-0.348
				c-0.225-0.141-0.488-0.318-0.787-0.537c-0.301-0.217-0.643-0.482-1.023-0.793c0.324-0.387,0.617-0.809,0.867-1.268
				s0.449-0.926,0.592-1.402c0.143-0.479,0.213-0.941,0.217-1.383c-0.004-0.102-0.063-0.178-0.172-0.236
				c-0.107-0.055-0.246-0.088-0.41-0.104c-0.48-0.053-0.891-0.084-1.23-0.102c-0.344-0.014-0.619-0.023-0.824-0.02
				c-0.07-0.004-0.133,0.008-0.188,0.035c-0.053,0.023-0.082,0.068-0.086,0.137c0.004,0.051,0.023,0.084,0.064,0.107
				c0.041,0.021,0.088,0.031,0.141,0.031c0.088,0,0.184,0.006,0.283,0.02c0.098,0.014,0.199,0.041,0.295,0.08
				c0.098,0.039,0.186,0.088,0.26,0.158c0.125,0.113,0.215,0.24,0.26,0.379s0.068,0.275,0.064,0.406
				c-0.002,0.352-0.047,0.699-0.135,1.041s-0.195,0.65-0.318,0.93c-0.127,0.279-0.25,0.498-0.367,0.664
				c-0.068-0.063-0.195-0.176-0.383-0.344c-0.186-0.168-0.402-0.365-0.648-0.594c-0.25-0.23-0.504-0.465-0.762-0.709
				c-0.258-0.242-0.496-0.469-0.711-0.684c-0.211-0.213-0.383-0.389-0.506-0.525c-0.344-0.379-0.686-0.752-1.021-1.121
				C92.305,0.267,92-0.1,91.727-0.468c-0.273-0.363-0.494-0.736-0.656-1.113s-0.248-0.764-0.252-1.166
				c0.004-0.365,0.064-0.67,0.188-0.918c0.119-0.25,0.271-0.453,0.459-0.602c0.188-0.156,0.385-0.264,0.594-0.332
				c0.211-0.068,0.41-0.104,0.592-0.102c0.318,0,0.6,0.039,0.842,0.109c0.244,0.068,0.453,0.164,0.625,0.279
				c0.176,0.113,0.318,0.242,0.434,0.383c0.186,0.223,0.316,0.463,0.391,0.717c0.072,0.25,0.109,0.49,0.105,0.719
				c0,0.125,0.004,0.209,0.021,0.258c0.016,0.045,0.049,0.068,0.1,0.066c0.051,0.002,0.092-0.01,0.125-0.049
				c0.035-0.037,0.061-0.117,0.078-0.242c0.012-0.053,0.023-0.145,0.041-0.273c0.014-0.125,0.033-0.275,0.049-0.443
				c0.016-0.17,0.033-0.348,0.047-0.531c0.016-0.182,0.027-0.357,0.035-0.521c0.012-0.166,0.016-0.305,0.016-0.418
				c0.004-0.068-0.004-0.131-0.012-0.184c-0.008-0.055-0.033-0.104-0.074-0.146c-0.041-0.041-0.109-0.08-0.205-0.113
				c-0.154-0.063-0.34-0.123-0.557-0.176C94.5-5.321,94.26-5.364,94.004-5.397s-0.521-0.059-0.805-0.059
				c-0.594,0.002-1.121,0.068-1.574,0.197c-0.459,0.127-0.852,0.301-1.18,0.521s-0.596,0.465-0.801,0.738
				c-0.211,0.271-0.363,0.553-0.461,0.844c-0.096,0.289-0.141,0.572-0.137,0.846c0,0.254,0.027,0.506,0.074,0.758
				c0.043,0.25,0.129,0.514,0.254,0.789c0.127,0.27,0.305,0.564,0.543,0.883c-0.207,0.1-0.436,0.24-0.684,0.418
				s-0.494,0.396-0.742,0.645c-0.244,0.252-0.469,0.529-0.674,0.842c-0.209,0.311-0.373,0.646-0.496,1.006
				C87.195,3.396,87.129,3.775,87.129,4.177L87.129,4.177z M92.465,6.878c-0.449,0-0.871-0.084-1.262-0.248
				c-0.398-0.162-0.746-0.395-1.047-0.705c-0.303-0.305-0.539-0.672-0.711-1.102s-0.262-0.916-0.264-1.453
				c0.002-0.455,0.063-0.848,0.178-1.188c0.113-0.336,0.258-0.617,0.438-0.852c0.18-0.232,0.371-0.416,0.566-0.561
				c0.074,0.111,0.191,0.26,0.344,0.447c0.156,0.186,0.324,0.387,0.512,0.602c0.189,0.213,0.367,0.42,0.541,0.613
				c0.176,0.193,0.32,0.354,0.436,0.477c0.09,0.096,0.221,0.234,0.395,0.408c0.172,0.174,0.371,0.371,0.594,0.586
				c0.225,0.219,0.457,0.445,0.707,0.682c0.246,0.234,0.488,0.457,0.723,0.678c0.24,0.217,0.459,0.412,0.66,0.586
				c-0.092,0.088-0.227,0.189-0.406,0.305C94.691,6.267,94.477,6.38,94.23,6.49c-0.246,0.107-0.52,0.199-0.818,0.273
				C93.109,6.841,92.797,6.876,92.465,6.878z"/>
			<path fill="#0B326B" d="M110.334,3.253c0.041,0,0.076,0.01,0.107,0.027c0.023,0.018,0.045,0.049,0.063,0.09l1.367,3.627
				c0.043,0.105,0.043,0.191,0,0.262c-0.035,0.068-0.086,0.113-0.152,0.129c-0.086,0.01-0.143,0.025-0.18,0.047
				c-0.043,0.023-0.057,0.057-0.057,0.107c0.002,0.059,0.045,0.09,0.143,0.107c0.09,0.014,0.211,0.025,0.369,0.029
				c0.459,0.012,0.896,0.02,1.307,0.023c0.414,0.004,0.789,0.008,1.119,0.008c0.33,0.002,0.6,0.002,0.807,0.002
				c0.209,0,0.371-0.006,0.484-0.014c0.115-0.008,0.195-0.025,0.238-0.049c0.043-0.027,0.066-0.061,0.063-0.107
				c0-0.057-0.02-0.096-0.059-0.113c-0.039-0.016-0.094-0.025-0.16-0.021c-0.105,0-0.217-0.006-0.34-0.014
				c-0.125-0.012-0.254-0.029-0.379-0.055c-0.09-0.023-0.191-0.063-0.297-0.121c-0.105-0.055-0.223-0.148-0.348-0.279
				c-0.125-0.133-0.26-0.314-0.402-0.551c-0.141-0.236-0.295-0.543-0.457-0.924c-0.137-0.328-0.297-0.711-0.479-1.158
				c-0.182-0.443-0.377-0.926-0.588-1.445c-0.211-0.521-0.426-1.059-0.65-1.613c-0.221-0.557-0.441-1.109-0.658-1.66
				c-0.219-0.553-0.434-1.076-0.631-1.58c-0.201-0.504-0.385-0.963-0.553-1.383c-0.166-0.416-0.309-0.77-0.426-1.057
				c-0.121-0.293-0.203-0.496-0.256-0.617c-0.082-0.193-0.156-0.336-0.221-0.422c-0.07-0.08-0.141-0.121-0.215-0.119
				c-0.08-0.002-0.154,0.047-0.223,0.156c-0.072,0.105-0.154,0.281-0.254,0.527l-4.293,10.744c-0.113,0.285-0.23,0.539-0.352,0.756
				c-0.129,0.219-0.279,0.396-0.453,0.531c-0.176,0.133-0.391,0.219-0.65,0.252c-0.07,0.01-0.16,0.02-0.26,0.025
				c-0.102,0.006-0.191,0.008-0.273,0.008c-0.064,0-0.119,0.008-0.152,0.031c-0.035,0.02-0.051,0.055-0.051,0.105
				c0,0.066,0.027,0.113,0.08,0.137c0.051,0.023,0.135,0.035,0.246,0.035c0.225,0,0.443-0.002,0.664-0.008
				c0.217-0.006,0.422-0.01,0.607-0.016c0.188-0.006,0.348-0.012,0.475-0.016c0.131-0.006,0.221-0.008,0.275-0.008
				c0.176,0,0.371,0.004,0.582,0.014c0.209,0.008,0.422,0.014,0.631,0.021c0.213,0.008,0.412,0.014,0.598,0.014
				c0.094,0,0.164-0.01,0.217-0.035c0.047-0.023,0.07-0.07,0.07-0.137c0.004-0.051-0.012-0.084-0.049-0.105
				c-0.037-0.023-0.107-0.033-0.205-0.033h-0.258c-0.258-0.002-0.441-0.053-0.541-0.148s-0.146-0.225-0.141-0.383
				c0-0.105,0.021-0.254,0.064-0.439c0.043-0.184,0.105-0.389,0.191-0.604l0.926-2.447c0.012-0.049,0.033-0.084,0.053-0.107
				c0.021-0.018,0.053-0.027,0.096-0.027H110.334L110.334,3.253z M106.859,2.398c-0.035,0-0.059-0.012-0.066-0.035
				c-0.012-0.021-0.012-0.049,0-0.086l1.57-4.207c0.012-0.039,0.027-0.072,0.043-0.105c0.018-0.031,0.039-0.047,0.063-0.049
				c0.025,0.002,0.041,0.02,0.055,0.049c0.012,0.033,0.02,0.066,0.031,0.105l1.539,4.223c0.008,0.027,0.008,0.053-0.002,0.072
				c-0.016,0.02-0.041,0.033-0.082,0.033H106.859L106.859,2.398z M118.098,7.923c-0.439,0.002-0.836-0.027-1.193-0.088
				c-0.361-0.061-0.697-0.164-1.021-0.305c-0.082-0.031-0.141-0.068-0.184-0.105c-0.041-0.041-0.07-0.088-0.082-0.152
				c-0.018-0.063-0.023-0.148-0.023-0.258c0-0.209,0.004-0.418,0.012-0.627c0.004-0.209,0.012-0.402,0.023-0.588
				c0.008-0.182,0.016-0.34,0.025-0.475c0.008-0.133,0.012-0.232,0.018-0.295c0.008-0.115,0.023-0.207,0.051-0.281
				c0.027-0.072,0.07-0.111,0.129-0.113c0.066,0.002,0.109,0.031,0.125,0.084c0.023,0.051,0.031,0.109,0.029,0.174
				c0,0.104,0.014,0.223,0.041,0.363c0.025,0.143,0.057,0.277,0.094,0.41c0.117,0.371,0.283,0.668,0.504,0.895
				c0.219,0.227,0.473,0.389,0.762,0.488c0.285,0.1,0.588,0.15,0.906,0.148c0.34-0.002,0.637-0.055,0.891-0.158
				c0.254-0.102,0.465-0.238,0.633-0.406c0.168-0.166,0.293-0.354,0.375-0.555c0.09-0.205,0.129-0.406,0.129-0.611
				c0.002-0.184-0.016-0.367-0.055-0.551c-0.037-0.184-0.113-0.375-0.213-0.57c-0.107-0.193-0.256-0.398-0.455-0.613
				c-0.197-0.217-0.451-0.445-0.764-0.689l-0.693-0.545c-0.555-0.432-0.994-0.844-1.326-1.238c-0.326-0.395-0.561-0.783-0.709-1.166
				c-0.141-0.385-0.211-0.779-0.209-1.188c0-0.42,0.084-0.805,0.25-1.152s0.402-0.65,0.709-0.906s0.676-0.453,1.107-0.594
				c0.428-0.141,0.904-0.211,1.434-0.213c0.49,0.004,0.9,0.035,1.232,0.088c0.324,0.055,0.59,0.113,0.783,0.17
				c0.07,0.016,0.123,0.037,0.158,0.063c0.039,0.025,0.055,0.066,0.055,0.119c0,0.063-0.004,0.162-0.016,0.295
				c-0.012,0.137-0.02,0.326-0.031,0.568c-0.01,0.246-0.016,0.564-0.016,0.955c0,0.164-0.012,0.283-0.039,0.354
				c-0.025,0.068-0.07,0.105-0.127,0.102c-0.053,0-0.092-0.021-0.119-0.068c-0.02-0.045-0.035-0.113-0.035-0.203
				c0.002-0.049-0.01-0.127-0.031-0.232c-0.023-0.105-0.063-0.229-0.117-0.365c-0.059-0.135-0.141-0.27-0.246-0.402
				c-0.074-0.102-0.176-0.209-0.313-0.32c-0.131-0.115-0.305-0.213-0.523-0.295c-0.217-0.084-0.492-0.125-0.816-0.127
				c-0.375,0.002-0.697,0.07-0.965,0.201c-0.27,0.135-0.477,0.316-0.621,0.551c-0.143,0.234-0.215,0.504-0.217,0.809
				c0.002,0.227,0.049,0.447,0.139,0.66c0.098,0.213,0.262,0.441,0.496,0.684c0.234,0.24,0.559,0.52,0.977,0.836l0.422,0.318
				c0.459,0.346,0.844,0.668,1.164,0.982c0.316,0.314,0.572,0.623,0.766,0.928c0.197,0.307,0.34,0.617,0.426,0.939
				c0.09,0.318,0.133,0.656,0.129,1.016c0.004,0.295-0.043,0.602-0.125,0.918c-0.09,0.313-0.234,0.617-0.445,0.914
				c-0.209,0.297-0.492,0.566-0.855,0.805c-0.252,0.16-0.516,0.287-0.785,0.377c-0.266,0.092-0.541,0.156-0.811,0.191
				C118.637,7.907,118.367,7.923,118.098,7.923L118.098,7.923z M129.314,7.923c0.77-0.002,1.479-0.105,2.131-0.314
				c0.648-0.205,1.225-0.498,1.738-0.873c0.512-0.379,0.945-0.824,1.305-1.342c0.355-0.518,0.625-1.084,0.813-1.709
				c0.189-0.621,0.285-1.281,0.285-1.979c-0.002-0.871-0.145-1.656-0.428-2.35c-0.279-0.695-0.689-1.291-1.221-1.785
				c-0.529-0.496-1.172-0.875-1.926-1.137c-0.754-0.264-1.602-0.395-2.547-0.398c-0.758,0.002-1.438,0.088-2.043,0.26
				c-0.607,0.17-1.137,0.406-1.602,0.707c-0.461,0.297-0.863,0.645-1.191,1.033c-0.332,0.391-0.602,0.809-0.814,1.25
				c-0.209,0.445-0.365,0.895-0.463,1.35c-0.1,0.461-0.148,0.908-0.148,1.344c0,0.449,0.051,0.906,0.152,1.371
				s0.258,0.918,0.465,1.361s0.477,0.857,0.805,1.242c0.328,0.389,0.717,0.729,1.172,1.023c0.451,0.293,0.967,0.525,1.549,0.689
				C127.932,7.835,128.586,7.921,129.314,7.923L129.314,7.923z M129.949,7.165c-0.582-0.002-1.117-0.098-1.602-0.287
				c-0.484-0.186-0.918-0.451-1.293-0.795c-0.379-0.342-0.699-0.75-0.957-1.221c-0.262-0.469-0.457-0.988-0.596-1.551
				c-0.135-0.566-0.205-1.166-0.205-1.799c0-0.752,0.074-1.4,0.219-1.941c0.143-0.543,0.34-0.996,0.59-1.361
				c0.25-0.361,0.535-0.648,0.852-0.859c0.32-0.209,0.656-0.363,1.012-0.451c0.352-0.09,0.703-0.133,1.055-0.131
				c0.627,0.002,1.209,0.129,1.742,0.383c0.539,0.252,1.008,0.619,1.41,1.096c0.404,0.475,0.715,1.055,0.945,1.732
				c0.223,0.676,0.34,1.439,0.344,2.291c-0.004,0.727-0.064,1.352-0.188,1.885c-0.121,0.527-0.283,0.971-0.488,1.332
				c-0.203,0.361-0.434,0.65-0.686,0.875s-0.508,0.395-0.771,0.51c-0.264,0.117-0.514,0.195-0.756,0.238
				C130.336,7.15,130.129,7.169,129.949,7.165L129.949,7.165z M143.65,7.923c0.244,0,0.494-0.008,0.75-0.02
				c0.256-0.018,0.506-0.037,0.75-0.064s0.471-0.066,0.684-0.109c0.209-0.043,0.389-0.096,0.545-0.156
				c0.082-0.035,0.148-0.068,0.199-0.105c0.051-0.033,0.088-0.076,0.117-0.129c0.027-0.051,0.055-0.121,0.078-0.205
				c0.031-0.105,0.059-0.234,0.094-0.389c0.031-0.154,0.059-0.318,0.09-0.49c0.029-0.172,0.053-0.34,0.078-0.498
				c0.02-0.16,0.041-0.297,0.051-0.41s0.02-0.191,0.02-0.23c0-0.064-0.008-0.115-0.027-0.16c-0.023-0.041-0.055-0.064-0.109-0.068
				c-0.059-0.002-0.102,0.02-0.125,0.061c-0.023,0.043-0.051,0.125-0.07,0.242c-0.021,0.094-0.055,0.201-0.105,0.316
				c-0.047,0.119-0.105,0.238-0.176,0.359c-0.07,0.119-0.148,0.229-0.234,0.326c-0.199,0.23-0.43,0.408-0.688,0.529
				c-0.262,0.125-0.561,0.209-0.902,0.254c-0.342,0.043-0.736,0.066-1.186,0.064c-0.342,0-0.693-0.049-1.057-0.146
				c-0.367-0.1-0.727-0.25-1.082-0.449s-0.691-0.449-1.008-0.748c-0.318-0.299-0.596-0.648-0.84-1.049
				c-0.242-0.398-0.438-0.85-0.574-1.35s-0.207-1.049-0.211-1.65c-0.004-0.494,0.037-0.977,0.117-1.447s0.219-0.916,0.424-1.338
				c0.205-0.418,0.488-0.799,0.854-1.143c0.219-0.201,0.467-0.373,0.744-0.512c0.271-0.141,0.582-0.246,0.928-0.316
				c0.348-0.074,0.74-0.109,1.18-0.109c0.465,0.002,0.902,0.043,1.305,0.127c0.404,0.082,0.758,0.191,1.061,0.334
				c0.303,0.141,0.541,0.299,0.709,0.479c0.188,0.201,0.332,0.426,0.43,0.67c0.102,0.242,0.152,0.484,0.16,0.725
				c0,0.105,0.012,0.189,0.031,0.246c0.023,0.057,0.063,0.088,0.125,0.088s0.109-0.031,0.135-0.088
				c0.023-0.061,0.041-0.146,0.045-0.26c0.008-0.078,0.012-0.182,0.016-0.313c0-0.131,0.004-0.275,0.004-0.432
				c0.006-0.158,0.008-0.314,0.01-0.465c0.002-0.156,0.008-0.299,0.016-0.426c0.01-0.174,0.025-0.318,0.033-0.424
				c0.012-0.107,0.023-0.193,0.031-0.258s0.014-0.113,0.014-0.152c0-0.047-0.016-0.086-0.049-0.119
				c-0.037-0.035-0.096-0.057-0.18-0.063c-0.223-0.025-0.461-0.066-0.711-0.119c-0.246-0.051-0.516-0.098-0.803-0.139
				c-0.229-0.031-0.451-0.059-0.668-0.082c-0.221-0.023-0.451-0.041-0.697-0.053s-0.523-0.02-0.832-0.02
				c-0.75,0-1.418,0.066-2.004,0.195c-0.586,0.127-1.105,0.311-1.559,0.549c-0.457,0.24-0.867,0.527-1.227,0.863
				s-0.656,0.691-0.891,1.064c-0.23,0.375-0.41,0.75-0.541,1.125c-0.127,0.373-0.217,0.73-0.268,1.066s-0.076,0.635-0.074,0.895
				c-0.002,0.371,0.027,0.748,0.086,1.135c0.059,0.391,0.156,0.775,0.297,1.164c0.139,0.387,0.332,0.762,0.574,1.133
				c0.242,0.367,0.553,0.711,0.922,1.041c0.459,0.396,0.959,0.717,1.5,0.961c0.539,0.24,1.117,0.418,1.734,0.529
				C142.301,7.87,142.957,7.927,143.65,7.923L143.65,7.923z M149.063,7.667c0.189-0.002,0.357-0.049,0.496-0.135
				c0.141-0.084,0.25-0.201,0.324-0.348C149.957,7.036,150,6.874,150,6.697c-0.002-0.178-0.043-0.334-0.125-0.465
				c-0.082-0.129-0.191-0.232-0.328-0.303c-0.141-0.074-0.297-0.111-0.471-0.111c-0.162,0.002-0.303,0.033-0.42,0.09
				s-0.211,0.135-0.289,0.229c-0.074,0.096-0.127,0.193-0.164,0.301c-0.035,0.105-0.053,0.209-0.053,0.305
				c0,0.143,0.033,0.287,0.096,0.43c0.063,0.139,0.164,0.254,0.297,0.348C148.676,7.615,148.848,7.663,149.063,7.667z"/>
		</g>
	</g>
	<g>
		<path fill="#638A37" d="M21.958,13.749c0-0.984,0-1.162-0.012-1.365c-0.013-0.213-0.063-0.314-0.271-0.359
			c-0.05-0.012-0.158-0.02-0.216-0.02c-0.024,0-0.05-0.012-0.05-0.039c0-0.039,0.032-0.049,0.1-0.049c0.284,0,0.683,0.02,0.714,0.02
			c0.152,0,0.398-0.02,0.687-0.02c1.036,0,1.262,0.629,1.262,0.947c0,0.516-0.296,0.826-0.592,1.135
			c0.466,0.145,1.09,0.592,1.09,1.33c0,0.676-0.53,1.375-1.608,1.375c-0.069,0-0.271-0.014-0.455-0.02
			c-0.183-0.012-0.36-0.02-0.385-0.02c-0.014,0-0.12,0-0.252,0.008c-0.126,0-0.271,0.012-0.366,0.012c-0.067,0-0.1-0.012-0.1-0.051
			c0-0.02,0.012-0.037,0.05-0.037c0.057,0,0.132-0.014,0.19-0.025c0.126-0.027,0.158-0.164,0.182-0.35
			c0.032-0.264,0.032-0.762,0.032-1.369V13.749z M22.462,13.886c0,0.043,0.012,0.057,0.042,0.068
			c0.038,0.008,0.152,0.027,0.386,0.027c0.353,0,0.44-0.014,0.574-0.164c0.134-0.152,0.229-0.379,0.229-0.637
			c0-0.523-0.234-1.084-0.853-1.084c-0.07,0-0.202,0.006-0.304,0.031c-0.056,0.014-0.074,0.033-0.074,0.068V13.886z M22.462,14.554
			c0,0.486,0,1.271,0.004,1.365c0.019,0.309,0.019,0.396,0.214,0.492c0.17,0.082,0.442,0.094,0.555,0.094
			c0.342,0,0.89-0.182,0.89-0.896c0-0.375-0.126-0.926-0.612-1.26c-0.214-0.146-0.374-0.164-0.523-0.184
			c-0.082-0.012-0.398-0.012-0.492-0.012c-0.026,0-0.038,0.012-0.038,0.041v0.359H22.462z"/>
		<path fill="#638A37" d="M29.898,14.185c0-0.834,0-0.984-0.015-1.156c-0.012-0.182-0.044-0.27-0.226-0.293
			c-0.044-0.008-0.141-0.016-0.19-0.016c-0.018,0-0.044-0.025-0.044-0.041c0-0.031,0.026-0.045,0.088-0.045
			c0.252,0,0.624,0.016,0.656,0.016c0.056,0,0.522-0.016,0.694-0.016c0.352,0,0.744,0.033,1.033,0.234
			c0.139,0.1,0.385,0.361,0.385,0.73c0,0.398-0.164,0.783-0.681,1.225c0.454,0.564,0.839,1.051,1.16,1.385
			c0.296,0.305,0.48,0.355,0.618,0.375c0.108,0.02,0.164,0.02,0.196,0.02s0.05,0.023,0.05,0.043c0,0.033-0.03,0.043-0.132,0.043
			h-0.347c-0.315,0-0.455-0.031-0.594-0.107c-0.24-0.127-0.441-0.385-0.756-0.791c-0.234-0.289-0.479-0.635-0.598-0.781
			c-0.026-0.025-0.038-0.031-0.076-0.031l-0.708-0.016c-0.026,0-0.038,0.016-0.038,0.045v0.125c0,0.52,0,0.938,0.024,1.154
			c0.02,0.158,0.052,0.26,0.222,0.287c0.076,0.012,0.196,0.025,0.246,0.025c0.038,0,0.044,0.023,0.044,0.043
			c0,0.025-0.026,0.043-0.088,0.043c-0.305,0-0.656-0.02-0.683-0.02c-0.006,0-0.378,0.02-0.548,0.02
			c-0.056,0-0.088-0.012-0.088-0.043c0-0.021,0.012-0.043,0.044-0.043c0.05,0,0.12-0.014,0.17-0.025
			c0.106-0.027,0.12-0.127,0.146-0.287c0.032-0.217,0.032-0.641,0.032-1.16V14.185z M30.378,14.636c0,0.033,0.012,0.051,0.038,0.07
			c0.082,0.043,0.366,0.082,0.612,0.082c0.132,0,0.283-0.008,0.416-0.096c0.189-0.125,0.334-0.41,0.334-0.82
			c0-0.668-0.366-1.051-0.958-1.051c-0.164,0-0.343,0.02-0.398,0.031c-0.026,0.014-0.044,0.031-0.044,0.063V14.636z"/>
		<path fill="#638A37" d="M39.65,12.554c1.25,0,2.195,0.766,2.195,2.016c0,1.197-0.888,2.188-2.226,2.188
			c-1.521,0-2.17-1.141-2.17-2.107C37.448,13.784,38.118,12.554,39.65,12.554z M39.776,16.534c0.498,0,1.502-0.264,1.502-1.816
			c0-1.287-0.782-1.959-1.66-1.959c-0.926,0-1.596,0.58-1.596,1.746C38.022,15.755,38.772,16.534,39.776,16.534z"/>
		<path fill="#638A37" d="M46.86,14.185c0-0.834,0-0.984-0.013-1.156c-0.012-0.182-0.044-0.27-0.228-0.293
			c-0.044-0.008-0.14-0.016-0.19-0.016c-0.018,0-0.044-0.025-0.044-0.041c0-0.031,0.026-0.045,0.088-0.045
			c0.252,0,0.593,0.016,0.626,0.016c0.051,0,0.385-0.016,0.549-0.016c0.063,0,0.088,0.016,0.088,0.045
			c0,0.018-0.021,0.041-0.044,0.041c-0.038,0-0.07,0-0.139,0.016c-0.146,0.031-0.184,0.107-0.195,0.293
			c-0.013,0.172-0.013,0.322-0.013,1.156v0.32h0.026c0.088-0.1,1.08-1.078,1.288-1.293c0.158-0.156,0.302-0.295,0.302-0.383
			c0-0.068-0.023-0.102-0.068-0.109c-0.033-0.008-0.054-0.031-0.054-0.051c0-0.023,0.024-0.039,0.063-0.039
			c0.113,0,0.283,0.016,0.416,0.016c0.031,0,0.397-0.016,0.536-0.016c0.058,0,0.081,0.016,0.081,0.039
			c0,0.025-0.012,0.043-0.054,0.043c-0.082,0-0.204,0.033-0.31,0.076c-0.227,0.104-0.334,0.221-0.58,0.455
			c-0.141,0.125-1.084,1.035-1.206,1.168c0.146,0.158,1.3,1.309,1.528,1.52c0.466,0.416,0.531,0.486,0.792,0.594
			c0.146,0.057,0.304,0.076,0.342,0.076c0.04,0,0.069,0.018,0.069,0.043c0,0.023-0.025,0.043-0.122,0.043h-0.283
			c-0.158,0-0.261,0-0.385-0.012c-0.292-0.027-0.436-0.146-0.676-0.33c-0.252-0.195-1.418-1.426-1.684-1.74h-0.026v0.523
			c0,0.52,0,0.943,0.026,1.16c0.02,0.158,0.044,0.26,0.214,0.287c0.078,0.012,0.166,0.025,0.216,0.025
			c0.032,0,0.044,0.023,0.044,0.043c0,0.025-0.025,0.043-0.088,0.043c-0.27,0-0.605-0.02-0.649-0.02c-0.045,0-0.379,0.02-0.549,0.02
			c-0.058,0-0.088-0.012-0.088-0.043c0-0.021,0.013-0.043,0.044-0.043c0.05,0,0.12-0.014,0.17-0.025
			c0.106-0.027,0.12-0.127,0.145-0.287c0.032-0.217,0.032-0.641,0.032-1.16v-0.943H46.86z"/>
		<path fill="#638A37" d="M54.914,14.185c0-0.834,0-0.984-0.012-1.156c-0.012-0.182-0.043-0.27-0.229-0.293
			c-0.041-0.008-0.139-0.016-0.188-0.016c-0.021,0-0.045-0.025-0.045-0.041c0-0.031,0.027-0.045,0.09-0.045
			c0.25,0,0.613,0.016,0.641,0.016c0.039,0,1.199,0.006,1.326,0c0.107-0.008,0.209-0.029,0.252-0.035
			c0.027-0.006,0.051-0.025,0.076-0.025c0.018,0,0.025,0.025,0.025,0.049c0,0.041-0.031,0.104-0.043,0.256
			c-0.008,0.047-0.02,0.289-0.031,0.352C56.77,13.271,56.75,13.3,56.727,13.3c-0.031,0-0.043-0.025-0.043-0.066
			c0-0.039-0.006-0.127-0.031-0.191c-0.039-0.088-0.098-0.125-0.398-0.164c-0.094-0.012-0.738-0.02-0.801-0.02
			c-0.025,0-0.031,0.02-0.031,0.057v1.457c0,0.039,0,0.055,0.031,0.055c0.07,0,0.801,0,0.926-0.012
			c0.135-0.012,0.215-0.02,0.275-0.076c0.037-0.039,0.061-0.068,0.08-0.068s0.031,0.012,0.031,0.043
			c0,0.033-0.031,0.121-0.043,0.295c-0.012,0.107-0.023,0.309-0.023,0.348c0,0.043-0.014,0.104-0.049,0.104
			c-0.029,0-0.041-0.021-0.041-0.051c0-0.051,0-0.107-0.025-0.178c-0.02-0.074-0.068-0.139-0.283-0.164
			c-0.15-0.02-0.746-0.025-0.84-0.025c-0.033,0-0.039,0.02-0.039,0.039v0.447c0,0.186-0.006,0.807,0,0.914
			c0.012,0.363,0.113,0.43,0.662,0.43c0.146,0,0.41,0,0.553-0.055c0.145-0.063,0.223-0.158,0.254-0.375
			c0.014-0.061,0.025-0.08,0.055-0.08c0.031,0,0.041,0.043,0.041,0.08c0,0.041-0.045,0.404-0.078,0.52
			c-0.037,0.137-0.092,0.137-0.307,0.137c-0.416,0-0.738-0.012-0.965-0.018c-0.232-0.014-0.377-0.014-0.461-0.014
			c-0.01,0-0.121,0-0.238,0.008c-0.107,0.006-0.23,0.012-0.32,0.012c-0.059,0-0.09-0.012-0.09-0.043
			c0-0.021,0.012-0.043,0.045-0.043c0.049,0,0.119-0.02,0.17-0.025c0.107-0.021,0.121-0.127,0.145-0.287
			c0.031-0.217,0.031-0.641,0.031-1.16v-0.943H54.914z"/>
		<path fill="#638A37" d="M62.244,14.185c0-0.834,0-0.984-0.014-1.156c-0.012-0.182-0.045-0.27-0.227-0.293
			c-0.043-0.008-0.137-0.016-0.189-0.016c-0.018,0-0.045-0.025-0.045-0.041c0-0.031,0.027-0.045,0.09-0.045
			c0.254,0,0.627,0.016,0.656,0.016c0.057,0,0.523-0.016,0.695-0.016c0.354,0,0.742,0.033,1.035,0.234
			c0.137,0.1,0.383,0.361,0.383,0.73c0,0.398-0.164,0.783-0.68,1.225c0.455,0.564,0.84,1.051,1.16,1.385
			c0.297,0.305,0.477,0.355,0.617,0.375c0.109,0.02,0.164,0.02,0.199,0.02c0.031,0,0.047,0.023,0.047,0.043
			c0,0.033-0.031,0.043-0.131,0.043h-0.348c-0.314,0-0.455-0.031-0.592-0.107c-0.24-0.127-0.445-0.385-0.758-0.791
			c-0.232-0.289-0.479-0.635-0.602-0.781c-0.023-0.025-0.037-0.031-0.074-0.031l-0.709-0.016c-0.023,0-0.037,0.016-0.037,0.045
			v0.125c0,0.52,0,0.938,0.025,1.154c0.02,0.158,0.049,0.26,0.221,0.287c0.074,0.012,0.195,0.025,0.246,0.025
			c0.039,0,0.043,0.023,0.043,0.043c0,0.025-0.025,0.043-0.088,0.043c-0.303,0-0.656-0.02-0.682-0.02
			c-0.006,0-0.379,0.02-0.547,0.02c-0.059,0-0.092-0.012-0.092-0.043c0-0.021,0.014-0.043,0.047-0.043
			c0.049,0,0.119-0.014,0.17-0.025c0.107-0.027,0.117-0.127,0.145-0.287c0.031-0.217,0.031-0.641,0.031-1.16v-0.941H62.244z
			 M62.723,14.636c0,0.033,0.014,0.051,0.037,0.07c0.084,0.043,0.369,0.082,0.615,0.082c0.131,0,0.283-0.008,0.414-0.096
			c0.191-0.125,0.336-0.41,0.336-0.82c0-0.668-0.367-1.051-0.959-1.051c-0.164,0-0.34,0.02-0.396,0.031
			c-0.025,0.014-0.043,0.031-0.043,0.063v1.721H62.723z"/>
		<path fill="#638A37" d="M76.24,14.185c0-0.834,0-0.984-0.014-1.156c-0.012-0.182-0.047-0.27-0.227-0.295
			c-0.043-0.008-0.141-0.016-0.191-0.016c-0.02,0-0.045-0.025-0.045-0.041c0-0.031,0.029-0.045,0.092-0.045
			c0.254,0,0.609,0.016,0.643,0.016c0.061,0,0.416-0.016,0.742-0.016c0.557,0,1.572-0.049,2.229,0.613
			c0.277,0.279,0.541,0.725,0.541,1.363c0,0.674-0.291,1.191-0.6,1.508c-0.238,0.246-0.736,0.619-1.684,0.619
			c-0.238,0-0.535-0.02-0.777-0.033c-0.238-0.018-0.43-0.031-0.453-0.031c-0.014,0-0.117,0.008-0.229,0.008
			c-0.113,0.006-0.244,0.012-0.334,0.012c-0.055,0-0.088-0.012-0.088-0.043c0-0.021,0.014-0.043,0.045-0.043
			c0.047,0,0.117-0.014,0.168-0.025c0.109-0.027,0.119-0.127,0.145-0.287c0.033-0.217,0.033-0.641,0.033-1.16v-0.947H76.24z
			 M76.744,14.765c0,0.566,0,1.064,0.008,1.166c0.006,0.133,0.021,0.328,0.063,0.385c0.068,0.102,0.264,0.213,0.922,0.213
			c0.51,0,0.963-0.17,1.299-0.486c0.289-0.27,0.434-0.781,0.434-1.273c0-0.68-0.295-1.117-0.523-1.344
			c-0.523-0.529-1.137-0.6-1.797-0.6c-0.109,0-0.285,0.02-0.334,0.039c-0.051,0.018-0.07,0.043-0.07,0.107V14.765z"/>
		<path fill="#638A37" d="M85.141,14.185c0-0.834,0-0.984-0.012-1.156c-0.016-0.182-0.045-0.27-0.229-0.293
			c-0.045-0.008-0.139-0.016-0.189-0.016c-0.02,0-0.045-0.025-0.045-0.041c0-0.031,0.025-0.045,0.088-0.045
			c0.254,0,0.613,0.016,0.645,0.016c0.039,0,1.199,0.006,1.324,0c0.107-0.008,0.209-0.029,0.254-0.035
			c0.025-0.006,0.047-0.025,0.074-0.025c0.02,0,0.027,0.025,0.027,0.049c0,0.041-0.035,0.104-0.043,0.256
			c-0.008,0.047-0.02,0.289-0.033,0.352c-0.006,0.025-0.025,0.055-0.049,0.055c-0.035,0-0.043-0.025-0.043-0.066
			c0-0.039-0.008-0.127-0.035-0.191c-0.037-0.088-0.094-0.125-0.395-0.164c-0.098-0.012-0.738-0.02-0.801-0.02
			c-0.027,0-0.035,0.02-0.035,0.057v1.457c0,0.039,0,0.055,0.035,0.055c0.068,0,0.801,0,0.926-0.012
			c0.133-0.012,0.215-0.02,0.273-0.076c0.039-0.039,0.063-0.068,0.082-0.068s0.031,0.012,0.031,0.043
			c0,0.033-0.031,0.121-0.043,0.295c-0.012,0.107-0.027,0.309-0.027,0.348c0,0.043-0.01,0.104-0.047,0.104
			c-0.025,0-0.041-0.021-0.041-0.051c0-0.051,0-0.107-0.025-0.178c-0.02-0.074-0.068-0.139-0.285-0.164
			c-0.148-0.02-0.742-0.025-0.84-0.025c-0.031,0-0.039,0.02-0.039,0.039v0.447c0,0.186-0.004,0.807,0,0.914
			c0.016,0.363,0.117,0.43,0.664,0.43c0.145,0,0.41,0,0.555-0.055c0.145-0.063,0.221-0.158,0.254-0.375
			c0.012-0.061,0.023-0.08,0.055-0.08s0.039,0.043,0.039,0.08c0,0.041-0.043,0.404-0.078,0.52c-0.037,0.137-0.094,0.137-0.305,0.137
			c-0.418,0-0.74-0.012-0.965-0.018c-0.234-0.014-0.379-0.014-0.461-0.014c-0.012,0-0.117,0-0.238,0.008
			c-0.109,0.006-0.234,0.012-0.324,0.012c-0.055,0-0.086-0.012-0.086-0.043c0-0.021,0.012-0.043,0.043-0.043
			c0.049,0,0.121-0.02,0.168-0.025c0.111-0.021,0.123-0.127,0.148-0.287c0.031-0.217,0.031-0.641,0.031-1.16v-0.943H85.141z"/>
		<path fill="#638A37" d="M98.113,16.607c-0.086-0.043-0.096-0.07-0.096-0.24c0-0.314,0.029-0.568,0.033-0.668
			c0.008-0.07,0.02-0.102,0.051-0.102c0.039,0,0.043,0.02,0.043,0.07c0,0.053,0,0.145,0.02,0.232
			c0.094,0.465,0.512,0.643,0.934,0.643c0.605,0,0.9-0.436,0.9-0.84c0-0.436-0.182-0.688-0.725-1.133l-0.283-0.234
			c-0.668-0.549-0.818-0.939-0.818-1.371c0-0.676,0.504-1.133,1.305-1.133c0.242,0,0.43,0.025,0.582,0.063
			c0.123,0.025,0.176,0.033,0.223,0.033c0.051,0,0.063,0.012,0.063,0.041c0,0.031-0.025,0.24-0.025,0.668
			c0,0.104-0.014,0.146-0.041,0.146c-0.041,0-0.043-0.033-0.051-0.082c-0.008-0.076-0.045-0.246-0.082-0.316
			c-0.039-0.066-0.209-0.334-0.789-0.334c-0.436,0-0.777,0.273-0.777,0.732c0,0.361,0.164,0.586,0.77,1.059l0.18,0.139
			c0.74,0.588,0.918,0.977,0.918,1.482c0,0.256-0.102,0.736-0.537,1.047c-0.271,0.188-0.611,0.264-0.951,0.264
			C98.664,16.777,98.371,16.732,98.113,16.607z"/>
		<path fill="#638A37" d="M105.822,14.185c0-0.834,0-0.984-0.014-1.156c-0.012-0.182-0.043-0.27-0.225-0.293
			c-0.045-0.008-0.139-0.016-0.189-0.016c-0.02,0-0.045-0.025-0.045-0.041c0-0.031,0.025-0.045,0.088-0.045
			c0.254,0,0.613,0.016,0.645,0.016c0.039,0,1.199,0.006,1.324,0c0.105-0.008,0.207-0.029,0.252-0.035
			c0.025-0.006,0.049-0.025,0.076-0.025c0.02,0,0.023,0.025,0.023,0.049c0,0.041-0.031,0.104-0.043,0.256
			c-0.004,0.047-0.02,0.289-0.031,0.352c-0.006,0.025-0.025,0.055-0.051,0.055c-0.031,0-0.043-0.025-0.043-0.066
			c0-0.039-0.006-0.127-0.031-0.191c-0.039-0.088-0.094-0.125-0.396-0.164c-0.094-0.012-0.738-0.02-0.799-0.02
			c-0.027,0-0.033,0.02-0.033,0.057v1.457c0,0.039,0,0.055,0.033,0.055c0.066,0,0.799,0,0.926-0.012
			c0.131-0.012,0.215-0.02,0.273-0.076c0.037-0.039,0.063-0.068,0.078-0.068c0.021,0,0.033,0.012,0.033,0.043
			c0,0.033-0.033,0.121-0.041,0.295c-0.016,0.107-0.027,0.309-0.027,0.348c0,0.043-0.014,0.104-0.051,0.104
			c-0.023,0-0.039-0.021-0.039-0.051c0-0.051,0-0.107-0.023-0.178c-0.02-0.074-0.07-0.139-0.285-0.164
			c-0.152-0.02-0.742-0.025-0.84-0.025c-0.031,0-0.037,0.02-0.037,0.039v0.447c0,0.186-0.008,0.807,0,0.914
			c0.012,0.363,0.115,0.43,0.662,0.43c0.145,0,0.408,0,0.555-0.055c0.145-0.063,0.219-0.158,0.25-0.375
			c0.016-0.061,0.027-0.08,0.059-0.08s0.039,0.043,0.039,0.08c0,0.041-0.045,0.404-0.076,0.52c-0.041,0.137-0.096,0.137-0.311,0.137
			c-0.416,0-0.734-0.012-0.961-0.018c-0.234-0.014-0.379-0.014-0.461-0.014c-0.014,0-0.121,0-0.24,0.008
			c-0.107,0.006-0.232,0.012-0.322,0.012c-0.055,0-0.088-0.012-0.088-0.043c0-0.021,0.014-0.043,0.045-0.043
			c0.047,0,0.119-0.02,0.17-0.025c0.107-0.021,0.119-0.127,0.143-0.287c0.033-0.217,0.033-0.641,0.033-1.16v-0.943H105.822z"/>
		<path fill="#638A37" d="M115.762,15.32c0-0.438-0.014-0.498-0.238-0.543c-0.047-0.008-0.141-0.014-0.191-0.014
			c-0.02,0-0.043-0.025-0.043-0.045c0-0.037,0.025-0.043,0.09-0.043c0.25,0,0.623,0.014,0.656,0.014
			c0.023,0,0.373-0.014,0.541-0.014c0.061,0,0.088,0.008,0.088,0.043c0,0.021-0.027,0.045-0.043,0.045c-0.039,0-0.074,0-0.139,0.014
			c-0.152,0.023-0.197,0.105-0.209,0.295c-0.008,0.17-0.008,0.328-0.008,0.553v0.602c0,0.244-0.006,0.252-0.074,0.289
			c-0.354,0.184-0.859,0.24-1.18,0.24c-0.422,0-1.211-0.049-1.83-0.572c-0.34-0.285-0.662-0.859-0.662-1.527
			c0-0.859,0.438-1.463,0.93-1.76c0.496-0.303,1.051-0.344,1.473-0.344c0.355,0,0.744,0.063,0.855,0.092
			c0.113,0.023,0.307,0.055,0.445,0.055c0.059,0,0.07,0.023,0.07,0.049c0,0.076-0.033,0.221-0.033,0.758
			c0,0.088-0.023,0.113-0.061,0.113c-0.033,0-0.041-0.031-0.041-0.082c-0.004-0.068-0.037-0.225-0.127-0.354
			c-0.137-0.201-0.559-0.416-1.279-0.416c-0.336,0-0.74,0.025-1.162,0.348c-0.322,0.246-0.547,0.725-0.547,1.35
			c0,0.756,0.389,1.299,0.586,1.482c0.443,0.41,0.91,0.563,1.422,0.563c0.193,0,0.453-0.02,0.598-0.102
			c0.07-0.039,0.113-0.064,0.113-0.164V15.32z"/>
		<path fill="#638A37" d="M121.508,14.185c0-0.834,0-0.984-0.012-1.156c-0.014-0.17-0.043-0.27-0.229-0.293
			c-0.045-0.008-0.139-0.016-0.189-0.016c-0.02,0-0.043-0.025-0.043-0.041c0-0.031,0.027-0.045,0.09-0.045
			c0.25,0,0.586,0.016,0.635,0.016s0.398-0.016,0.561-0.016c0.063,0,0.096,0.016,0.096,0.045c0,0.018-0.025,0.041-0.049,0.041
			c-0.039,0-0.07,0-0.141,0.016c-0.143,0.025-0.176,0.119-0.188,0.293c-0.012,0.172-0.012,0.322-0.012,1.156v0.75
			c0,0.775,0.168,1.098,0.408,1.313c0.271,0.246,0.51,0.289,0.826,0.289c0.34,0,0.67-0.15,0.859-0.377
			c0.258-0.309,0.314-0.75,0.314-1.299v-0.676c0-0.834-0.008-0.984-0.014-1.156c-0.006-0.17-0.039-0.27-0.219-0.293
			c-0.043-0.008-0.139-0.016-0.189-0.016c-0.027,0-0.045-0.025-0.045-0.041c0-0.031,0.027-0.045,0.09-0.045
			c0.242,0,0.566,0.016,0.598,0.016c0.039,0,0.305-0.016,0.465-0.016c0.064,0,0.09,0.016,0.09,0.045c0,0.018-0.02,0.041-0.043,0.041
			c-0.039,0-0.068,0-0.137,0.016c-0.152,0.031-0.184,0.119-0.197,0.293c-0.012,0.172-0.004,0.322-0.004,1.156v0.574
			c0,0.58-0.078,1.229-0.521,1.607c-0.402,0.348-0.832,0.391-1.158,0.391c-0.186,0-0.764-0.012-1.154-0.377
			c-0.273-0.254-0.486-0.625-0.486-1.408v-0.787H121.508z"/>
		<path fill="#638A37" d="M130.262,14.185c0-0.834,0-0.984-0.01-1.156c-0.016-0.182-0.045-0.27-0.229-0.293
			c-0.043-0.008-0.137-0.016-0.189-0.016c-0.02,0-0.045-0.025-0.045-0.041c0-0.031,0.027-0.045,0.09-0.045
			c0.254,0,0.625,0.016,0.656,0.016c0.057,0,0.523-0.016,0.691-0.016c0.355,0,0.746,0.033,1.037,0.234
			c0.139,0.1,0.385,0.361,0.385,0.73c0,0.398-0.162,0.783-0.68,1.225c0.453,0.564,0.836,1.051,1.156,1.385
			c0.299,0.305,0.48,0.355,0.621,0.375c0.109,0.02,0.164,0.02,0.195,0.02c0.035,0,0.051,0.023,0.051,0.043
			c0,0.033-0.031,0.043-0.129,0.043h-0.35c-0.314,0-0.455-0.031-0.594-0.107c-0.24-0.127-0.443-0.385-0.758-0.791
			c-0.232-0.289-0.479-0.635-0.598-0.781c-0.025-0.025-0.041-0.031-0.076-0.031l-0.707-0.016c-0.027,0-0.039,0.016-0.039,0.045
			v0.125c0,0.52,0,0.938,0.023,1.154c0.02,0.158,0.053,0.26,0.223,0.287c0.076,0.012,0.193,0.025,0.246,0.025
			c0.039,0,0.043,0.023,0.043,0.043c0,0.025-0.027,0.043-0.09,0.043c-0.301,0-0.656-0.02-0.682-0.02c-0.006,0-0.377,0.02-0.549,0.02
			c-0.055,0-0.086-0.012-0.086-0.043c0-0.021,0.012-0.043,0.043-0.043c0.051,0,0.121-0.014,0.17-0.025
			c0.107-0.027,0.119-0.127,0.146-0.287c0.029-0.217,0.029-0.641,0.029-1.16v-0.941H130.262z M130.744,14.636
			c0,0.033,0.012,0.051,0.041,0.07c0.078,0.043,0.363,0.082,0.609,0.082c0.133,0,0.285-0.008,0.418-0.096
			c0.188-0.125,0.332-0.41,0.332-0.82c0-0.668-0.363-1.051-0.959-1.051c-0.162,0-0.338,0.02-0.396,0.031
			c-0.025,0.014-0.041,0.031-0.041,0.063v1.721H130.744z"/>
		<path fill="#638A37" d="M140.014,12.554c1.25,0,2.197,0.766,2.197,2.016c0,1.197-0.889,2.188-2.227,2.188
			c-1.523,0-2.17-1.141-2.17-2.107C137.814,13.784,138.482,12.554,140.014,12.554z M140.141,16.534c0.5,0,1.5-0.264,1.5-1.816
			c0-1.287-0.781-1.959-1.656-1.959c-0.93,0-1.598,0.58-1.598,1.746C138.387,15.755,139.137,16.534,140.141,16.534z"/>
		<path fill="#638A37" d="M146.928,16.613c-0.076-0.037-0.084-0.057-0.084-0.201c0-0.266,0.027-0.48,0.031-0.568
			c0-0.057,0.016-0.088,0.045-0.088s0.049,0.02,0.049,0.063s0,0.119,0.021,0.195c0.088,0.393,0.504,0.531,0.877,0.531
			c0.547,0,0.832-0.309,0.832-0.713c0-0.383-0.209-0.566-0.703-0.932l-0.252-0.191c-0.598-0.449-0.795-0.777-0.795-1.146
			c0-0.631,0.5-1.012,1.23-1.012c0.223,0,0.441,0.033,0.574,0.063c0.109,0.025,0.152,0.025,0.199,0.025
			c0.041,0,0.053,0.01,0.053,0.041c0,0.025-0.023,0.201-0.023,0.566c0,0.084-0.01,0.121-0.045,0.121s-0.043-0.025-0.051-0.07
			c-0.004-0.061-0.049-0.207-0.082-0.266c-0.039-0.063-0.219-0.264-0.717-0.264c-0.404,0-0.738,0.201-0.738,0.58
			c0,0.34,0.17,0.537,0.719,0.908l0.158,0.107c0.676,0.461,0.906,0.834,0.906,1.293c0,0.313-0.119,0.656-0.516,0.914
			c-0.234,0.15-0.582,0.189-0.883,0.189C147.477,16.757,147.156,16.718,146.928,16.613z"/>
	</g>
</g>
</svg>
