<?xml version="1.0" encoding="utf-8"?>
<!-- Generator: Adobe Illustrator 16.0.0, SVG Export Plug-In . SVG Version: 6.00 Build 0)  -->
<!DOCTYPE svg PUBLIC "-//W3C//DTD SVG 1.1//EN" "http://www.w3.org/Graphics/SVG/1.1/DTD/svg11.dtd">
<svg version="1.1" id="Capa_1" xmlns="http://www.w3.org/2000/svg" xmlns:xlink="http://www.w3.org/1999/xlink" x="0px" y="0px"
	 width="200px" height="25.643px" viewBox="-50 -6.411 200 25.643" enable-background="new -50 -6.411 200 25.643"
	 xml:space="preserve">
<g>
	<g>
		<polygon fill="#3F3F3F" points="-32.824,10.764 -42.193,10.764 -42.193,1.397 -32.824,1.397 -32.824,4.518 -25.016,4.518 
			-25.016,-6.411 -50,-6.411 -50,18.575 -25.016,18.575 -25.016,7.643 -32.824,7.643 		"/>
	</g>
	<g>
		<polygon fill="#8E8378" points="-32.168,11.423 -41.535,11.423 -41.535,2.052 -32.168,2.052 -32.168,5.177 -24.359,5.177 
			-24.359,-5.755 -49.344,-5.755 -49.344,19.231 -24.359,19.231 -24.359,8.3 -32.168,8.3 		"/>
	</g>
	<g>
		<path fill="#3F3F3F" d="M-14.617-3.073h5.316v0.738h-4.396v1.539h2.686v0.729h-2.686v1.754h4.439v0.758h-5.359V-3.073z"/>
		<path fill="#3F3F3F" d="M-0.328-2.323v1.539h3.475c0.25,0,0.459,0.023,0.627,0.064c0.168,0.043,0.301,0.115,0.395,0.215
			c0.098,0.1,0.164,0.234,0.205,0.402S4.43,0.272,4.43,0.522v0.621c0,0.256-0.02,0.467-0.057,0.635S4.262,2.081,4.164,2.18
			S3.934,2.35,3.77,2.389C3.605,2.427,3.396,2.446,3.148,2.446H-0.07c-0.25,0-0.457-0.02-0.621-0.057
			C-0.855,2.35-0.988,2.278-1.086,2.18c-0.102-0.1-0.172-0.234-0.215-0.402c-0.043-0.166-0.064-0.379-0.064-0.635v-0.15l0.857-0.205
			v0.889h4.105V0.018H0.135c-0.25,0-0.459-0.02-0.623-0.059s-0.293-0.107-0.389-0.207S-1.043-0.482-1.086-0.65
			c-0.041-0.166-0.063-0.379-0.063-0.637v-0.48c0-0.256,0.021-0.469,0.063-0.637c0.043-0.166,0.113-0.303,0.209-0.402
			s0.225-0.17,0.389-0.207c0.168-0.039,0.373-0.059,0.623-0.059h2.939c0.229,0,0.426,0.018,0.59,0.055
			c0.164,0.035,0.297,0.1,0.402,0.191c0.102,0.092,0.18,0.219,0.229,0.373c0.049,0.158,0.076,0.355,0.076,0.59v0.117L3.578-1.521
			v-0.803H-0.328z"/>
		<path fill="#3F3F3F" d="M15.299,2.446h-0.92v-4.77h-2.523v-0.75h5.977v0.75h-2.533V2.446z"/>
		<path fill="#3F3F3F" d="M26.238,1.677h4.023v-4.75h0.91v4.215c0,0.256-0.02,0.467-0.061,0.635s-0.107,0.303-0.209,0.402
			c-0.1,0.1-0.23,0.17-0.395,0.207c-0.164,0.039-0.373,0.059-0.621,0.059h-3.271c-0.25,0-0.455-0.02-0.619-0.059
			c-0.168-0.039-0.297-0.109-0.398-0.207c-0.098-0.1-0.168-0.234-0.213-0.402C25.344,1.61,25.32,1.397,25.32,1.141v-4.215h0.922
			v4.75H26.238z"/>
		<path fill="#3F3F3F" d="M44.246-2.982c0.344,0.063,0.643,0.174,0.893,0.336c0.357,0.229,0.635,0.547,0.84,0.953
			c0.205,0.404,0.305,0.855,0.305,1.348c0,0.52-0.1,0.986-0.299,1.395c-0.201,0.41-0.484,0.732-0.848,0.969
			c-0.25,0.164-0.547,0.275-0.891,0.336c-0.348,0.061-0.754,0.09-1.227,0.09h-3.035v-5.52h3.035
			C43.492-3.073,43.898-3.044,44.246-2.982z M40.902-2.323v4h1.988c0.414,0,0.773-0.031,1.082-0.096
			c0.307-0.064,0.563-0.172,0.766-0.326c0.199-0.154,0.352-0.359,0.453-0.621c0.1-0.26,0.148-0.586,0.148-0.979
			c0-0.371-0.051-0.682-0.156-0.938c-0.102-0.252-0.254-0.457-0.459-0.613c-0.205-0.158-0.459-0.268-0.764-0.332
			s-0.664-0.096-1.07-0.096H40.902L40.902-2.323z"/>
		<path fill="#3F3F3F" d="M54.561-3.073h0.92v5.52h-0.92V-3.073z"/>
		<path fill="#3F3F3F" d="M64.27-2.404c0.043-0.166,0.117-0.303,0.215-0.402c0.102-0.1,0.23-0.17,0.395-0.207
			c0.164-0.039,0.371-0.059,0.621-0.059h3.82c0.246,0,0.457,0.02,0.617,0.059c0.164,0.039,0.297,0.109,0.398,0.207
			c0.098,0.1,0.168,0.234,0.207,0.402s0.059,0.381,0.059,0.637v2.91c0,0.256-0.02,0.467-0.059,0.635s-0.109,0.303-0.207,0.402
			c-0.102,0.1-0.234,0.17-0.398,0.209c-0.164,0.037-0.371,0.057-0.617,0.057H65.5c-0.25,0-0.457-0.02-0.621-0.057
			c-0.164-0.041-0.293-0.111-0.395-0.209c-0.1-0.098-0.172-0.234-0.215-0.402c-0.041-0.166-0.061-0.377-0.061-0.635v-2.91
			C64.209-2.023,64.229-2.236,64.27-2.404z M69.693,1.677v-4h-4.566v4H69.693L69.693,1.677z"/>
		<path fill="#3F3F3F" d="M90.123-2.323v4h3.828V0.296l0.92,0.195v0.652c0,0.256-0.02,0.467-0.059,0.635s-0.109,0.303-0.207,0.402
			s-0.232,0.17-0.396,0.209c-0.162,0.037-0.369,0.057-0.619,0.057h-3.094c-0.25,0-0.455-0.02-0.619-0.057
			c-0.164-0.041-0.295-0.111-0.393-0.209c-0.104-0.1-0.174-0.234-0.215-0.402c-0.043-0.166-0.064-0.379-0.064-0.635v-2.91
			c0-0.256,0.021-0.469,0.064-0.637c0.041-0.166,0.113-0.303,0.215-0.402c0.098-0.1,0.229-0.17,0.393-0.207
			c0.164-0.039,0.369-0.059,0.619-0.059h3.094c0.25,0,0.457,0.02,0.619,0.059c0.164,0.039,0.295,0.109,0.396,0.207
			c0.1,0.098,0.168,0.234,0.207,0.402s0.059,0.381,0.059,0.637v0.523l-0.92,0.17v-1.25H90.123z"/>
		<path fill="#3F3F3F" d="M105.172-3.073h0.984l3.068,5.52h-1.016L107.5,1.089h-3.73l-0.709,1.357h-0.908L105.172-3.073z
			 M107.129,0.382l-1.488-2.822l-1.484,2.822H107.129z"/>
		<path fill="#3F3F3F" d="M116.945-3.073h0.922v4.75h4.18v0.77h-5.102V-3.073z"/>
		<path fill="#3F3F3F" d="M128.785-3.073h0.994l2.439,4.598l2.332-4.598h0.908l-2.885,5.52h-0.773L128.785-3.073z"/>
		<path fill="#3F3F3F" d="M143.172-2.404c0.043-0.166,0.115-0.303,0.213-0.402c0.1-0.1,0.232-0.17,0.396-0.207
			c0.164-0.039,0.371-0.059,0.621-0.059h3.816c0.25,0,0.457,0.02,0.621,0.059s0.295,0.109,0.395,0.207
			c0.102,0.098,0.172,0.234,0.209,0.402s0.057,0.381,0.057,0.637v2.91c0,0.256-0.016,0.467-0.057,0.635s-0.111,0.303-0.209,0.402
			c-0.1,0.1-0.23,0.17-0.395,0.209c-0.164,0.037-0.371,0.057-0.621,0.057h-3.816c-0.25,0-0.457-0.02-0.621-0.057
			c-0.164-0.039-0.297-0.111-0.396-0.209s-0.17-0.234-0.213-0.402c-0.043-0.166-0.063-0.377-0.063-0.635v-2.91
			C143.105-2.023,143.129-2.236,143.172-2.404z M148.594,1.677v-4h-4.566v4H148.594L148.594,1.677z"/>
	</g>
	<g>
		<path fill="#8E8378" d="M-13.199,12.841l-1.449-0.141c0.07-0.549,0.305-0.971,0.703-1.27c0.4-0.295,0.904-0.443,1.512-0.443
			c0.512,0,0.922,0.098,1.234,0.293c0.313,0.197,0.506,0.426,0.588,0.688s0.123,0.662,0.123,1.209v2.186
			c0,0.68,0.029,1.084,0.09,1.215h-1.418c-0.051-0.15-0.078-0.43-0.078-0.842c-0.336,0.635-0.832,0.955-1.5,0.955
			c-0.426,0-0.77-0.125-1.039-0.381c-0.268-0.254-0.402-0.627-0.402-1.115c0-0.611,0.203-1.084,0.605-1.418
			c0.406-0.334,1.141-0.535,2.209-0.6v-0.205c0-0.369-0.037-0.621-0.111-0.762c-0.074-0.139-0.215-0.209-0.43-0.209
			C-12.945,12.001-13.16,12.28-13.199,12.841z M-12.016,13.964c-0.445,0.051-0.764,0.148-0.953,0.295
			c-0.191,0.145-0.285,0.391-0.285,0.738c0,0.459,0.168,0.691,0.508,0.691c0.184,0,0.352-0.104,0.5-0.311
			c0.152-0.205,0.227-0.59,0.227-1.143v-0.271H-12.016z"/>
		<path fill="#8E8378" d="M0.809,11.1h1.344v1.322c0.242-0.928,0.676-1.393,1.297-1.393c0.074,0,0.164,0.01,0.26,0.029v1.49
			c-0.111-0.016-0.197-0.023-0.254-0.023c-0.746,0-1.119,0.564-1.119,1.695v2.359H0.807L0.809,11.1L0.809,11.1z"/>
		<path fill="#8E8378" d="M17.848,11.1h0.84c-0.031,0.271-0.049,0.736-0.049,1.398v5.934h-1.502v-2.424
			c-0.285,0.43-0.66,0.645-1.125,0.645c-0.516,0-0.934-0.238-1.254-0.719c-0.32-0.479-0.48-1.148-0.48-2.01
			c0-1.033,0.168-1.775,0.506-2.225c0.338-0.451,0.787-0.676,1.342-0.676c0.547,0,0.98,0.262,1.301,0.787
			C17.594,11.63,17.734,11.395,17.848,11.1z M17.139,13.278c0-0.504-0.053-0.838-0.16-1.002c-0.105-0.162-0.268-0.242-0.482-0.242
			c-0.25,0-0.418,0.1-0.504,0.301c-0.09,0.199-0.133,0.656-0.133,1.373c0,0.801,0.047,1.314,0.141,1.543
			c0.094,0.227,0.258,0.342,0.5,0.342c0.199,0,0.355-0.094,0.469-0.279c0.113-0.188,0.17-0.598,0.17-1.227V13.278L17.139,13.278z"/>
		<path fill="#8E8378" d="M29.91,11.1h1.527v3.518c0,0.357,0.035,0.592,0.1,0.711c0.064,0.117,0.205,0.18,0.422,0.18
			c0.201,0,0.35-0.049,0.455-0.146c0.102-0.098,0.164-0.232,0.188-0.404c0.021-0.172,0.031-0.527,0.031-1.061v-2.795h1.531v5.477
			h-1.439v-0.748c-0.217,0.371-0.432,0.609-0.646,0.707c-0.217,0.104-0.473,0.152-0.762,0.152c-0.395,0-0.697-0.08-0.906-0.244
			c-0.211-0.162-0.344-0.369-0.406-0.619c-0.063-0.248-0.094-0.637-0.094-1.164V11.1L29.91,11.1z"/>
		<path fill="#8E8378" d="M46.992,10.653h-1.549V9.139h1.549V10.653z M45.453,11.1h1.531v5.477h-1.531V11.1z"/>
		<path fill="#8E8378" d="M58.504,9.419l1.488-0.049v1.73H61v1.205h-1.008v2.012c0,0.373,0.008,0.613,0.023,0.723
			c0.018,0.113,0.07,0.205,0.164,0.279c0.09,0.074,0.246,0.111,0.461,0.111c0.117,0,0.262-0.004,0.434-0.012v1.162
			c-0.34,0.074-0.648,0.113-0.932,0.113c-0.463,0-0.818-0.088-1.064-0.266c-0.242-0.178-0.402-0.4-0.469-0.668
			c-0.068-0.266-0.105-0.691-0.105-1.273v-2.18h-0.607v-1.205h0.607V9.419L58.504,9.419z"/>
		<path fill="#8E8378" d="M76.074,14.094h-2.871v0.301c0,0.488,0.066,0.816,0.199,0.982c0.135,0.166,0.309,0.25,0.523,0.25
			c0.467,0,0.727-0.311,0.787-0.934l1.361,0.086c-0.242,1.275-0.965,1.908-2.172,1.908c-0.742,0-1.309-0.25-1.695-0.752
			s-0.58-1.176-0.58-2.018c0-0.953,0.205-1.678,0.615-2.178s0.959-0.75,1.648-0.75c0.621,0,1.141,0.219,1.557,0.664
			C75.863,12.098,76.074,12.911,76.074,14.094z M74.629,13.21c0.004-0.063,0.006-0.115,0.006-0.15c0-0.705-0.238-1.057-0.713-1.057
			c-0.467,0-0.705,0.402-0.707,1.207H74.629z"/>
		<path fill="#8E8378" d="M91.229,13.118l-1.42,0.053c-0.023-0.336-0.074-0.59-0.164-0.762c-0.086-0.17-0.23-0.256-0.439-0.256
			c-0.514,0-0.771,0.537-0.771,1.615c0,0.627,0.063,1.063,0.189,1.313c0.123,0.25,0.307,0.375,0.553,0.375
			c0.385,0,0.594-0.34,0.629-1.014l1.422,0.092c-0.125,1.439-0.842,2.156-2.145,2.156c-0.705,0-1.242-0.236-1.617-0.711
			s-0.559-1.184-0.559-2.123c0-0.934,0.195-1.645,0.586-2.131c0.393-0.488,0.941-0.73,1.648-0.73
			C90.422,10.995,91.117,11.7,91.229,13.118z"/>
		<path fill="#8E8378" d="M102.461,9.419l1.484-0.049v1.73h1.01v1.205h-1.01v2.012c0,0.373,0.008,0.613,0.025,0.723
			c0.018,0.113,0.07,0.205,0.162,0.279s0.246,0.111,0.465,0.111c0.115,0,0.258-0.004,0.434-0.012v1.162
			c-0.34,0.074-0.65,0.113-0.934,0.113c-0.463,0-0.816-0.088-1.063-0.266s-0.402-0.4-0.471-0.668
			c-0.068-0.266-0.104-0.691-0.104-1.273v-2.18h-0.609v-1.205h0.609V9.419L102.461,9.419z"/>
		<path fill="#8E8378" d="M115.738,11.1h1.527v3.518c0,0.357,0.033,0.592,0.1,0.711c0.064,0.119,0.205,0.18,0.422,0.18
			c0.201,0,0.35-0.049,0.455-0.146c0.102-0.098,0.164-0.232,0.188-0.404c0.021-0.172,0.033-0.527,0.033-1.061v-2.795h1.529v5.477
			h-1.438v-0.748c-0.215,0.371-0.434,0.609-0.648,0.707c-0.213,0.104-0.469,0.152-0.762,0.152c-0.395,0-0.697-0.08-0.906-0.244
			c-0.207-0.162-0.344-0.369-0.406-0.619c-0.063-0.248-0.09-0.637-0.09-1.164V11.1H115.738z"/>
		<path fill="#8E8378" d="M131.283,11.1h1.346v1.322c0.242-0.928,0.674-1.393,1.297-1.393c0.074,0,0.16,0.01,0.258,0.029v1.49
			c-0.109-0.016-0.195-0.023-0.254-0.023c-0.746,0-1.117,0.564-1.117,1.695v2.359h-1.529V11.1L131.283,11.1z"/>
		<path fill="#8E8378" d="M146.383,12.841l-1.449-0.141c0.066-0.549,0.301-0.971,0.703-1.27c0.398-0.295,0.902-0.443,1.51-0.443
			c0.514,0,0.928,0.098,1.236,0.293c0.313,0.199,0.508,0.426,0.588,0.688c0.084,0.262,0.123,0.662,0.123,1.209v2.186
			c0,0.68,0.033,1.084,0.094,1.215h-1.422c-0.049-0.15-0.078-0.43-0.078-0.842c-0.332,0.635-0.832,0.955-1.496,0.955
			c-0.426,0-0.773-0.125-1.039-0.381c-0.27-0.254-0.402-0.627-0.402-1.115c0-0.611,0.203-1.084,0.605-1.418
			c0.406-0.334,1.141-0.535,2.211-0.6v-0.205c0-0.369-0.039-0.621-0.113-0.762c-0.074-0.139-0.215-0.209-0.43-0.209
			C146.637,12.001,146.422,12.28,146.383,12.841z M147.566,13.964c-0.445,0.051-0.764,0.148-0.953,0.295
			c-0.191,0.145-0.285,0.391-0.285,0.738c0,0.459,0.168,0.691,0.508,0.691c0.188,0,0.352-0.104,0.504-0.311
			c0.148-0.205,0.223-0.59,0.223-1.143v-0.271H147.566z"/>
	</g>
	<line fill="none" stroke="#8E8378" stroke-width="2" stroke-miterlimit="10" x1="-15.227" y1="6.739" x2="150" y2="6.739"/>
</g>
</svg>
