<?xml version="1.0" encoding="utf-8"?>
<!-- Generator: Adobe Illustrator 16.0.3, SVG Export Plug-In . SVG Version: 6.00 Build 0)  -->
<!DOCTYPE svg PUBLIC "-//W3C//DTD SVG 1.1//EN" "http://www.w3.org/Graphics/SVG/1.1/DTD/svg11.dtd">
<svg version="1.1" id="Layer_1" xmlns="http://www.w3.org/2000/svg" xmlns:xlink="http://www.w3.org/1999/xlink" x="0px" y="0px"
	 width="401.422px" height="78.821px" viewBox="94.915 381.79 401.422 78.821"
	 enable-background="new 94.915 381.79 401.422 78.821" xml:space="preserve">
<g enable-background="new    ">
	<path fill="#FFFFFF" d="M212.689,406.363c-0.875-0.926-3.549-1.954-6.275-1.954c-4.784,0-7.458,2.417-7.458,6.378
		c0,4.835,2.675,7.099,6.996,7.099c3.035,0,5.144-0.617,6.841-1.595h0.103v2.932c0,3.755-3.858,6.79-9.001,6.79
		c-8.59,0-14.711-5.813-14.711-14.659c0-8.076,5.606-15.021,15.585-15.021c4.475,0,8.179,2.933,8.179,6.584v3.446H212.689z"/>
	<path fill="#FFFFFF" d="M230.072,426.218c-9.156,0-14.145-4.476-14.145-13.528v-15.586h3.806c4.27,0,6.121,1.44,6.121,5.762v10.081
		c0,4.167,1.955,5.453,4.629,5.453c2.315,0,4.167-1.338,4.167-5.813v-15.483h3.806c3.91,0,6.07,1.646,6.07,5.762v10.081
		C244.526,422,238.765,426.218,230.072,426.218z"/>
	<path fill="#FFFFFF" d="M260.366,426.167c-5.453,0-12.088-2.572-12.088-9.002c0-6.274,4.526-9.464,14.814-9.464h1.389v-1.184
		c0-2.314-1.8-2.88-5.658-2.88c-5.298,0-7.252,1.234-9.259,3.086h-0.257v-3.446c0-3.498,3.652-6.995,11.728-6.995
		c7.818,0,12.911,3.96,12.911,12.293v4.372C273.945,423.235,270.653,426.167,260.366,426.167z M264.686,413.77h-1.955
		c-3.703,0-5.195,0.926-5.195,2.829c0,1.801,1.131,2.727,3.857,2.727c1.749,0,3.292-0.875,3.292-3.446V413.77z"/>
	<path fill="#FFFFFF" d="M281.607,392.115c1.286-0.977,3.035-1.903,5.092-1.903h1.029v6.893h8.282v3.446
		c0,2.418-2.572,4.27-4.784,4.27h-3.498v10.236c0,1.903,1.183,3.035,3.086,3.035c2.314,0,3.395-0.206,4.423-0.617h0.257v3.806
		c0,2.366-2.16,4.526-7.252,4.526c-4.835,0-10.03-2.314-10.03-10.081v-17.54C278.212,395.613,279.704,393.555,281.607,392.115z"/>
	<path fill="#FFFFFF" d="M315.708,404.409c-1.234-0.463-2.16-0.566-3.447-0.566c-2.365,0-4.217,1.184-4.217,4.63v16.923h-2.676
		c-4.217,0-6.789-1.955-6.789-6.687v-12.294c0-5.709,3.857-10.236,10.287-10.236c4.887,0,7.15,2.007,7.15,4.63v3.601H315.708z"/>
	<path fill="#FFFFFF" d="M332.475,396.333c7.716,0,14.659,5.864,14.659,14.608c0,9.259-5.606,15.226-15.379,15.226
		c-8.076,0-14.66-5.967-14.66-14.3C317.095,402.505,323.576,396.333,332.475,396.333z M331.857,404.048
		c-2.674,0-5.092,2.829-5.092,6.688c0,5.452,2.16,7.818,5.607,7.818c3.086,0,5.092-2.829,5.092-6.738
		C337.464,406.723,335.252,404.048,331.857,404.048z"/>
</g>
<g enable-background="new    ">
	<path fill="#E7511E" d="M364.671,425.806h-2.623c-3.241,0-4.784-1.543-6.43-4.114c-3.807-5.916-7.768-16.306-9.002-24.588h5.092
		c3.189,0,5.195,2.264,5.556,4.064c0.874,4.526,3.396,11.213,4.681,13.631c1.801-3.344,4.32-11.368,5.35-17.695h4.681
		c2.47,0,3.961,1.492,3.961,3.858c0,2.058-0.669,4.115-1.337,6.069C372.747,412.433,368.066,422.051,364.671,425.806z"/>
	<path fill="#E7511E" d="M383.546,395.51c-2.83,0-5.145-2.161-5.145-4.836c0-2.674,2.314-4.835,5.145-4.835
		c2.828,0,5.092,2.161,5.092,4.835C388.638,393.349,386.375,395.51,383.546,395.51z M388.175,425.806
		c-5.195,0-9.259-2.571-9.259-9.259v-18.568h2.417c5.556,0,7.355,1.595,7.355,6.738v10.391c0,2.521,1.184,3.292,3.91,3.292h1.183
		v2.88C393.782,424.675,391.21,425.806,388.175,425.806z"/>
	<path fill="#E7511E" d="M406.537,426.218c-7.715,0-10.493-2.829-10.493-6.944v-2.829h0.257c1.852,1.389,4.682,2.469,8.693,2.469
		c3.549,0,4.681-0.822,4.681-2.212c0-1.285-0.669-1.8-6.532-2.623c-5.092-0.72-7.768-3.034-7.768-7.562
		c0-6.789,6.43-10.235,12.911-10.235c6.275,0,10.081,2.521,10.081,6.738v2.932h-0.256c-1.904-1.389-4.887-2.366-8.693-2.366
		c-3.652,0-4.836,0.978-4.836,2.16c0,1.08,0.617,1.44,6.533,2.418c4.732,0.771,7.922,3.344,7.922,8.127
		C419.037,422.36,414.304,426.218,406.537,426.218z"/>
	<path fill="#E7511E" d="M426.441,392.115c1.285-0.977,3.035-1.903,5.092-1.903h1.029v6.893h8.281v3.446
		c0,2.418-2.572,4.27-4.783,4.27h-3.498v10.236c0,1.903,1.183,3.035,3.086,3.035c2.314,0,3.395-0.206,4.424-0.617h0.257v3.806
		c0,2.366-2.16,4.526-7.253,4.526c-4.835,0-10.029-2.314-10.029-10.081v-17.54C423.046,395.613,424.538,393.555,426.441,392.115z"/>
	<path fill="#E7511E" d="M454.626,426.167c-5.453,0-12.088-2.572-12.088-9.002c0-6.274,4.526-9.464,14.814-9.464h1.389v-1.184
		c0-2.314-1.801-2.88-5.658-2.88c-5.299,0-7.253,1.234-9.26,3.086h-0.256v-3.446c0-3.498,3.651-6.995,11.727-6.995
		c7.818,0,12.911,3.96,12.911,12.293v4.372C468.206,423.235,464.914,426.167,454.626,426.167z M458.947,413.77h-1.955
		c-3.703,0-5.194,0.926-5.194,2.829c0,1.801,1.132,2.727,3.857,2.727c1.749,0,3.292-0.875,3.292-3.446V413.77z"/>
	<path fill="#E7511E" d="M482.76,426.218c-7.716,0-10.493-2.829-10.493-6.944v-2.829h0.258c1.852,1.389,4.68,2.469,8.692,2.469
		c3.55,0,4.681-0.822,4.681-2.212c0-1.285-0.668-1.8-6.532-2.623c-5.093-0.72-7.767-3.034-7.767-7.562
		c0-6.789,6.43-10.235,12.91-10.235c6.275,0,10.082,2.521,10.082,6.738v2.932h-0.258c-1.902-1.389-4.887-2.366-8.692-2.366
		c-3.652,0-4.835,0.978-4.835,2.16c0,1.08,0.617,1.44,6.532,2.418c4.732,0.771,7.921,3.344,7.921,8.127
		C495.259,422.36,490.527,426.218,482.76,426.218z"/>
</g>
<path fill="#E7511E" d="M173.601,424.267c-0.006,0-0.012,0.002-0.019,0.002c0.077-1.018,0.155-2.031,0.155-3.067
	c0-21.733-17.681-39.412-39.412-39.412c-21.73,0-39.41,17.679-39.41,39.412c0,21.727,17.679,39.409,39.41,39.409
	c9.068,0,17.405-3.109,24.07-8.273c3.246,4.973,8.84,8.273,15.206,8.273c10.02,0,18.171-8.152,18.171-18.172
	C191.772,432.417,183.621,424.267,173.601,424.267z"/>
<path fill="#FFFFFF" d="M165.163,417.688c0,17.029-13.806,30.837-30.838,30.837c-17.032,0-30.838-13.809-30.838-30.837
	c0-17.034,13.806-30.84,30.838-30.84C151.357,386.847,165.163,400.653,165.163,417.688z"/>
<circle fill="#FFFFFF" cx="173.6" cy="438.926" r="9.601"/>
<g enable-background="new    ">
	<path fill="#FFFFFF" d="M201.404,435.785h3.995c0.937,0,1.797,0.151,2.58,0.454c0.783,0.303,1.457,0.723,2.023,1.26
		c0.566,0.538,1.003,1.169,1.312,1.895c0.309,0.727,0.463,1.512,0.463,2.357v0.034c0,0.847-0.154,1.635-0.463,2.366
		s-0.746,1.366-1.312,1.903s-1.24,0.96-2.023,1.269c-0.783,0.309-1.643,0.463-2.58,0.463h-3.995V435.785z M205.399,446.98
		c0.834,0,1.588-0.135,2.263-0.404s1.246-0.637,1.715-1.101c0.468-0.465,0.831-1.01,1.088-1.634
		c0.257-0.625,0.386-1.299,0.386-2.021v-0.035c0-0.711-0.128-1.381-0.386-2.012s-0.62-1.182-1.088-1.651
		c-0.469-0.471-1.041-0.843-1.715-1.118s-1.429-0.413-2.263-0.413h-3.104v10.39H205.399z"/>
	<path fill="#FFFFFF" d="M218.806,435.785h8.538v0.806h-7.646v4.749h6.875v0.806h-6.875v4.835h7.732v0.806h-8.624V435.785z"/>
	<path fill="#FFFFFF" d="M238.35,447.958c-0.96,0-1.826-0.16-2.597-0.48s-1.518-0.8-2.237-1.44l0.583-0.668
		c0.332,0.309,0.66,0.574,0.986,0.797s0.66,0.406,1.003,0.549c0.343,0.143,0.703,0.251,1.08,0.325
		c0.377,0.075,0.789,0.111,1.234,0.111c0.446,0,0.857-0.06,1.234-0.18c0.377-0.12,0.697-0.285,0.96-0.497
		c0.263-0.211,0.468-0.463,0.617-0.754c0.148-0.292,0.223-0.609,0.223-0.952v-0.034c0-0.319-0.049-0.605-0.146-0.857
		c-0.097-0.251-0.274-0.479-0.532-0.686c-0.257-0.206-0.603-0.392-1.037-0.558c-0.435-0.165-0.994-0.316-1.68-0.454
		c-0.72-0.148-1.337-0.322-1.852-0.522s-0.935-0.435-1.26-0.703s-0.563-0.58-0.711-0.935c-0.148-0.354-0.223-0.76-0.223-1.217
		v-0.034c0-0.446,0.097-0.86,0.292-1.243c0.194-0.383,0.463-0.718,0.806-1.003c0.343-0.286,0.749-0.509,1.217-0.669
		c0.468-0.16,0.983-0.24,1.543-0.24c0.868,0,1.62,0.12,2.254,0.36s1.254,0.605,1.86,1.098l-0.566,0.702
		c-0.572-0.491-1.146-0.84-1.723-1.046c-0.577-0.205-1.197-0.309-1.86-0.309c-0.446,0-0.849,0.061-1.209,0.181
		c-0.36,0.12-0.668,0.282-0.926,0.488c-0.257,0.206-0.454,0.446-0.591,0.72c-0.137,0.274-0.206,0.566-0.206,0.875v0.034
		c0,0.32,0.048,0.608,0.146,0.866c0.097,0.257,0.274,0.491,0.531,0.702c0.257,0.212,0.614,0.403,1.072,0.574
		c0.457,0.172,1.04,0.332,1.749,0.48c1.395,0.286,2.4,0.688,3.018,1.209c0.617,0.52,0.926,1.22,0.926,2.1v0.034
		c0,0.48-0.1,0.924-0.3,1.329c-0.2,0.406-0.475,0.752-0.823,1.037c-0.349,0.286-0.766,0.509-1.251,0.669
		S238.933,447.958,238.35,447.958z"/>
	<path fill="#FFFFFF" d="M253.814,435.699h0.857l5.589,12.087h-0.977l-1.526-3.36h-7.081l-1.526,3.36h-0.926L253.814,435.699z
		 M257.381,443.62l-3.155-6.943l-3.172,6.943H257.381z"/>
	<path fill="#FFFFFF" d="M266.793,435.785h5.04c0.743,0,1.4,0.105,1.972,0.317c0.572,0.211,1.04,0.5,1.406,0.865
		c0.286,0.286,0.509,0.62,0.669,1.003c0.16,0.384,0.24,0.792,0.24,1.227v0.034c0,0.503-0.088,0.951-0.266,1.346
		s-0.423,0.734-0.737,1.02c-0.314,0.286-0.686,0.518-1.114,0.694c-0.429,0.178-0.895,0.301-1.397,0.369l3.96,5.126h-1.131
		l-3.823-4.972h-0.034h-3.892v4.972h-0.891V435.785z M271.73,442.008c0.503,0,0.969-0.063,1.397-0.189
		c0.429-0.126,0.797-0.307,1.106-0.542c0.309-0.234,0.551-0.521,0.729-0.859c0.177-0.339,0.266-0.726,0.266-1.161v-0.034
		c0-0.814-0.3-1.456-0.9-1.927c-0.6-0.47-1.449-0.705-2.546-0.705h-4.098v5.418H271.73z"/>
	<path fill="#FFFFFF" d="M283.183,435.785h5.04c0.743,0,1.4,0.105,1.972,0.317c0.572,0.211,1.04,0.5,1.406,0.865
		c0.286,0.286,0.509,0.62,0.669,1.003c0.16,0.384,0.24,0.792,0.24,1.227v0.034c0,0.503-0.088,0.951-0.266,1.346
		s-0.423,0.734-0.737,1.02c-0.314,0.286-0.686,0.518-1.114,0.694c-0.429,0.178-0.895,0.301-1.397,0.369l3.96,5.126h-1.131
		L288,442.814h-0.034h-3.892v4.972h-0.891V435.785z M288.12,442.008c0.503,0,0.969-0.063,1.397-0.189
		c0.429-0.126,0.797-0.307,1.106-0.542c0.309-0.234,0.551-0.521,0.729-0.859c0.177-0.339,0.266-0.726,0.266-1.161v-0.034
		c0-0.814-0.3-1.456-0.9-1.927c-0.6-0.47-1.449-0.705-2.546-0.705h-4.098v5.418H288.12z"/>
	<path fill="#FFFFFF" d="M305.058,447.992c-0.914,0-1.739-0.169-2.477-0.506s-1.369-0.789-1.895-1.354s-0.932-1.22-1.217-1.963
		c-0.286-0.743-0.43-1.526-0.43-2.349v-0.035c0-0.822,0.146-1.608,0.438-2.356c0.291-0.749,0.7-1.409,1.227-1.98
		c0.525-0.571,1.16-1.026,1.902-1.363c0.743-0.337,1.572-0.506,2.486-0.506c0.902,0,1.726,0.169,2.469,0.506
		c0.742,0.337,1.377,0.789,1.902,1.354s0.932,1.221,1.218,1.963c0.286,0.743,0.429,1.526,0.429,2.349
		c0.012,0.012,0.012,0.023,0,0.034c0,0.823-0.146,1.609-0.438,2.357c-0.291,0.749-0.7,1.409-1.226,1.98
		c-0.526,0.571-1.163,1.026-1.911,1.363C306.788,447.823,305.961,447.992,305.058,447.992z M305.093,447.186
		c0.742,0,1.426-0.141,2.049-0.421c0.623-0.279,1.16-0.662,1.611-1.148c0.451-0.485,0.803-1.055,1.055-1.706
		c0.251-0.651,0.377-1.349,0.377-2.091v-0.035c0-0.742-0.129-1.442-0.386-2.1s-0.612-1.229-1.063-1.715
		c-0.451-0.485-0.991-0.871-1.619-1.157c-0.629-0.285-1.314-0.429-2.059-0.429c-0.742,0-1.426,0.141-2.048,0.42
		c-0.624,0.28-1.161,0.663-1.612,1.149c-0.451,0.485-0.803,1.054-1.054,1.706c-0.252,0.651-0.378,1.349-0.378,2.091v0.034
		c0,0.743,0.129,1.443,0.387,2.101c0.257,0.657,0.611,1.229,1.063,1.715c0.451,0.485,0.992,0.871,1.62,1.157
		C303.664,447.042,304.35,447.186,305.093,447.186z"/>
	<path fill="#FFFFFF" d="M318.14,435.785h0.891v11.195h7.047v0.806h-7.938V435.785z"/>
	<path fill="#FFFFFF" d="M332.747,435.785h0.892v11.195h7.046v0.806h-7.938V435.785z"/>
	<path fill="#FFFFFF" d="M352.839,447.992c-0.914,0-1.74-0.169-2.477-0.506c-0.738-0.337-1.369-0.789-1.895-1.354
		c-0.526-0.565-0.932-1.22-1.218-1.963s-0.429-1.526-0.429-2.349v-0.035c0-0.822,0.146-1.608,0.438-2.356
		c0.291-0.749,0.699-1.409,1.226-1.98c0.525-0.571,1.16-1.026,1.903-1.363c0.742-0.337,1.571-0.506,2.486-0.506
		c0.902,0,1.725,0.169,2.469,0.506c0.742,0.337,1.377,0.789,1.902,1.354s0.932,1.221,1.217,1.963c0.286,0.743,0.43,1.526,0.43,2.349
		c0.011,0.012,0.011,0.023,0,0.034c0,0.823-0.146,1.609-0.438,2.357c-0.291,0.749-0.701,1.409-1.227,1.98s-1.162,1.026-1.911,1.363
		S353.742,447.992,352.839,447.992z M352.875,447.186c0.742,0,1.425-0.141,2.048-0.421c0.623-0.279,1.16-0.662,1.612-1.148
		c0.451-0.485,0.803-1.055,1.054-1.706s0.378-1.349,0.378-2.091v-0.035c0-0.742-0.129-1.442-0.387-2.1
		c-0.257-0.657-0.611-1.229-1.063-1.715c-0.451-0.485-0.992-0.871-1.62-1.157c-0.629-0.285-1.314-0.429-2.058-0.429
		s-1.426,0.141-2.049,0.42c-0.623,0.28-1.16,0.663-1.611,1.149c-0.451,0.485-0.803,1.054-1.055,1.706
		c-0.252,0.651-0.377,1.349-0.377,2.091v0.034c0,0.743,0.129,1.443,0.386,2.101s0.611,1.229,1.063,1.715
		c0.451,0.485,0.991,0.871,1.619,1.157C351.445,447.042,352.13,447.186,352.875,447.186z"/>
	<path fill="#FFFFFF" d="M375.058,435.785h3.995c0.937,0,1.797,0.151,2.58,0.454c0.782,0.303,1.457,0.723,2.022,1.26
		c0.566,0.538,1.004,1.169,1.313,1.895c0.309,0.727,0.463,1.512,0.463,2.357v0.034c0,0.847-0.154,1.635-0.463,2.366
		s-0.746,1.366-1.313,1.903c-0.565,0.537-1.24,0.96-2.022,1.269c-0.783,0.309-1.644,0.463-2.58,0.463h-3.995V435.785z
		 M379.053,446.98c0.834,0,1.589-0.135,2.263-0.404s1.246-0.637,1.715-1.101c0.469-0.465,0.831-1.01,1.088-1.634
		c0.258-0.625,0.387-1.299,0.387-2.021v-0.035c0-0.711-0.129-1.381-0.387-2.012c-0.257-0.631-0.619-1.182-1.088-1.651
		c-0.469-0.471-1.041-0.843-1.715-1.118s-1.429-0.413-2.263-0.413h-3.104v10.39H379.053z"/>
	<path fill="#FFFFFF" d="M392.46,435.785h8.537v0.806h-7.646v4.749h6.875v0.806h-6.875v4.835h7.732v0.806h-8.623V435.785z"/>
	<path fill="#FFFFFF" d="M417.199,435.785h0.892v12.001h-0.892V435.785z"/>
	<path fill="#FFFFFF" d="M425.771,435.785h3.994c0.938,0,1.797,0.151,2.58,0.454s1.457,0.723,2.023,1.26
		c0.566,0.538,1.003,1.169,1.312,1.895c0.309,0.727,0.463,1.512,0.463,2.357v0.034c0,0.847-0.154,1.635-0.463,2.366
		s-0.745,1.366-1.312,1.903s-1.24,0.96-2.023,1.269s-1.643,0.463-2.58,0.463h-3.994V435.785z M429.765,446.98
		c0.834,0,1.589-0.135,2.264-0.404c0.674-0.27,1.245-0.637,1.715-1.101c0.468-0.465,0.83-1.01,1.088-1.634
		c0.258-0.625,0.386-1.299,0.386-2.021v-0.035c0-0.711-0.128-1.381-0.386-2.012s-0.62-1.182-1.088-1.651
		c-0.47-0.471-1.041-0.843-1.715-1.118c-0.675-0.275-1.43-0.413-2.264-0.413h-3.104v10.39H429.765z"/>
	<path fill="#FFFFFF" d="M443.172,435.785h8.538v0.806h-7.646v4.749h6.875v0.806h-6.875v4.835h7.732v0.806h-8.624V435.785z"/>
	<path fill="#FFFFFF" d="M463.214,435.699h0.857l5.588,12.087h-0.977l-1.525-3.36h-7.081l-1.526,3.36h-0.926L463.214,435.699z
		 M466.781,443.62l-3.155-6.943l-3.172,6.943H466.781z"/>
	<path fill="#FFFFFF" d="M480.255,447.958c-0.96,0-1.826-0.16-2.598-0.48s-1.518-0.8-2.236-1.44l0.582-0.668
		c0.332,0.309,0.66,0.574,0.986,0.797c0.325,0.223,0.66,0.406,1.002,0.549c0.344,0.143,0.703,0.251,1.08,0.325
		c0.378,0.075,0.789,0.111,1.234,0.111c0.446,0,0.857-0.06,1.234-0.18c0.378-0.12,0.697-0.285,0.961-0.497
		c0.263-0.211,0.469-0.463,0.617-0.754c0.148-0.292,0.223-0.609,0.223-0.952v-0.034c0-0.319-0.049-0.605-0.146-0.857
		c-0.097-0.251-0.274-0.479-0.532-0.686c-0.256-0.206-0.603-0.392-1.037-0.558c-0.434-0.165-0.994-0.316-1.68-0.454
		c-0.721-0.148-1.338-0.322-1.852-0.522s-0.935-0.435-1.26-0.703c-0.326-0.269-0.563-0.58-0.712-0.935
		c-0.148-0.354-0.223-0.76-0.223-1.217v-0.034c0-0.446,0.097-0.86,0.292-1.243c0.193-0.383,0.463-0.718,0.805-1.003
		c0.344-0.286,0.749-0.509,1.218-0.669c0.468-0.16,0.983-0.24,1.543-0.24c0.868,0,1.62,0.12,2.255,0.36
		c0.634,0.24,1.254,0.605,1.859,1.098l-0.565,0.702c-0.571-0.491-1.146-0.84-1.724-1.046c-0.576-0.205-1.197-0.309-1.859-0.309
		c-0.445,0-0.849,0.061-1.209,0.181c-0.359,0.12-0.668,0.282-0.926,0.488c-0.257,0.206-0.454,0.446-0.592,0.72
		c-0.137,0.274-0.205,0.566-0.205,0.875v0.034c0,0.32,0.049,0.608,0.146,0.866c0.097,0.257,0.274,0.491,0.531,0.702
		c0.257,0.212,0.614,0.403,1.071,0.574c0.457,0.172,1.041,0.332,1.749,0.48c1.395,0.286,2.4,0.688,3.018,1.209
		c0.617,0.52,0.926,1.22,0.926,2.1v0.034c0,0.48-0.101,0.924-0.3,1.329c-0.2,0.406-0.475,0.752-0.823,1.037
		c-0.349,0.286-0.766,0.509-1.251,0.669C481.373,447.877,480.838,447.958,480.255,447.958z"/>
</g>
</svg>
