<?xml version="1.0" encoding="utf-8"?>
<!-- Generator: Adobe Illustrator 16.0.0, SVG Export Plug-In . SVG Version: 6.00 Build 0)  -->
<!DOCTYPE svg PUBLIC "-//W3C//DTD SVG 1.1//EN" "http://www.w3.org/Graphics/SVG/1.1/DTD/svg11.dtd">
<svg version="1.1" id="Capa_1" xmlns="http://www.w3.org/2000/svg" xmlns:xlink="http://www.w3.org/1999/xlink" x="0px" y="0px"
	 width="100px" height="37.318px" viewBox="0 0 100 37.318" enable-background="new 0 0 100 37.318" xml:space="preserve">
<g>
	<g>
		<path fill="#002D51" d="M6.102,17.396c6.237,0,11.294-5.056,11.294-11.294V0.229c0-0.077-0.01-0.152-0.011-0.229
			C8.069,0.627,0.627,8.07,0,17.385c0.077,0.001,0.151,0.012,0.229,0.012H6.102z"/>
		<path fill="#002D51" d="M19.933,0c-0.002,0.078-0.012,0.152-0.012,0.229v5.873c0,6.238,5.057,11.294,11.294,11.294h5.874
			c0.077,0,0.152-0.01,0.229-0.012C36.69,8.069,29.247,0.627,19.933,0z"/>
		<path fill="#002D51" d="M17.396,31.216c0-6.237-5.057-11.294-11.294-11.294H0.229c-0.077,0-0.152,0.01-0.229,0.012
			c0.627,9.314,8.069,16.758,17.385,17.385c0.001-0.077,0.011-0.152,0.011-0.229V31.216z"/>
		<path fill="#002D51" d="M31.215,19.922c-6.237,0-11.294,5.057-11.294,11.294v5.873c0,0.077,0.01,0.152,0.012,0.229
			c9.314-0.627,16.757-8.069,17.385-17.385c-0.077-0.001-0.152-0.012-0.229-0.012H31.215z"/>
	</g>
	<g>
		<path fill="#002D51" d="M41.896,3.043h25.392v7.455H50.526v4.789h15.181V22.2H50.526v5.015h16.988v7.455H41.896V3.043z"/>
		<path fill="#002D51" d="M86.265,35.303c-2.471,0-4.752-0.399-6.846-1.197c-2.093-0.798-3.907-1.921-5.443-3.366
			s-2.741-3.17-3.615-5.174c-0.873-2.002-1.311-4.208-1.311-6.618v-0.09c0-2.289,0.429-4.435,1.282-6.438
			c0.854-2.003,2.03-3.75,3.528-5.241c1.499-1.491,3.293-2.658,5.384-3.501c2.09-0.843,4.354-1.265,6.794-1.265
			c2.802,0,5.22,0.407,7.252,1.22c2.034,0.813,3.893,1.943,5.581,3.389l-5.151,6.189c-1.146-0.964-2.313-1.701-3.502-2.214
			c-1.189-0.512-2.567-0.769-4.134-0.769c-1.146,0-2.207,0.227-3.186,0.678c-0.979,0.452-1.829,1.07-2.553,1.852
			c-0.723,0.784-1.296,1.702-1.717,2.757c-0.422,1.054-0.633,2.184-0.633,3.388v0.09c0,1.266,0.212,2.439,0.635,3.524
			s1.02,2.011,1.791,2.778s1.677,1.371,2.72,1.808c1.042,0.437,2.198,0.655,3.468,0.655c2.055,0,3.747-0.437,5.078-1.311v-3.84
			h-6.235v-6.417H100v14.232c-1.688,1.387-3.676,2.546-5.965,3.479C91.747,34.836,89.156,35.303,86.265,35.303z"/>
	</g>
</g>
</svg>
