<?xml version="1.0" encoding="utf-8"?>
<!-- Generator: Adobe Illustrator 16.0.0, SVG Export Plug-In . SVG Version: 6.00 Build 0)  -->
<!DOCTYPE svg PUBLIC "-//W3C//DTD SVG 1.1//EN" "http://www.w3.org/Graphics/SVG/1.1/DTD/svg11.dtd">
<svg version="1.1" id="Capa_1" xmlns="http://www.w3.org/2000/svg" xmlns:xlink="http://www.w3.org/1999/xlink" x="0px" y="0px"
	 width="165px" height="51.791px" viewBox="-7.5 -2.354 165 51.791" enable-background="new -7.5 -2.354 165 51.791"
	 xml:space="preserve">
<g>
	<path fill="#1F90BA" d="M12.391,5.554c0,5.007,2.271,7.691,5.423,9.817c3.551-3.725,8.896-6.548,18.429-6.548
		c1.26,0,2.465,0.062,3.624,0.176C35.419,2.439,28.04-1.969,19.61-2.354h-0.667C14.635-2.354,12.391,0.521,12.391,5.554"/>
	<path fill="#C7E1EF" d="M21.995,33.061c-3.442,5.147-8.755,9.702-20.862,9.768c4.586,4.105,10.638,6.608,17.278,6.608
		c2.549,0,5.011-0.376,7.337-1.063c0.88-1.374,1.362-3.218,1.362-5.575C27.109,37.925,24.985,35.201,21.995,33.061"/>
	<path fill="#81BCD2" d="M10.83,26.218c-4.478-3.534-8.131-8.955-8.131-19.8c0-1.258,0.061-2.471,0.177-3.63
		C-3.424,7.515-7.5,15.041-7.5,23.525c0,2.78,0.443,5.459,1.256,7.968c1.412,1.12,3.432,1.737,6.106,1.737
		C5.717,33.233,8.473,30.169,10.83,26.218"/>
	<path fill="#15769F" d="M37.106,18.515c-3.914,0-6.41,1.387-8.325,3.499c4.382,3.515,7.929,8.961,7.929,19.776
		c0,0.025,0,0.052,0,0.077c4.703-4.692,7.612-11.177,7.612-18.343c0-0.595-0.028-1.186-0.068-1.771
		C43.091,19.616,40.628,18.515,37.106,18.515"/>
	<g>
		<path fill="#1F90BA" d="M54.86,27.844h0.564v6.141H54.86V27.844z"/>
		<path fill="#1F90BA" d="M56.702,29.62h0.539v0.614c0.307-0.333,0.839-0.707,1.403-0.707c0.723,0,1.079,0.417,1.079,1.212v3.246
			h-0.54v-3.153c0-0.557-0.182-0.83-0.68-0.83c-0.448,0-0.912,0.331-1.262,0.682v3.302h-0.539V29.62z"/>
		<path fill="#1F90BA" d="M60.443,33.155l0.397-0.257c0.281,0.464,0.696,0.713,1.178,0.713c0.606,0,0.938-0.281,0.938-0.713
			c0-1.146-2.292-0.712-2.292-2.241c0-0.647,0.53-1.129,1.318-1.129c0.665,0,1.114,0.317,1.402,0.805l-0.396,0.267
			c-0.217-0.376-0.531-0.614-1.003-0.614c-0.539,0-0.789,0.29-0.789,0.648c0,1.154,2.274,0.671,2.274,2.247
			c0,0.723-0.639,1.187-1.461,1.187C61.279,34.067,60.773,33.729,60.443,33.155z"/>
		<path fill="#1F90BA" d="M64.316,32.866v-3.245h0.54v3.15c0,0.557,0.191,0.829,0.698,0.829c0.448,0,0.854-0.281,1.252-0.688v-3.294
			h0.54v4.365h-0.54v-0.622c-0.357,0.374-0.838,0.716-1.402,0.716C64.681,34.077,64.316,33.663,64.316,32.866z"/>
		<path fill="#1F90BA" d="M68.463,29.62h0.54v0.614c0.341-0.356,0.804-0.707,1.352-0.707c0.597,0,0.889,0.266,0.997,0.714
			c0.356-0.373,0.835-0.714,1.394-0.714c0.715,0,1.054,0.417,1.054,1.212v3.246H73.26v-3.153c0-0.557-0.175-0.83-0.663-0.83
			c-0.433,0-0.83,0.292-1.195,0.664v3.32h-0.539v-3.153c0-0.557-0.148-0.829-0.654-0.829c-0.406,0-0.805,0.283-1.204,0.681v3.302
			h-0.539L68.463,29.62L68.463,29.62z"/>
	</g>
	<g>
		<path fill="#1F90BA" d="M74.667,31.802c0-1.477,0.713-2.274,1.686-2.274c0.96,0,1.675,0.799,1.675,2.274
			c0,1.463-0.715,2.274-1.675,2.274C75.388,34.077,74.667,33.263,74.667,31.802z M77.479,31.793c0-0.971-0.349-1.792-1.128-1.792
			c-0.757,0-1.137,0.748-1.137,1.792c0,0.987,0.34,1.817,1.137,1.817C77.098,33.609,77.479,32.866,77.479,31.793z"/>
	</g>
	<g>
		<path fill="#1F90BA" d="M78.515,33.155l0.399-0.257c0.282,0.464,0.696,0.713,1.177,0.713c0.609,0,0.938-0.281,0.938-0.713
			c0-1.146-2.29-0.712-2.29-2.241c0-0.647,0.53-1.129,1.321-1.129c0.662,0,1.11,0.317,1.4,0.805l-0.397,0.267
			c-0.215-0.376-0.53-0.614-1.003-0.614c-0.539,0-0.79,0.29-0.79,0.648c0,1.154,2.272,0.671,2.272,2.247
			c0,0.723-0.637,1.187-1.46,1.187C79.354,34.067,78.848,33.729,78.515,33.155z"/>
		<path fill="#1F90BA" d="M84.868,27.844h0.7l1.659,5.342h0.017l1.634-5.342h0.704v6.141h-0.547v-5.188h-0.018
			c-0.082,0.381-0.273,1.02-0.446,1.567l-1.134,3.618h-0.458l-1.134-3.634c-0.168-0.522-0.349-1.154-0.448-1.552h-0.017v5.188
			h-0.509v-6.142H84.868z"/>
		<path fill="#1F90BA" d="M90.594,31.793c0-1.542,0.771-2.267,1.641-2.267c0.964,0,1.52,0.799,1.52,2.225v0.125h-2.621
			c0.023,1.12,0.446,1.733,1.119,1.733c0.53,0,0.805-0.321,1.046-0.848l0.406,0.224c-0.299,0.675-0.801,1.089-1.486,1.089
			C91.292,34.077,90.594,33.296,90.594,31.793z M93.215,31.439c-0.039-0.831-0.34-1.444-0.988-1.444
			c-0.522,0-1.003,0.445-1.086,1.444H93.215z M92.542,27.87h0.688l-0.995,1.276h-0.363L92.542,27.87z"/>
		<path fill="#1F90BA" d="M94.45,31.802c0-1.584,0.672-2.274,1.527-2.274c0.509,0,0.904,0.268,1.195,0.641v-2.322h0.54v5.061
			c0,0.531,0.024,0.855,0.107,1.079h-0.566c-0.039-0.15-0.081-0.424-0.081-0.572c-0.28,0.33-0.665,0.646-1.222,0.646
			C95.097,34.06,94.45,33.388,94.45,31.802z M97.172,32.956v-2.301c-0.342-0.403-0.702-0.653-1.119-0.653
			c-0.615,0-1.055,0.54-1.055,1.8c0,1.245,0.445,1.784,1.067,1.784C96.498,33.587,96.856,33.313,97.172,32.956z"/>
		<path fill="#1F90BA" d="M98.854,28.028h0.556v0.638h-0.556V28.028z M98.862,29.62h0.54v4.365h-0.54V29.62z"/>
	</g>
	<g>
		<path fill="#1F90BA" d="M100.355,31.802c0-1.548,0.755-2.274,1.659-2.274c0.84,0,1.203,0.59,1.409,1.263l-0.498,0.141
			c-0.166-0.548-0.406-0.928-0.93-0.928c-0.579,0-1.093,0.548-1.093,1.791c0,1.105,0.415,1.812,1.093,1.812
			c0.508,0,0.805-0.308,0.98-0.938l0.482,0.142c-0.248,0.812-0.748,1.27-1.485,1.27C101.061,34.077,100.355,33.263,100.355,31.802z"
			/>
	</g>
	<g>
		<path fill="#1F90BA" d="M104.038,31.802c0-1.477,0.716-2.274,1.685-2.274c0.965,0,1.677,0.799,1.677,2.274
			c0,1.463-0.712,2.274-1.677,2.274C104.76,34.077,104.038,33.263,104.038,31.802z M106.853,31.793c0-0.971-0.35-1.792-1.13-1.792
			c-0.755,0-1.135,0.748-1.135,1.792c0,0.987,0.339,1.817,1.135,1.817C106.468,33.609,106.853,32.866,106.853,31.793z"/>
	</g>
	<g>
		<path fill="#1F90BA" d="M107.882,33.155l0.396-0.257c0.281,0.464,0.696,0.713,1.177,0.713c0.606,0,0.938-0.281,0.938-0.713
			c0-1.146-2.292-0.712-2.292-2.241c0-0.647,0.532-1.129,1.321-1.129c0.665,0,1.114,0.317,1.404,0.805l-0.398,0.267
			c-0.218-0.376-0.532-0.614-1.006-0.614c-0.538,0-0.787,0.29-0.787,0.648c0,1.154,2.275,0.671,2.275,2.247
			c0,0.723-0.639,1.187-1.463,1.187C108.718,34.067,108.211,33.729,107.882,33.155z"/>
	</g>
	<g>
		<path fill="#1F90BA" d="M114.232,27.844h1.286c1.718,0,2.562,0.953,2.562,3.062c0,2.107-0.867,3.077-2.562,3.077h-1.286V27.844z
			 M115.608,33.469c1.279,0,1.902-0.779,1.902-2.563c0-1.742-0.622-2.541-1.911-2.541h-0.802v5.104H115.608L115.608,33.469z"/>
	</g>
	<g>
		<path fill="#1F90BA" d="M118.787,31.793c0-1.542,0.771-2.267,1.642-2.267c0.963,0,1.519,0.799,1.519,2.225v0.125h-2.623
			c0.026,1.12,0.448,1.733,1.122,1.733c0.528,0,0.802-0.321,1.044-0.848l0.408,0.224c-0.301,0.675-0.804,1.089-1.484,1.089
			C119.481,34.077,118.787,33.296,118.787,31.793z M121.408,31.439c-0.041-0.831-0.342-1.444-0.988-1.444
			c-0.521,0-1.003,0.445-1.087,1.444H121.408z"/>
	</g>
	<g>
		<path fill="#1F90BA" d="M122.427,33.155l0.397-0.257c0.283,0.464,0.698,0.713,1.179,0.713c0.606,0,0.938-0.281,0.938-0.713
			c0-1.146-2.29-0.712-2.29-2.241c0-0.647,0.529-1.129,1.321-1.129c0.66,0,1.11,0.317,1.4,0.805l-0.397,0.267
			c-0.215-0.376-0.53-0.614-1.003-0.614c-0.539,0-0.79,0.29-0.79,0.648c0,1.154,2.274,0.671,2.274,2.247
			c0,0.723-0.642,1.187-1.46,1.187C123.265,34.067,122.757,33.729,122.427,33.155z"/>
	</g>
	<g>
		<path fill="#1F90BA" d="M126.077,31.802c0-1.548,0.755-2.274,1.66-2.274c0.841,0,1.204,0.59,1.41,1.263l-0.499,0.141
			c-0.166-0.548-0.406-0.928-0.929-0.928c-0.584,0-1.095,0.548-1.095,1.791c0,1.105,0.412,1.812,1.095,1.812
			c0.506,0,0.802-0.308,0.979-0.938l0.479,0.142c-0.245,0.812-0.745,1.27-1.483,1.27C126.781,34.077,126.077,33.263,126.077,31.802z
			"/>
	</g>
	<g>
		<path fill="#1F90BA" d="M129.735,32.964c0-0.848,0.688-1.495,2.456-1.859v-0.298c0-0.539-0.234-0.804-0.698-0.804
			c-0.559,0-0.98,0.29-1.318,0.631l-0.323-0.324c0.445-0.472,0.997-0.78,1.683-0.78c0.822,0,1.19,0.467,1.19,1.28v2.095
			c0,0.53,0.031,0.856,0.104,1.08h-0.546c-0.049-0.176-0.092-0.324-0.092-0.575c-0.383,0.397-0.856,0.634-1.42,0.634
			C130.107,34.043,129.735,33.626,129.735,32.964z M132.191,32.964v-1.445c-1.484,0.317-1.926,0.83-1.926,1.386
			c0,0.474,0.241,0.689,0.654,0.689C131.403,33.594,131.858,33.336,132.191,32.964z"/>
	</g>
	<g>
		<path fill="#1F90BA" d="M133.824,29.62h0.537v0.782h0.018c0.266-0.474,0.73-0.873,1.426-0.873h0.093l-0.05,0.508h-0.142
			c-0.586,0-1.076,0.397-1.345,0.989v2.96h-0.537V29.62z"/>
	</g>
	<g>
		<path fill="#1F90BA" d="M136.895,33.031v-2.954h-0.649v-0.455h0.649v-1.578h0.538v1.578h0.97v0.455h-0.97v2.846
			c0,0.448,0.115,0.665,0.59,0.665c0.139,0,0.288-0.025,0.38-0.059v0.456c-0.109,0.032-0.299,0.059-0.471,0.059
			C137.197,34.043,136.895,33.77,136.895,33.031z"/>
	</g>
	<g>
		<path fill="#1F90BA" d="M138.992,32.964c0-0.848,0.688-1.495,2.456-1.859v-0.298c0-0.539-0.235-0.804-0.699-0.804
			c-0.555,0-0.979,0.29-1.319,0.631l-0.322-0.324c0.446-0.472,0.994-0.78,1.685-0.78c0.822,0,1.186,0.467,1.186,1.28v2.095
			c0,0.53,0.033,0.856,0.109,1.08h-0.55c-0.05-0.176-0.089-0.324-0.089-0.575c-0.382,0.397-0.857,0.634-1.419,0.634
			C139.365,34.043,138.992,33.626,138.992,32.964z M141.448,32.964v-1.445c-1.488,0.317-1.929,0.83-1.929,1.386
			c0,0.474,0.243,0.689,0.657,0.689C140.658,33.594,141.116,33.336,141.448,32.964z"/>
		<path fill="#1F90BA" d="M143.62,33.437v0.549h-0.538v-6.141h0.538v2.339c0.282-0.34,0.654-0.652,1.213-0.652
			c0.854,0,1.508,0.678,1.508,2.264c0,1.585-0.67,2.265-1.535,2.265C144.3,34.06,143.933,33.809,143.62,33.437z M145.791,31.802
			c0-1.237-0.453-1.799-1.068-1.799c-0.455,0-0.78,0.29-1.104,0.651v2.295c0.348,0.412,0.696,0.638,1.112,0.638
			C145.347,33.587,145.791,33.071,145.791,31.802z"/>
		<path fill="#1F90BA" d="M147.287,27.844h0.538v6.141h-0.538V27.844z"/>
	</g>
	<g>
		<path fill="#1F90BA" d="M148.779,31.793c0-1.542,0.773-2.267,1.642-2.267c0.965,0,1.519,0.799,1.519,2.225v0.125h-2.623
			c0.026,1.12,0.448,1.733,1.123,1.733c0.529,0,0.805-0.321,1.043-0.848l0.41,0.224c-0.301,0.675-0.806,1.089-1.486,1.089
			C149.476,34.077,148.779,33.296,148.779,31.793z M151.402,31.439c-0.041-0.831-0.341-1.444-0.988-1.444
			c-0.522,0-1.003,0.445-1.089,1.444H151.402z"/>
	</g>
	<g>
		<path fill="#1F90BA" d="M152.419,33.155l0.398-0.257c0.284,0.464,0.697,0.713,1.179,0.713c0.606,0,0.938-0.281,0.938-0.713
			c0-1.146-2.291-0.712-2.291-2.241c0-0.647,0.529-1.129,1.321-1.129c0.66,0,1.111,0.317,1.399,0.805l-0.397,0.267
			c-0.215-0.376-0.528-0.614-1.002-0.614c-0.538,0-0.79,0.29-0.79,0.648c0,1.154,2.272,0.671,2.272,2.247
			c0,0.723-0.637,1.187-1.458,1.187C153.259,34.067,152.752,33.729,152.419,33.155z"/>
	</g>
	<g>
		<path fill="#15769F" d="M54.794,19.906l2.212-1.312c0.735,1.456,2.067,2.263,3.594,2.263c1.347,0,2.32-0.502,2.32-1.525
			c0-1.008-0.954-1.438-2.697-1.925c-2.373-0.665-4.854-1.276-4.854-4.063c0-2.479,1.94-3.972,4.801-3.972
			c2.731,0,4.349,1.311,5.284,2.732l-2.031,1.546c-0.703-1.133-1.978-1.887-3.274-1.887c-1.241,0-1.924,0.539-1.924,1.329
			c0,1.06,0.988,1.437,2.732,1.924c2.335,0.63,4.816,1.366,4.816,4.118c0,2.139-1.617,4.045-5.319,4.045
			C57.58,23.177,55.782,21.811,54.794,19.906z"/>
		<path fill="#15769F" d="M67.32,16.274c0-4.675,3.057-6.901,6.273-6.901c3.199,0,6.254,2.228,6.254,6.901s-3.055,6.903-6.254,6.903
			C70.375,23.177,67.32,20.948,67.32,16.274z M76.936,16.274c0-2.786-1.293-4.474-3.342-4.474c-2.066,0-3.343,1.688-3.343,4.474
			c0,2.787,1.274,4.546,3.343,4.546C75.643,20.822,76.936,19.06,76.936,16.274z"/>
		<path fill="#15769F" d="M81.968,22.927V9.623h2.929v10.929h5.858v2.373L81.968,22.927L81.968,22.927z"/>
		<path fill="#15769F" d="M92.495,22.927V9.623h4.838c2.839,0,5.429,0.756,5.429,4.26c0,3.575-2.806,4.313-5.465,4.313H95.41v4.729
			h-2.915V22.927z M95.41,15.933h1.994c1.817,0,2.498-0.7,2.498-1.975c0-1.241-0.665-1.944-2.498-1.944H95.41V15.933z"/>
		<path fill="#15769F" d="M103.587,22.927l4.71-13.356h2.784l4.708,13.356h-2.964l-0.99-2.967h-4.528l-1.025,2.967H103.587z
			 M108.025,17.837h3.129l-1.53-4.529h-0.036L108.025,17.837z"/>
		<path fill="#15769F" d="M122.581,19.906l2.211-1.312c0.739,1.456,2.071,2.263,3.599,2.263c1.348,0,2.316-0.502,2.316-1.525
			c0-1.008-0.95-1.438-2.696-1.925c-2.372-0.665-4.851-1.276-4.851-4.063c0-2.479,1.94-3.972,4.799-3.972
			c2.729,0,4.351,1.311,5.281,2.732l-2.03,1.546c-0.7-1.133-1.975-1.887-3.271-1.887c-1.238,0-1.922,0.539-1.922,1.329
			c0,1.06,0.986,1.437,2.733,1.924c2.335,0.63,4.815,1.366,4.815,4.118c0,2.139-1.619,4.045-5.32,4.045
			C125.367,23.177,123.572,21.811,122.581,19.906z"/>
		<path fill="#15769F" d="M135.754,20.138h3.09v2.787h-3.09V20.138z"/>
		<path fill="#15769F" d="M140.517,22.927l4.708-13.356h2.786l4.709,13.356h-2.967l-0.988-2.967h-4.529l-1.024,2.967H140.517z
			 M144.955,17.837h3.128l-1.529-4.529h-0.036L144.955,17.837z"/>
		<path fill="#15769F" d="M154.408,20.138h3.092v2.787h-3.092V20.138z"/>
	</g>
</g>
</svg>
