<?xml version="1.0" encoding="utf-8"?>
<!-- Generator: Adobe Illustrator 16.0.0, SVG Export Plug-In . SVG Version: 6.00 Build 0)  -->
<!DOCTYPE svg PUBLIC "-//W3C//DTD SVG 1.1//EN" "http://www.w3.org/Graphics/SVG/1.1/DTD/svg11.dtd">
<svg version="1.1" id="Capa_1" xmlns="http://www.w3.org/2000/svg" xmlns:xlink="http://www.w3.org/1999/xlink" x="0px" y="0px"
	 width="120px" height="63.574px" viewBox="20 10.595 120 63.574" enable-background="new 20 10.595 120 63.574"
	 xml:space="preserve">
<g>
	<g>
		<path fill="#00186B" d="M88.865,63.221c-1.497,0-2.432-0.677-2.896-1.764l-1.202-2.704c-0.627-1.424-1.067-1.688-2.124-1.828
			c-0.213-0.025-0.447-0.054-0.707-0.074v6.247h-1.707c-1.733,0-2.742-1.085-2.742-2.636V46.93c1.124-0.404,3.609-0.727,4.841-0.727
			h1.813c3.464,0,5.922,1.957,5.922,4.976c0,2.223-1.4,4.104-2.952,4.466c0.777,0.363,1.176,0.959,1.78,2.288l1.242,2.704
			c0.466,0.983,0.893,1.738,1.129,2.022v0.127C90.718,63.077,89.829,63.221,88.865,63.221z M82.824,49.829
			c-0.181,0-0.556,0.048-0.889,0.095v3.671c0.539,0.074,1.1,0.074,1.781,0.074c1.262,0,1.896-0.99,1.896-1.932
			c0-1.206-0.578-1.906-1.877-1.906h-0.912L82.824,49.829L82.824,49.829z"/>
		<path fill="#00186B" d="M98.739,58.103H96.82c0.253,1.329,1.308,1.956,3.162,1.956c2.059,0,3.346-0.337,4.068-0.845h0.164v1.062
			c0,1.69-1.332,3.21-5.005,3.21c-4.447,0-6.796-3.09-6.796-6.759c0-4.027,2.651-7.311,6.627-7.311c3.375,0,6.001,1.948,6.001,5.334
			C105.042,57.402,103.092,58.103,98.739,58.103z M99.042,52.845c-1.569,0-2.221,1.039-2.341,2.318h1.73
			c2.108,0,2.486-0.338,2.486-0.918C100.921,53.566,100.328,52.845,99.042,52.845z"/>
		<path fill="#00186B" d="M108.753,47.493c0.586-0.465,1.376-0.895,2.318-0.895h0.464v3.23h3.768v1.617
			c0,1.135-1.166,2.004-2.178,2.004h-1.587v4.805c0,0.887,0.536,1.42,1.406,1.42c1.058,0,1.546-0.097,2.01-0.284h0.124v1.781
			c0,1.11-0.985,2.118-3.31,2.118c-2.192,0-4.564-1.087-4.564-4.725v-8.228C107.202,49.128,107.884,48.164,108.753,47.493z"/>
		<path fill="#00186B" d="M125.261,53.263c-0.561-0.225-0.981-0.277-1.575-0.277c-1.068,0-1.915,0.561-1.915,2.178V63.1h-1.219
			c-1.92,0-3.091-0.917-3.091-3.144v-5.76c0-2.678,1.765-4.805,4.685-4.805c2.222,0,3.253,0.942,3.253,2.176v1.695H125.261
			L125.261,53.263z"/>
		<path fill="#00186B" d="M133.329,49.467c3.515,0,6.671,2.746,6.671,6.852c0,4.345-2.553,7.14-6.995,7.14
			c-3.68,0-6.674-2.795-6.674-6.706C126.329,52.363,129.28,49.467,133.329,49.467z M133.048,53.088c-1.22,0-2.313,1.326-2.313,3.138
			c0,2.554,0.983,3.67,2.546,3.67c1.406,0,2.318-1.332,2.318-3.168C135.6,54.343,134.592,53.088,133.048,53.088z"/>
		<path fill="#00186B" d="M81.785,44.789c-2.524,0-4.299-1.745-4.299-4.474v-5.874h1.16c0.862,0,1.545,0.526,1.545,1.92v3.863
			c0,1.721,0.58,2.275,1.853,2.275c1.062,0,1.586-0.687,1.586-2.198v-5.86h1.153c1.01,0,1.545,0.526,1.545,1.858v3.925
			C86.33,42.779,84.816,44.789,81.785,44.789z"/>
		<path fill="#00186B" d="M94.328,44.552c-1.195,0-1.563-0.409-1.563-1.64v-2.825c0-1.086-0.357-1.569-1.268-1.569
			c-0.785,0-1.207,0.544-1.207,1.526v4.507h-0.912c-1.148,0-1.793-0.471-1.793-1.64v-2.826c0-2.318,1.49-3.827,3.977-3.827
			c2.775,0,3.905,1.508,3.905,3.899v4.392L94.328,44.552L94.328,44.552z"/>
		<path fill="#00186B" d="M99.71,44.674c-1.433,0-2.563-0.737-2.563-2.644v-5.288h0.675c1.534,0,2.028,0.452,2.028,1.92v2.957
			c0,0.724,0.325,0.942,1.079,0.942h0.326v0.822C101.256,44.346,100.545,44.674,99.71,44.674z"/>
		<path fill="#00186B" d="M106.315,44.674h-0.726c-0.893,0-1.323-0.447-1.779-1.177c-1.05-1.684-2.143-4.648-2.48-7.001h1.406
			c0.881,0,1.437,0.645,1.533,1.152c0.24,1.297,0.934,3.199,1.298,3.881c0.486-0.949,1.188-3.236,1.478-5.035h1.291
			c0.681,0,1.092,0.423,1.092,1.104c0,0.58-0.18,1.166-0.367,1.726C108.548,40.859,107.256,43.605,106.315,44.674z"/>
		<path fill="#00186B" d="M113.976,41.521h-1.161c0.153,0.798,0.792,1.184,1.909,1.184c1.256,0,2.039-0.205,2.48-0.512h0.098v0.647
			c0,1.02-0.811,1.95-3.037,1.95c-2.71,0-4.129-1.875-4.129-4.104c0-2.452,1.606-4.438,4.026-4.438c2.046,0,3.638,1.184,3.638,3.235
			C117.8,41.094,116.619,41.521,113.976,41.521z M114.162,38.324c-0.954,0-1.348,0.633-1.425,1.406h1.048
			c1.288,0,1.517-0.205,1.517-0.556C115.302,38.764,114.94,38.324,114.162,38.324z"/>
		<path fill="#00186B" d="M123.753,38.576c-0.339-0.133-0.599-0.162-0.948-0.162c-0.658,0-1.166,0.331-1.166,1.314v4.821h-0.741
			c-1.166,0-1.878-0.561-1.878-1.907v-3.5c0-1.623,1.07-2.916,2.845-2.916c1.351,0,1.979,0.58,1.979,1.316v1.032h-0.09V38.576z"/>
		<path fill="#00186B" d="M127.494,44.789c-2.138,0-2.902-0.809-2.902-1.98v-0.811h0.071c0.514,0.398,1.293,0.706,2.401,0.706
			c0.979,0,1.293-0.234,1.293-0.627c0-0.368-0.181-0.514-1.805-0.75c-1.412-0.205-2.147-0.862-2.147-2.154
			c0-1.938,1.779-2.915,3.573-2.915c1.731,0,2.782,0.713,2.782,1.919v0.834h-0.073c-0.526-0.392-1.346-0.67-2.396-0.67
			c-1.008,0-1.341,0.277-1.341,0.616c0,0.309,0.177,0.411,1.812,0.688c1.304,0.224,2.186,0.948,2.186,2.312
			C130.948,43.683,129.643,44.789,127.494,44.789z"/>
		<path fill="#00186B" d="M135.951,36.278c2.13,0,4.049,1.665,4.049,4.157c0,2.639-1.551,4.333-4.248,4.333
			c-2.235,0-4.05-1.695-4.05-4.068C131.702,38.028,133.493,36.278,135.951,36.278z M135.781,38.469
			c-0.736,0-1.412,0.809-1.412,1.907c0,1.556,0.598,2.227,1.556,2.227c0.851,0,1.406-0.809,1.406-1.919
			C137.331,39.235,136.718,38.469,135.781,38.469z"/>
	</g>
	<path fill="#00186B" d="M35.157,64.639l11.35-3.625l-6.032-1.643c-2.438-0.669-3.384-3.038-2.539-5.381
		c0,0,2.018-5.329,2.018-5.347c-4.282,1.093-8.132-0.943-9.528-5.471l-3.133-10.139l2.05-0.641c1.536-0.469,3.032,0.061,3.778,2.461
		l2.056,6.682c0.92,2.96,2.248,3.604,4.506,2.91c1.895-0.589,2.461-2.063,1.66-4.675l-3.127-10.118l2.046-0.634
		c1.799-0.554,3.043,0.061,3.755,2.361l0.724,2.332l2.519-9.418l-0.952-2.891c-0.146-0.404-0.246-0.673-0.349-0.802
		c-3.469,2.59-6.652,5.437-9.523,8.431l-0.157-0.162c7.954-10.22,17.756-16.435,24.914-16.435h0.056
		c2.096,0,3.956,0.514,5.532,1.581c2.73,1.866,4.467,5.486,4.781,9.904l0.28,0.017c-0.248-5.273-2.05-9.567-5.644-11.799
		c-1.851-1.154-4.015-1.63-6.323-1.529c-5.016,0.24-10.79,3.15-16.304,8.042c-0.59-0.135-1.211-0.124-1.833,0.073l-19.263,6.143
		c-1.868,0.604-2.898,2.596-2.309,4.472l10.532,32.996C31.296,64.209,33.292,65.238,35.157,64.639z M72.969,24.939l-19.26-6.144
		c-1.865-0.6-3.867,0.432-4.46,2.298L38.717,54.099c-0.594,1.875,0.437,3.87,2.303,4.463l10.044,3.223
		c3.263-2.672,6.25-5.509,9.641-9.23c0.034,0.033,0.09,0.074,0.141,0.107c-6.25,8.692-13.895,14.831-20.543,17.252
		c-0.499-0.739-1.355-1.227-2.344-1.227c-1.423,0-2.6,1.019-2.797,2.354c-0.252,0.011-0.504,0.023-0.751,0.023
		c-2.108,0-3.969-0.522-5.532-1.586c-3.026-2.068-4.556-6.223-4.573-11.08c-0.006-4.502,0.678-8.155,1.222-10.381l-0.219-0.067
		c-0.033,0.124-0.073,0.246-0.106,0.37c-1.07,4.002-1.542,7.792-1.396,11.154c0.231,5.319,2.04,9.646,5.65,11.89
		c1.798,1.114,3.884,1.596,6.121,1.533c0.504,0.764,1.384,1.272,2.382,1.272c1.4,0,2.545-0.984,2.764-2.286
		c4.411-1.519,9.108-4.668,13.547-9.085l6.014,1.924c1.872,0.588,3.874-0.443,4.467-2.316l10.521-32.982h-0.012l0.023-0.016
		C75.872,27.539,74.84,25.538,72.969,24.939z M65.592,38.672c-0.718,2.325-2.848,3.828-4.635,3.688c0.717,0.638,0.958,1.407,1.176,3
		l0.466,3.244c0.185,1.193,0.398,2.119,0.555,2.499l-0.039,0.126c-0.678,0.127-1.688-0.017-2.724-0.343
		c-1.62-0.498-2.411-1.521-2.563-2.813l-0.415-3.229c-0.219-1.71-0.611-2.136-1.704-2.642c-0.218-0.094-0.464-0.195-0.74-0.308
		l-2.024,6.547l-1.839-0.57c-1.878-0.578-2.611-2.059-2.113-3.674l4.401-14.19c1.345-0.052,4.125,0.454,5.47,0.869l1.945,0.605
		C64.549,32.635,66.574,35.505,65.592,38.672z M59.208,35.133l-0.986-0.302c-0.206-0.061-0.622-0.135-0.993-0.202l-1.194,3.85
		c0.555,0.252,1.166,0.443,1.895,0.667c1.374,0.427,2.376-0.403,2.68-1.39C61.001,36.496,60.594,35.571,59.208,35.133z"/>
</g>
</svg>
