<?xml version="1.0" encoding="utf-8"?>
<!-- Generator: Adobe Illustrator 16.0.0, SVG Export Plug-In . SVG Version: 6.00 Build 0)  -->
<!DOCTYPE svg PUBLIC "-//W3C//DTD SVG 1.1//EN" "http://www.w3.org/Graphics/SVG/1.1/DTD/svg11.dtd">
<svg version="1.1" id="Capa_1" xmlns="http://www.w3.org/2000/svg" xmlns:xlink="http://www.w3.org/1999/xlink" x="0px" y="0px"
	 width="130px" height="76.601px" viewBox="-15 -8.838 130 76.601" enable-background="new -15 -8.838 130 76.601"
	 xml:space="preserve">
<g>
	<path fill="#27241F" d="M-1.335,38.955c-1.645,0.866-3.555,1.277-5.512,1.277c-5.153,0-8.152-3.006-8.152-7.079
		c0-3.816,2.666-6.985,8.512-6.985c2.688,0,4.485,0.65,5.489,1.045c-0.335,0.813-0.755,1.978-0.755,1.978
		c-0.602-1.125-2.556-2.171-4.824-2.171c-3.511,0-5.844,2.294-5.844,6.11c0,4.119,2.869,6.153,6.023,6.153
		c0.998,0,3.312-0.194,5.044-2.034C-1.355,37.251-1.292,38.214-1.335,38.955"/>
	<path fill="#27241F" d="M6.44,36.213c0,1.805,0.043,3.781,0.043,3.781H4.019c0,0,0.286-4.632,0.286-7.216
		c0-1.527-0.201-6.474-0.201-6.474h2.492c0,0-0.201,3.521-0.158,5.76c1.468,0.035,2.956,0.079,4.422,0.079
		c1.734,0,2.757-0.021,4.111-0.062c0.046-2.685-0.11-5.776-0.11-5.776h2.492c0,0-0.248,6.551-0.248,9.5
		c0,1.604,0.135,4.19,0.135,4.19h-2.423c0,0,0.155-3.244,0.155-3.737v-2.971c-1.487-0.053-2.043-0.053-4.266-0.053
		c-2.134,0-2.579,0-4.268,0.035V36.213z"/>
	<path fill="#27241F" d="M25.506,34.814c-0.445,0.911-2.069,5.18-2.069,5.18H21.55l6.841-13.85h1.048l6.662,13.85h-2.73
		c0,0-1.689-4.091-2.247-5.18H25.506z M28.281,28.917l-2.331,4.909h4.734L28.281,28.917z"/>
	<path fill="#27241F" d="M41.901,31.017c0.067,4.788,0.357,8.979,0.357,8.979h-1.801c0,0,0.291-4.385,0.291-6.443
		c0-0.793-0.071-4.237-0.071-4.946v-2.38h0.825l0.731,0.77c0.602,0.614,1.133,1.148,2.49,2.417c4.445,4.177,4.93,4.647,7.756,7.199
		v-0.729c0-5.05-0.296-9.658-0.296-9.658h1.825c0,0-0.377,5.719-0.377,8.566c0,1.544,0.088,5.325,0.088,5.325h-0.774
		c0,0-4.023-4.054-5.582-5.343c-0.375-0.313-0.754-0.652-1.13-0.989l-4.335-4.016v1.248H41.901z"/>
	<path fill="#27241F" d="M65.76,39.994h-5.903c0,0,0.266-3.367,0.266-7.912c0-2.945-0.174-5.814-0.174-5.814
		s2.412,0.056,3.641,0.056c3.972,0,6.118,0,8.176,1.468c1.938,1.359,2.444,3.262,2.444,4.983
		C74.209,37.782,70.21,39.994,65.76,39.994 M69.5,28.283c-1.554-1.049-3.445-1.049-5.226-1.049c-1.063,0-1.241,0.021-1.955,0.082
		c-0.087,1.822-0.111,3.839-0.111,5.659c0,3.619,0,4.033,0.065,5.999c0.76,0.08,1.315,0.12,2.382,0.12c0.951,0,3.085,0,4.596-0.956
		c2.072-1.309,2.493-3.542,2.493-5.124C71.744,31.528,71.369,29.532,69.5,28.283"/>
	<path fill="#27241F" d="M95.962,33.012c0,4.131-3.29,7.279-8.578,7.279c-4.849,0-8.356-2.648-8.356-7.043
		c0-4.214,3.137-7.123,8.579-7.123C92.251,26.125,95.962,28.563,95.962,33.012 M87.43,39.448c3.508,0,6-2.288,6-6.335
		c0-1.031-0.198-2.631-0.979-3.798c-1.2-1.802-3.442-2.339-4.957-2.339c-2.957,0-5.93,1.785-5.93,6.256
		C81.565,37.082,84.006,39.448,87.43,39.448"/>
	<path fill="#27241F" d="M102.892,31.017c0.065,4.788,0.353,8.979,0.353,8.979h-1.8c0,0,0.292-4.385,0.292-6.443
		c0-0.793-0.067-4.237-0.067-4.946v-2.38c0,0,0.623,0.021,0.829,0l0.726,0.77c0.602,0.614,1.138,1.148,2.496,2.417
		c4.44,4.177,4.934,4.647,7.749,7.199v-0.729c0-5.05-0.287-9.658-0.287-9.658H115c0,0-0.371,5.719-0.371,8.566
		c0,1.544,0.084,5.325,0.084,5.325h-0.774c0,0-4.026-4.054-5.583-5.343c-0.373-0.313-0.752-0.652-1.125-0.989l-4.339-4.016V31.017z"
		/>
	<polygon fill="#85724D" points="54.68,-4.477 51.059,-4.477 50.02,-8.838 48.977,-4.477 45.601,-4.477 48.328,-2.473 45.472,3.218 
		50.02,-1.247 52.747,0.726 51.709,-2.473 	"/>
	<path fill="#85724D" d="M29.893,21.667c2.209-10.703,9.295-19.911,15.313-23.006L45.117-1.4
		c-8.439,4.377-15.313,13.177-17.557,23.067H29.893z"/>
	<path fill="#85724D" d="M30.122,43.094H27.41c2.186,10.116,9.647,19.456,21.511,24.669v-3.48
		C38.626,58.961,32.248,51.27,30.122,43.094"/>
</g>
</svg>
