<?xml version="1.0" encoding="utf-8"?>
<!-- Generator: Adobe Illustrator 16.0.3, SVG Export Plug-In . SVG Version: 6.00 Build 0)  -->
<!DOCTYPE svg PUBLIC "-//W3C//DTD SVG 1.1//EN" "http://www.w3.org/Graphics/SVG/1.1/DTD/svg11.dtd">
<svg version="1.1" id="Capa_1" xmlns="http://www.w3.org/2000/svg" xmlns:xlink="http://www.w3.org/1999/xlink" x="0px" y="0px"
	 width="68.032px" height="56.693px" viewBox="0 0 68.032 56.693" enable-background="new 0 0 68.032 56.693" xml:space="preserve">
<path fill="#FE330A" d="M47.591,50.53h-7.19c-0.26,0-0.471-0.213-0.471-0.471v-1.752c0-0.258-0.213-0.471-0.473-0.471H29.397
	c-0.26,0-0.472,0.213-0.472,0.471v1.752c0,0.258-0.213,0.471-0.472,0.471h-5.406c-0.26,0-0.472,0.217-0.472,0.475v2.021
	c0,0.264,0.212,0.477,0.472,0.477h24.544c0.261,0,0.472-0.213,0.472-0.477v-2.023C48.063,50.745,47.852,50.53,47.591,50.53z"/>
<g>
	<path fill="#FE330A" d="M59.672,3.19H8.362c-1.785,0-3.237,1.453-3.237,3.238c0,0,0,6.174,0,8.445c0,1.117-0.083,1.271,0.666,1.271
		c0.397,0,0.839,0,1.284,0c0.629,0,0.5-0.158,0.5-1.295c0-2.266,0-8.425,0-8.425c0-0.427,0.359-0.788,0.787-0.788h51.311
		c0.428,0,0.787,0.361,0.787,0.788v31.612H23.878c0,0-1.289-0.002-1.289,1.664c0,0.986,0,2.967,0,3.955
		c0,1.662,1.331,1.662,1.331,1.662h35.752c1.785,0,3.238-1.449,3.238-3.236V6.428C62.911,4.643,61.458,3.19,59.672,3.19z
		 M34.018,42.528c-0.807,0-1.459-0.65-1.459-1.459c0-0.807,0.652-1.459,1.459-1.459c0.805,0,1.459,0.652,1.459,1.459
		S34.823,42.528,34.018,42.528z"/>
</g>
<g>
	<path fill="#FE330A" d="M5.122,6.428v35.654c0,1.787,1.453,3.236,3.238,3.236h35.752c0,0,1.331,0,1.331-1.662
		c0-0.988,0-2.969,0-3.955c0-1.666-1.289-1.664-1.289-1.664H7.573V6.426c0-0.427,0.359-0.788,0.787-0.788H59.67
		c0.428,0,0.787,0.361,0.787,0.788c0,0,0,6.159,0,8.425c0,1.137-0.129,1.295,0.5,1.295c0.445,0,0.887,0,1.284,0
		c0.749,0,0.666-0.154,0.666-1.271c0-2.271,0-8.445,0-8.445c0-1.785-1.452-3.238-3.237-3.238H8.36
		C6.574,3.19,5.122,4.643,5.122,6.428z M32.555,41.069c0-0.807,0.654-1.459,1.459-1.459c0.807,0,1.459,0.652,1.459,1.459
		c0,0.809-0.652,1.459-1.459,1.459C33.209,42.528,32.555,41.876,32.555,41.069z"/>
</g>
<g>
	<path fill="none" stroke="#FE330A" stroke-width="2" stroke-linecap="round" stroke-linejoin="round" stroke-miterlimit="10" d="
		M21.428,25.421c1.884,4.27,6.87,3.582,6.87,3.582l15.368-4.136l-3.21-7.274l-0.697-1.583l-3.21-7.274L23.134,17.3
		c0,0-3.869,3.22-1.984,7.49L21.428,25.421z"/>
	<path fill="none" stroke="#FE330A" stroke-width="2" stroke-linecap="round" stroke-linejoin="round" stroke-miterlimit="10" d="
		M38.446,13.084c2.074-0.915,4.498,0.023,5.413,2.096c0.915,2.074-0.026,4.498-2.101,5.413"/>
	
		<line fill="none" stroke="#F7310F" stroke-width="2" stroke-linecap="round" stroke-miterlimit="10" x1="44.708" y1="11.105" x2="47.359" y2="8.246"/>
	
		<line fill="none" stroke="#F7310F" stroke-width="2" stroke-linecap="round" stroke-miterlimit="10" x1="47.5" y1="17.432" x2="51.399" y2="17.404"/>
	
		<line fill="none" stroke="#F7310F" stroke-width="2" stroke-linecap="round" stroke-miterlimit="10" x1="46.293" y1="14.318" x2="50.002" y2="12.681"/>
	<path fill="none" stroke="#F7310F" stroke-width="2" stroke-linecap="round" stroke-miterlimit="10" d="M27.751,29.212l4.611,5.895
		c0,0,1.318,1.795,2.986,0.426c1.393-1.039-0.442-2.924-0.442-2.924l-3.45-4.344"/>
</g>
</svg>
