<?xml version="1.0" encoding="utf-8"?>
<!-- Generator: Adobe Illustrator 16.0.0, SVG Export Plug-In . SVG Version: 6.00 Build 0)  -->
<!DOCTYPE svg PUBLIC "-//W3C//DTD SVG 1.1//EN" "http://www.w3.org/Graphics/SVG/1.1/DTD/svg11.dtd">
<svg version="1.1" id="Capa_1" xmlns="http://www.w3.org/2000/svg" xmlns:xlink="http://www.w3.org/1999/xlink" x="0px" y="0px"
	 width="31.711px" height="31.713px" viewBox="0 0 31.711 31.713" enable-background="new 0 0 31.711 31.713" xml:space="preserve">
<g>
	<path fill="#FFFFFF" d="M31.415,9.898l-6.518,6.284l-1.337-1.417l4.933-4.756c0.477-0.46,0.489-1.219,0.029-1.696L24.12,3.747
		c-0.224-0.23-0.523-0.361-0.844-0.366c-0.316-0.007-0.624,0.114-0.854,0.335l-3.887,3.747l3.375,3.495
		c0.275,0.289,0.254,0.765-0.035,1.046c-0.203,0.194-0.5,0.255-0.752,0.173l-4.896-5.191l6.406-6.183
		c0.389-0.371,1.013-0.35,1.386,0.037l7.405,7.676C31.797,8.902,31.797,9.525,31.415,9.898z M9.29,28.528
		c-0.227,0.221-0.535,0.342-0.852,0.334c-0.319-0.006-0.622-0.137-0.844-0.364l-4.403-4.567c-0.459-0.478-0.447-1.229,0.03-1.693
		l2.025,2.104c0.279,0.289,0.737,0.297,1.026,0.021c0.289-0.276,0.295-0.733,0.015-1.023l-2.022-2.107l0.539-0.521l2.025,2.104
		c0.277,0.287,0.735,0.297,1.026,0.021c0.288-0.28,0.295-0.735,0.015-1.026l-2.024-2.102l0.54-0.521l2.023,2.103
		c0.279,0.287,0.739,0.297,1.026,0.021c0.291-0.277,0.296-0.733,0.018-1.024l-2.025-2.103l0.539-0.521l2.025,2.101
		c0.278,0.291,0.736,0.299,1.026,0.021c0.107-0.104,0.177-0.234,0.205-0.368l-3.749-3.98L0.3,22.349
		c-0.384,0.373-0.384,0.998-0.013,1.383l7.405,7.681c0.372,0.386,0.998,0.407,1.382,0.032l7.067-6.813l-1.336-1.417L9.29,28.528z
		 M22.229,9.655c-0.934-0.965-0.906-2.511,0.063-3.442c0.963-0.933,2.508-0.905,3.438,0.061c0.935,0.967,0.901,2.513-0.062,3.442
		C24.708,10.649,23.163,10.621,22.229,9.655z M23.274,8.647c0.376,0.386,0.996,0.397,1.389,0.023
		c0.387-0.375,0.397-0.997,0.021-1.385c-0.375-0.388-0.997-0.401-1.385-0.026C22.911,7.634,22.899,8.256,23.274,8.647z
		 M27.208,21.116l-6.373,6.005L6.631,12.051l6.375-6.005L27.208,21.116z M14.075,10.248c0.003-0.144-0.049-0.286-0.151-0.392
		L13.23,9.122c-0.206-0.219-0.553-0.23-0.774-0.023L12.08,9.452c-0.221,0.206-0.23,0.556-0.024,0.774l0.69,0.739
		c0.103,0.106,0.239,0.17,0.386,0.171c0.145,0.006,0.769-0.503,0.769-0.503C14.007,10.532,14.069,10.394,14.075,10.248z
		 M23.941,21.287c0.224-0.208,0.231-0.556,0.022-0.776l-7.979-8.465c-0.1-0.108-0.236-0.17-0.384-0.173
		c-0.143-0.005-0.286,0.05-0.391,0.148l-0.377,0.356c-0.221,0.207-0.231,0.553-0.023,0.774l7.979,8.466
		c0.104,0.106,0.237,0.17,0.387,0.174c0.146,0.005,0.287-0.05,0.394-0.149L23.941,21.287z M5.986,11.364l6.373-6.007l-1.646-1.746
		L4.341,9.619L5.986,11.364z M1.5,6.601C1.153,6.233,0.969,5.748,0.983,5.244c0.016-0.503,0.229-0.977,0.596-1.322l3.612-3.403
		c0.76-0.722,1.96-0.685,2.679,0.077l2.239,2.375L3.736,8.976L1.5,6.601z M2.637,5.294l1.17,1.244l3.863-3.64L6.497,1.656
		L2.637,5.294z M30.44,29.694c0.109,0.346,0.01,0.723-0.252,0.971c-0.264,0.249-0.646,0.322-0.982,0.193l-7.564-2.887l6.365-6.007
		L30.44,29.694z M28.418,27.101l-0.957-3.039l-3.7,3.49l2.978,1.137L28.418,27.101z"/>
</g>
</svg>
