<?xml version="1.0" encoding="utf-8"?>
<!-- Generator: Adobe Illustrator 16.0.0, SVG Export Plug-In . SVG Version: 6.00 Build 0)  -->
<!DOCTYPE svg PUBLIC "-//W3C//DTD SVG 1.1//EN" "http://www.w3.org/Graphics/SVG/1.1/DTD/svg11.dtd">
<svg version="1.1" id="Capa_1" xmlns="http://www.w3.org/2000/svg" xmlns:xlink="http://www.w3.org/1999/xlink" x="0px" y="0px"
	 width="68.032px" height="56.693px" viewBox="-18.16 0 68.032 56.693" enable-background="new -18.16 0 68.032 56.693"
	 xml:space="preserve">
<g>
	<path fill="#FFFFFF" d="M43.669,17.693L32.017,28.927l-2.389-2.533l8.818-8.502c0.854-0.822,0.874-2.179,0.05-3.031l-7.867-8.162
		c-0.4-0.411-0.935-0.646-1.511-0.655c-0.563-0.012-1.113,0.204-1.527,0.599l-6.947,6.698l6.033,6.248
		c0.49,0.518,0.453,1.368-0.063,1.87c-0.363,0.348-0.894,0.456-1.344,0.309l-8.752-9.279l11.45-11.052
		c0.697-0.663,1.814-0.625,2.481,0.065l13.233,13.722C44.352,15.913,44.352,17.026,43.669,17.693z M4.119,50.997
		c-0.406,0.395-0.957,0.611-1.523,0.597c-0.57-0.01-1.112-0.244-1.509-0.651l-7.87-8.164c-0.821-0.854-0.799-2.196,0.054-3.027
		l3.62,3.762c0.498,0.518,1.317,0.533,1.833,0.037c0.517-0.49,0.527-1.308,0.027-1.826l-3.615-3.764l0.964-0.932l3.62,3.76
		c0.495,0.514,1.313,0.532,1.834,0.038c0.515-0.499,0.527-1.313,0.027-1.833l-3.618-3.758l0.965-0.931l3.616,3.759
		c0.498,0.513,1.32,0.53,1.833,0.036c0.521-0.492,0.529-1.308,0.033-1.827L0.79,32.51l0.963-0.931l3.621,3.756
		c0.497,0.52,1.315,0.534,1.834,0.038c0.191-0.186,0.316-0.419,0.367-0.658l-6.702-7.114l-12.825,12.35
		c-0.686,0.667-0.686,1.784-0.022,2.472L1.262,56.155c0.665,0.689,1.784,0.725,2.471,0.055l12.633-12.179l-2.388-2.532L4.119,50.997
		z M27.247,17.259c-1.669-1.725-1.616-4.488,0.113-6.153c1.722-1.668,4.483-1.617,6.146,0.109c1.671,1.729,1.608,4.492-0.113,6.153
		C31.68,19.036,28.918,18.986,27.247,17.259z M29.115,15.457c0.674,0.69,1.78,0.71,2.484,0.041c0.69-0.67,0.71-1.782,0.036-2.475
		c-0.67-0.694-1.78-0.718-2.476-0.047C28.468,13.646,28.444,14.758,29.115,15.457z M36.148,37.747L24.756,48.481L-0.635,21.542
		l11.396-10.734L36.148,37.747z M12.672,18.319c0.005-0.258-0.088-0.512-0.271-0.701l-1.24-1.312
		c-0.369-0.392-0.989-0.411-1.384-0.041l-0.672,0.631C8.71,17.265,8.695,17.89,9.063,18.28l1.233,1.32
		c0.184,0.189,0.427,0.304,0.689,0.306c0.259,0.011,1.375-0.899,1.375-0.899C12.55,18.827,12.661,18.58,12.672,18.319z
		 M30.31,38.053c0.399-0.372,0.41-0.993,0.036-1.388L16.083,21.533c-0.179-0.193-0.421-0.304-0.686-0.31
		c-0.256-0.008-0.511,0.09-0.699,0.265l-0.674,0.637c-0.396,0.37-0.413,0.989-0.041,1.384l14.264,15.134
		c0.185,0.19,0.422,0.304,0.691,0.311c0.262,0.009,0.513-0.089,0.705-0.267L30.31,38.053z M-1.788,20.314L9.604,9.576L6.662,6.455
		L-4.729,17.195L-1.788,20.314z M-9.807,11.8c-0.621-0.658-0.95-1.525-0.924-2.425c0.029-0.899,0.41-1.747,1.066-2.364l6.457-6.083
		C-1.85-0.363,0.294-0.297,1.58,1.065l4.002,4.246L-5.81,16.045L-9.807,11.8z M-7.774,9.463l2.091,2.224L1.222,5.18l-2.097-2.22
		L-7.774,9.463z M41.925,53.081c0.194,0.618,0.02,1.292-0.45,1.735c-0.473,0.445-1.155,0.576-1.755,0.346l-13.52-5.16l11.376-10.741
		L41.925,53.081z M38.312,48.444l-1.711-5.433l-6.612,6.239l5.32,2.032L38.312,48.444z"/>
</g>
</svg>
