<?xml version="1.0" encoding="utf-8"?>
<!-- Generator: Adobe Illustrator 16.0.0, SVG Export Plug-In . SVG Version: 6.00 Build 0)  -->
<!DOCTYPE svg PUBLIC "-//W3C//DTD SVG 1.1//EN" "http://www.w3.org/Graphics/SVG/1.1/DTD/svg11.dtd">
<svg version="1.1" id="Capa_1" xmlns="http://www.w3.org/2000/svg" xmlns:xlink="http://www.w3.org/1999/xlink" x="0px" y="0px"
	 width="68.032px" height="56.693px" viewBox="0 0 68.032 56.693" enable-background="new 0 0 68.032 56.693" xml:space="preserve">
<g>
	<path fill="#FE330A" d="M61.828,17.693L50.176,28.927l-2.389-2.531l8.817-8.502c0.854-0.822,0.874-2.181,0.051-3.031L48.788,6.7
		c-0.399-0.411-0.935-0.646-1.51-0.655c-0.563-0.012-1.113,0.204-1.527,0.601l-6.947,6.696l6.033,6.248
		c0.49,0.52,0.453,1.368-0.063,1.87c-0.362,0.35-0.894,0.456-1.344,0.311l-8.752-9.279l11.45-11.052
		c0.697-0.663,1.814-0.625,2.48,0.063l13.233,13.724C62.511,15.913,62.511,17.026,61.828,17.693z M22.278,50.997
		c-0.406,0.396-0.957,0.611-1.523,0.597c-0.57-0.01-1.112-0.242-1.509-0.649l-7.87-8.164c-0.821-0.854-0.799-2.196,0.054-3.027
		l3.62,3.764c0.498,0.518,1.317,0.531,1.833,0.035c0.517-0.488,0.527-1.308,0.027-1.824l-3.615-3.766l0.964-0.932l3.62,3.76
		c0.495,0.516,1.313,0.532,1.834,0.038c0.515-0.499,0.527-1.313,0.027-1.833l-3.618-3.758l0.965-0.931l3.616,3.759
		c0.498,0.513,1.32,0.528,1.833,0.036c0.521-0.492,0.529-1.31,0.033-1.827l-3.62-3.765l0.963-0.931l3.621,3.756
		c0.497,0.521,1.315,0.534,1.834,0.038c0.191-0.186,0.316-0.419,0.367-0.658l-6.702-7.112L6.207,39.952
		c-0.686,0.667-0.686,1.784-0.022,2.472l13.236,13.731c0.665,0.688,1.784,0.725,2.471,0.055l12.634-12.179l-2.389-2.532
		L22.278,50.997z M45.407,17.259c-1.67-1.725-1.617-4.486,0.112-6.151c1.722-1.668,4.483-1.617,6.146,0.107
		c1.671,1.729,1.608,4.492-0.112,6.153C49.839,19.036,47.077,18.986,45.407,17.259z M47.274,15.457
		c0.674,0.69,1.78,0.71,2.484,0.041c0.689-0.67,0.71-1.782,0.035-2.475c-0.67-0.694-1.779-0.718-2.475-0.047
		C46.627,13.646,46.603,14.758,47.274,15.457z M54.307,37.747L42.915,48.481l-25.39-26.939L28.92,10.809L54.307,37.747z
		 M30.831,18.319c0.005-0.258-0.088-0.512-0.271-0.701l-1.24-1.312c-0.369-0.394-0.989-0.411-1.384-0.041l-0.672,0.631
		c-0.395,0.369-0.41,0.994-0.042,1.384l1.233,1.32c0.184,0.188,0.427,0.304,0.689,0.306c0.259,0.011,1.375-0.899,1.375-0.899
		C30.709,18.827,30.82,18.58,30.831,18.319z M48.469,38.053c0.398-0.372,0.41-0.993,0.036-1.39L34.242,21.533
		c-0.179-0.193-0.421-0.304-0.686-0.31c-0.256-0.01-0.511,0.09-0.699,0.265l-0.674,0.637c-0.396,0.37-0.413,0.989-0.041,1.384
		l14.265,15.136c0.185,0.188,0.422,0.304,0.69,0.311c0.263,0.009,0.513-0.089,0.705-0.267L48.469,38.053z M16.371,20.314
		L27.763,9.576l-2.942-3.121L13.43,17.195L16.371,20.314z M8.352,11.8c-0.621-0.656-0.95-1.523-0.924-2.425
		c0.029-0.897,0.41-1.747,1.066-2.364l6.457-6.081c1.358-1.292,3.502-1.227,4.788,0.136l4.002,4.246L12.349,16.045L8.352,11.8z
		 M10.385,9.463l2.091,2.226l6.905-6.508L17.284,2.96L10.385,9.463z M60.083,53.081c0.195,0.618,0.021,1.292-0.449,1.735
		c-0.473,0.443-1.155,0.576-1.755,0.346l-13.52-5.16L55.736,39.26L60.083,53.081z M56.471,48.444L54.76,43.01l-6.612,6.239
		l5.32,2.032L56.471,48.444z"/>
</g>
</svg>
