<?xml version="1.0" encoding="utf-8"?>
<!-- Generator: Adobe Illustrator 16.0.0, SVG Export Plug-In . SVG Version: 6.00 Build 0)  -->
<!DOCTYPE svg PUBLIC "-//W3C//DTD SVG 1.1//EN" "http://www.w3.org/Graphics/SVG/1.1/DTD/svg11.dtd">
<svg version="1.1" id="Capa_1" xmlns="http://www.w3.org/2000/svg" xmlns:xlink="http://www.w3.org/1999/xlink" x="0px" y="0px"
	 width="46.998px" height="47.001px" viewBox="231.62 0 46.998 47.001" enable-background="new 231.62 0 46.998 47.001"
	 xml:space="preserve">
<g>
	<path fill="#FE330A" d="M273.181,16.625l-3.574-3.694l0.721-5.088c0.109-0.778-0.417-1.503-1.191-1.639l-5.063-0.888l-2.41-4.542
		c-0.368-0.694-1.221-0.971-1.927-0.626l-4.617,2.257l-4.618-2.256c-0.706-0.346-1.558-0.068-1.927,0.626l-2.409,4.542l-5.063,0.887
		c-0.774,0.136-1.301,0.861-1.191,1.64l0.72,5.088l-3.574,3.694c-0.547,0.564-0.547,1.461,0,2.026l3.574,3.694l-0.72,5.091
		c-0.11,0.778,0.417,1.503,1.191,1.639l4.052,0.71v15.758c0,0.505,0.261,0.974,0.691,1.239c0.234,0.145,0.5,0.218,0.766,0.218
		c0.223,0,0.446-0.051,0.651-0.154l7.856-3.927l7.855,3.927c0.451,0.226,0.988,0.202,1.418-0.064c0.429-0.266,0.69-0.734,0.69-1.239
		V29.787l4.053-0.711c0.773-0.136,1.301-0.861,1.191-1.639l-0.721-5.091l3.574-3.694C273.728,18.087,273.728,17.19,273.181,16.625z
		 M255.771,39.989c-0.41-0.205-0.893-0.205-1.303,0l-6.399,3.198V33.55l0.506,0.954c0.369,0.694,1.222,0.971,1.927,0.626
		l4.618-2.258l4.617,2.258c0.206,0.101,0.424,0.148,0.64,0.148c0.522,0,1.026-0.283,1.288-0.774l0.505-0.953v9.636L255.771,39.989z
		 M267.017,20.831c-0.313,0.323-0.458,0.772-0.396,1.218l0.622,4.4l-4.375,0.767c-0.442,0.077-0.824,0.355-1.035,0.752l-2.083,3.924
		l-3.99-1.952c-0.202-0.099-0.421-0.148-0.64-0.148s-0.438,0.049-0.64,0.148l-3.991,1.952l-2.082-3.924
		c-0.21-0.397-0.593-0.675-1.036-0.752l-4.376-0.767l0.622-4.401c0.063-0.445-0.083-0.894-0.396-1.217l-3.089-3.192l3.089-3.193
		c0.312-0.323,0.458-0.772,0.395-1.217l-0.622-4.398l4.376-0.767c0.443-0.078,0.825-0.355,1.036-0.752l2.082-3.925l3.991,1.95
		c0.404,0.198,0.876,0.198,1.28,0l3.989-1.95l2.084,3.925c0.21,0.397,0.592,0.675,1.035,0.752l4.375,0.767l-0.622,4.397
		c-0.063,0.445,0.083,0.894,0.396,1.217l3.089,3.193L267.017,20.831z"/>
	<path fill="#FE330A" d="M255.12,7.675c-5.495,0-9.965,4.47-9.965,9.963c0,5.495,4.47,9.966,9.965,9.966
		c5.494,0,9.963-4.471,9.963-9.966C265.083,12.145,260.613,7.675,255.12,7.675z M255.12,24.69c-3.888,0-7.051-3.163-7.051-7.051
		c0-3.887,3.163-7.049,7.051-7.049c3.887,0,7.049,3.162,7.049,7.049C262.169,21.527,259.007,24.69,255.12,24.69z"/>
	<path fill="#FE330A" d="M258.09,13.942l-4.304,4.303l-1.638-1.636c-0.569-0.569-1.492-0.568-2.061,0.001
		c-0.568,0.569-0.568,1.492,0.001,2.06l2.668,2.666c0.285,0.284,0.657,0.426,1.03,0.426c0.373,0,0.746-0.143,1.03-0.427l5.334-5.333
		c0.569-0.569,0.569-1.492,0-2.061C259.582,13.374,258.659,13.374,258.09,13.942z"/>
</g>
</svg>
