<?xml version="1.0" encoding="utf-8"?>
<!-- Generator: Adobe Illustrator 16.0.0, SVG Export Plug-In . SVG Version: 6.00 Build 0)  -->
<!DOCTYPE svg PUBLIC "-//W3C//DTD SVG 1.1//EN" "http://www.w3.org/Graphics/SVG/1.1/DTD/svg11.dtd">
<svg version="1.1" id="Capa_1" xmlns="http://www.w3.org/2000/svg" xmlns:xlink="http://www.w3.org/1999/xlink" x="0px" y="0px"
	 width="68.031px" height="56.693px" viewBox="0 0 68.031 56.693" enable-background="new 0 0 68.031 56.693" xml:space="preserve">
<g>
	<g id="Layer_1_110_">
		<g>
			<path fill="#FE330A" d="M26.572,18.858l-3.589-3.394c0.417-0.759,0.678-1.619,0.678-2.546c0-2.938-2.38-5.32-5.321-5.32
				c-2.938,0-5.323,2.383-5.323,5.32c0,2.939,2.384,5.322,5.323,5.322c1.037,0,1.996-0.312,2.814-0.821l3.583,3.387
				C25.278,20.092,25.888,19.437,26.572,18.858z"/>
			<path fill="#FE330A" d="M41.747,18.433l4.768-8.021c0.47,0.134,0.956,0.231,1.467,0.231c2.944,0,5.326-2.385,5.326-5.322
				c0-2.939-2.382-5.319-5.326-5.319c-2.938,0-5.317,2.379-5.317,5.319c0,1.459,0.588,2.776,1.54,3.741l-4.752,8
				C40.266,17.43,41.037,17.893,41.747,18.433z"/>
			<path fill="#FE330A" d="M58.187,25.151c-2.289,0-4.229,1.454-4.979,3.479l-6.624-0.651c0,0.051,0.008,0.098,0.008,0.146
				c0,0.863-0.096,1.707-0.268,2.521l6.621,0.652c0.398,2.539,2.587,4.486,5.239,4.486c2.938,0,5.318-2.379,5.318-5.318
				C63.507,27.531,61.127,25.151,58.187,25.151z"/>
			<path fill="#FE330A" d="M39.912,46.071l-1.479-6.475c-0.836,0.293-1.706,0.5-2.61,0.605l1.479,6.471
				c-1.7,0.893-2.873,2.648-2.873,4.701c0,2.938,2.378,5.316,5.324,5.316c2.938,0,5.318-2.379,5.318-5.316
				C45.074,48.491,42.773,46.155,39.912,46.071z"/>
			<path fill="#FE330A" d="M22.543,30.694l-8.244,2.76c-0.951-1.451-2.589-2.416-4.452-2.416c-2.938,0-5.319,2.381-5.319,5.32
				s2.381,5.32,5.319,5.32c2.938,0,5.322-2.381,5.322-5.32c0-0.123-0.025-0.236-0.036-0.357l8.271-2.77
				C23.032,32.428,22.734,31.581,22.543,30.694z"/>
			<circle fill="#FE330A" cx="34.43" cy="28.125" r="9.124"/>
		</g>
	</g>
</g>
</svg>
