<?xml version="1.0" encoding="utf-8"?>
<!-- Generator: Adobe Illustrator 16.0.0, SVG Export Plug-In . SVG Version: 6.00 Build 0)  -->
<!DOCTYPE svg PUBLIC "-//W3C//DTD SVG 1.1//EN" "http://www.w3.org/Graphics/SVG/1.1/DTD/svg11.dtd">
<svg version="1.1" id="Capa_1" xmlns="http://www.w3.org/2000/svg" xmlns:xlink="http://www.w3.org/1999/xlink" x="0px" y="0px"
	 width="68.031px" height="56.693px" viewBox="-10.516 0.911 68.031 56.693" enable-background="new -10.516 0.911 68.031 56.693"
	 xml:space="preserve">
<g>
	<g id="Layer_1_110_">
		<g>
			<path fill="#FFFFFF" d="M16.055,19.768l-3.587-3.391c0.417-0.759,0.676-1.619,0.676-2.546c0-2.939-2.38-5.32-5.321-5.32
				c-2.939,0-5.324,2.38-5.324,5.32c0,2.939,2.384,5.322,5.324,5.322c1.037,0,1.996-0.309,2.814-0.821l3.583,3.387
				C14.761,21.003,15.372,20.347,16.055,19.768z"/>
			<path fill="#FFFFFF" d="M31.23,19.344l4.767-8.022c0.47,0.134,0.956,0.231,1.467,0.231c2.945,0,5.326-2.382,5.326-5.322
				c0-2.939-2.381-5.319-5.326-5.319c-2.939,0-5.319,2.379-5.319,5.319c0,1.459,0.588,2.779,1.54,3.741l-4.752,8
				C29.75,18.341,30.52,18.803,31.23,19.344z"/>
			<path fill="#FFFFFF" d="M47.671,26.061c-2.289,0-4.228,1.454-4.979,3.482l-6.624-0.654c0,0.051,0.008,0.098,0.008,0.147
				c0,0.862-0.096,1.707-0.268,2.521l6.621,0.654c0.401,2.539,2.587,4.487,5.241,4.487c2.939,0,5.319-2.38,5.319-5.318
				C52.99,28.442,50.61,26.061,47.671,26.061z"/>
			<path fill="#FFFFFF" d="M29.395,46.981l-1.48-6.471c-0.836,0.292-1.706,0.5-2.612,0.604l1.482,6.471
				c-1.701,0.89-2.874,2.648-2.874,4.701c0,2.938,2.378,5.317,5.325,5.317c2.938,0,5.318-2.379,5.318-5.317
				C34.557,49.402,32.257,47.066,29.395,46.981z"/>
			<path fill="#FFFFFF" d="M12.026,31.604l-8.244,2.761c-0.952-1.452-2.589-2.416-4.453-2.416c-2.94,0-5.319,2.381-5.319,5.319
				c0,2.942,2.379,5.323,5.319,5.323c2.938,0,5.323-2.381,5.323-5.323c0-0.123-0.026-0.236-0.036-0.356l8.271-2.77
				C12.515,33.339,12.218,32.491,12.026,31.604z"/>
			<circle fill="#FFFFFF" cx="23.914" cy="29.035" r="9.124"/>
		</g>
	</g>
</g>
</svg>
